# mat_beni : 81 faces from |P0_WorldSim_Robot|base_link|R1_Link|R2_Link|VIS_R2_Link_00_R2_VIS
# source world space, unit scale 0.01
v -0.037918 0.040625 0.072546
v -0.037918 0.040625 0.082000
v -0.036124 0.045509 0.072546
v -0.034320 0.050422 0.082000
v -0.034244 0.050501 0.075481
v -0.037219 0.030211 0.082000
v -0.037219 0.030211 0.072546
v -0.032346 0.020982 0.082000
v -0.032346 0.020982 0.072546
v -0.024139 0.014532 0.082000
v -0.024139 0.014532 0.072546
v -0.014019 0.011978 0.082000
v -0.014019 0.011978 0.072546
v -0.003736 0.013762 0.082000
v -0.003736 0.013762 0.072546
v 0.004934 0.019573 0.082000
v 0.004934 0.019573 0.072546
v 0.010490 0.028409 0.082000
v 0.010490 0.028409 0.072546
v 0.011972 0.038740 0.082000
v 0.011972 0.038740 0.072546
v 0.009124 0.048781 0.082000
v 0.009124 0.048781 0.072546
v 0.002438 0.056796 0.082000
v 0.002438 0.056796 0.072546
v -0.006930 0.061398 0.082000
v -0.006930 0.061398 0.072546
v -0.017360 0.061792 0.082000
v -0.017360 0.061792 0.072546
v -0.027124 0.057831 0.075481
v -0.027048 0.057909 0.082000
v -0.022190 0.059856 0.072546
v -0.030627 0.040171 0.064000
v -0.030334 0.032164 0.064000
v -0.016693 0.054518 0.064000
v -0.008681 0.054459 0.064000
v -0.001984 0.051169 0.064000
v 0.002795 0.045439 0.064000
v 0.004832 0.038261 0.064000
v 0.003772 0.030875 0.064000
v -0.000200 0.024559 0.064000
v -0.006398 0.020404 0.064000
v -0.013749 0.019130 0.064000
v -0.020984 0.020955 0.064000
v -0.026850 0.025566 0.064000
v -0.078593 0.091600 0.064000
v -0.069501 0.100961 0.064000
v -0.071774 0.098621 0.075546
v -0.076320 0.093940 0.075546
v -0.069501 0.100961 0.072546
v -0.078593 0.091600 0.072546
vt 0.479539 0.915732
vt 0.479489 0.889461
vt 0.493998 0.915704
vt 0.508490 0.889405
vt 0.508803 0.907521
vt 0.450485 0.889517
vt 0.450535 0.915787
vt 0.421481 0.889571
vt 0.421531 0.915842
vt 0.392479 0.889627
vt 0.392530 0.915898
vt 0.363476 0.889682
vt 0.363526 0.915953
vt 0.769516 0.889601
vt 0.798520 0.889628
vt 0.769493 0.915872
vt -0.123835 -0.318132
vt -0.123835 -0.318132
vt -0.123835 -0.318132
vt 0.740514 0.889575
vt 0.740491 0.915846
vt 0.711510 0.889548
vt 0.711487 0.915820
vt 0.682508 0.889523
vt 0.682483 0.915793
vt 0.653504 0.889496
vt 0.653481 0.915767
vt 0.624503 0.889470
vt 0.624477 0.915740
vt 0.595498 0.889443
vt 0.595476 0.915715
vt 0.566497 0.889418
vt 0.566472 0.915688
vt 0.537198 0.907507
vt 0.537493 0.889391
vt 0.552014 0.915675
vt 0.883336 0.567121
vt 0.868204 0.583246
vt 0.858738 0.546146
vt 0.840218 0.570665
vt 0.870334 0.537357
vt 0.954867 0.539586
vt 0.965572 0.549427
vt 0.939698 0.567665
vt 0.953768 0.585786
vt 0.981907 0.574623
vt 0.958532 0.605655
vt 0.988828 0.605097
vt 0.955545 0.625659
vt 0.983812 0.636300
vt 0.944891 0.642543
vt 0.966777 0.663372
vt 0.928319 0.653506
vt 0.940099 0.681383
vt 0.908667 0.656693
vt 0.908350 0.687071
vt 0.889393 0.651964
vt 0.877063 0.679675
vt 0.873596 0.639873
vt 0.851326 0.660471
vt 0.863922 0.622416
vt 0.835344 0.632683
vt 0.861995 0.602464
vt 0.831589 0.601002
vt 0.891134 0.372556
vt 0.936596 0.371660
vt 0.261001 0.453355
vt 0.113740 0.448839
vt 0.113742 0.432943
vt 0.261004 0.428461
vt 0.113660 0.459636
vt 0.266151 0.467263
vt 0.283728 0.489011
vt 0.112620 0.480430
vt 0.266157 0.414554
vt 0.113664 0.422146
vt 0.112629 0.401352
vt 0.283739 0.392811
vn -0.989867 0.141996 0.000000
vn -0.989869 0.141987 -0.000000
vn -0.938713 0.344699 -0.000000
vn -0.938713 0.344699 -0.000000
vn -0.989869 0.141987 -0.000000
vn -0.846529 0.532342 -0.000000
vn -0.938713 0.344699 -0.000000
vn -0.846529 0.532342 -0.000000
vn -0.882286 0.470714 0.000000
vn -0.962042 -0.272901 -0.000000
vn -0.989869 0.141987 -0.000000
vn -0.962045 -0.272889 -0.000000
vn -0.962045 -0.272889 -0.000000
vn -0.989869 0.141987 -0.000000
vn -0.989867 0.141996 0.000000
vn -0.767870 -0.640605 -0.000000
vn -0.962042 -0.272901 -0.000000
vn -0.767878 -0.640596 -0.000000
vn -0.767878 -0.640596 -0.000000
vn -0.962042 -0.272901 -0.000000
vn -0.962045 -0.272889 -0.000000
vn -0.440927 -0.897543 -0.000000
vn -0.767870 -0.640605 -0.000000
vn -0.440938 -0.897538 -0.000000
vn -0.440938 -0.897538 -0.000000
vn -0.767870 -0.640605 -0.000000
vn -0.767878 -0.640596 -0.000000
vn -0.037743 -0.999287 -0.000000
vn -0.440927 -0.897543 -0.000000
vn -0.037755 -0.999287 -0.000000
vn -0.037755 -0.999287 -0.000000
vn -0.440927 -0.897543 -0.000000
vn -0.440938 -0.897538 -0.000000
vn 0.371967 -0.928246 -0.000000
vn -0.037743 -0.999287 -0.000000
vn 0.371955 -0.928251 -0.000000
vn 0.371955 -0.928251 -0.000000
vn -0.037743 -0.999287 -0.000000
vn -0.037755 -0.999287 -0.000000
vn 0.717360 -0.696702 -0.000000
vn 0.371967 -0.928246 -0.000000
vn 0.717351 -0.696711 -0.000000
vn 0.717351 -0.696711 -0.000000
vn 0.371967 -0.928246 -0.000000
vn 0.371955 -0.928251 -0.000000
vn 0.938716 -0.344692 -0.000000
vn 0.717360 -0.696702 -0.000000
vn 0.938712 -0.344704 -0.000000
vn 0.938712 -0.344704 -0.000000
vn 0.717360 -0.696702 -0.000000
vn 0.717351 -0.696711 -0.000000
vn 0.997758 0.066917 0.000000
vn 0.938716 -0.344692 -0.000000
vn 0.997759 0.066905 0.000000
vn 0.997759 0.066905 0.000000
vn 0.938716 -0.344692 -0.000000
vn 0.938712 -0.344704 -0.000000
vn 0.884280 0.466957 0.000000
vn 0.997758 0.066917 0.000000
vn 0.884286 0.466947 0.000000
vn 0.884286 0.466947 0.000000
vn 0.997758 0.066917 0.000000
vn 0.997759 0.066905 0.000000
vn 0.617901 0.786256 0.000000
vn 0.884280 0.466957 0.000000
vn 0.617911 0.786248 0.000000
vn 0.617911 0.786248 0.000000
vn 0.884280 0.466957 0.000000
vn 0.884286 0.466947 0.000000
vn 0.244682 0.969603 0.000000
vn 0.617901 0.786256 0.000000
vn 0.244693 0.969601 0.000000
vn 0.244693 0.969601 0.000000
vn 0.617901 0.786256 0.000000
vn 0.617911 0.786248 0.000000
vn -0.170835 0.985300 0.000000
vn 0.244682 0.969603 0.000000
vn -0.170833 0.985300 0.000000
vn -0.170833 0.985300 0.000000
vn 0.244682 0.969603 0.000000
vn 0.244693 0.969601 0.000000
vn -0.496275 0.868166 0.000000
vn -0.556831 0.830626 0.000000
vn -0.371961 0.928248 0.000000
vn -0.371961 0.928248 0.000000
vn -0.556831 0.830626 0.000000
vn -0.170835 0.985300 0.000000
vn -0.371961 0.928248 0.000000
vn -0.170835 0.985300 0.000000
vn -0.170833 0.985300 0.000000
vn -0.717356 0.696707 0.000000
vn -0.846529 0.532342 -0.000000
vn -0.717356 0.696707 0.000000
vn -0.717356 0.696707 0.000000
vn -0.846529 0.532342 -0.000000
vn -0.556831 0.830626 0.000000
vn -0.692168 0.099289 -0.714874
vn -0.672713 -0.190818 -0.714875
vn -0.692167 0.099290 -0.714875
vn -0.692167 0.099290 -0.714875
vn -0.672713 -0.190818 -0.714875
vn -0.672711 -0.190824 -0.714875
vn -0.663770 0.243739 -0.707107
vn -0.692168 0.099289 -0.714874
vn -0.692167 0.099290 -0.714875
vn -0.263016 0.656371 -0.707107
vn -0.119458 0.688974 -0.714874
vn -0.263018 0.656368 -0.707108
vn 0.171103 0.677996 -0.714874
vn -0.119457 0.688972 -0.714876
vn 0.171097 0.677997 -0.714875
vn 0.171097 0.677997 -0.714875
vn -0.119457 0.688972 -0.714876
vn -0.119458 0.688974 -0.714874
vn 0.432076 0.549786 -0.714874
vn 0.171103 0.677996 -0.714874
vn 0.432071 0.549790 -0.714875
vn 0.432071 0.549790 -0.714875
vn 0.171103 0.677996 -0.714874
vn 0.171097 0.677997 -0.714875
vn 0.618339 0.326514 -0.714875
vn 0.432076 0.549786 -0.714874
vn 0.618336 0.326519 -0.714875
vn 0.618336 0.326519 -0.714875
vn 0.432076 0.549786 -0.714874
vn 0.432071 0.549790 -0.714875
vn 0.697686 0.046784 -0.714875
vn 0.618339 0.326514 -0.714875
vn 0.697686 0.046790 -0.714875
vn 0.697686 0.046790 -0.714875
vn 0.618339 0.326514 -0.714875
vn 0.618336 0.326519 -0.714875
vn 0.656396 -0.241035 -0.714875
vn 0.697686 0.046784 -0.714875
vn 0.656399 -0.241029 -0.714875
vn 0.656399 -0.241029 -0.714875
vn 0.697686 0.046784 -0.714875
vn 0.697686 0.046790 -0.714875
vn 0.501609 -0.487178 -0.714875
vn 0.656396 -0.241035 -0.714875
vn 0.501615 -0.487173 -0.714875
vn 0.501615 -0.487173 -0.714875
vn 0.656396 -0.241035 -0.714875
vn 0.656399 -0.241029 -0.714875
vn 0.260091 -0.649082 -0.714875
vn 0.501609 -0.487178 -0.714875
vn 0.260097 -0.649079 -0.714875
vn 0.260097 -0.649079 -0.714875
vn 0.501609 -0.487178 -0.714875
vn 0.501615 -0.487173 -0.714875
vn -0.026401 -0.698754 -0.714875
vn 0.260091 -0.649082 -0.714875
vn -0.026395 -0.698755 -0.714874
vn -0.026395 -0.698755 -0.714874
vn 0.260091 -0.649082 -0.714875
vn 0.260097 -0.649079 -0.714875
vn -0.308327 -0.627605 -0.714875
vn -0.026401 -0.698754 -0.714875
vn -0.308322 -0.627608 -0.714875
vn -0.308322 -0.627608 -0.714875
vn -0.026401 -0.698754 -0.714875
vn -0.026395 -0.698755 -0.714874
vn -0.536941 -0.447938 -0.714875
vn -0.308327 -0.627605 -0.714875
vn -0.536937 -0.447943 -0.714875
vn -0.536937 -0.447943 -0.714875
vn -0.308327 -0.627605 -0.714875
vn -0.308322 -0.627608 -0.714875
vn -0.672713 -0.190818 -0.714875
vn -0.536941 -0.447938 -0.714875
vn -0.672711 -0.190824 -0.714875
vn -0.672711 -0.190824 -0.714875
vn -0.536941 -0.447938 -0.714875
vn -0.536937 -0.447943 -0.714875
vn -0.000000 0.000000 -1.000000
vn 0.000000 0.000000 -1.000000
vn 0.000000 0.000000 -1.000000
vn -0.000000 0.000000 -1.000000
vn -0.000000 0.000000 -1.000000
vn -0.000000 0.000000 -1.000000
vn -0.000000 0.000000 -1.000000
vn -0.000000 0.000000 -1.000000
vn -0.000000 0.000000 -1.000000
vn 0.000000 0.000000 -1.000000
vn 0.000000 0.000000 -1.000000
vn -0.000000 0.000000 -1.000000
vn 0.000000 -0.000000 -1.000000
vn -0.000000 0.000000 -1.000000
vn 0.000000 -0.000000 -1.000000
vn -0.000000 0.000000 -1.000000
vn -0.000000 0.000000 -1.000000
vn 0.000000 -0.000000 -1.000000
vn 0.000000 -0.000000 -1.000000
vn -0.000000 0.000000 -1.000000
vn 0.000000 -0.000000 -1.000000
vn 0.000000 -0.000000 -1.000000
vn -0.000000 0.000000 -1.000000
vn -0.000000 0.000000 -1.000000
vn -0.000000 0.000000 -1.000000
vn -0.000000 0.000000 -1.000000
vn -0.000000 0.000000 -1.000000
vn -0.000000 0.000000 -1.000000
vn -0.000000 0.000000 -1.000000
vn -0.000000 0.000000 -1.000000
vn 0.000000 0.000000 -1.000000
vn 0.000000 0.000000 -1.000000
vn -0.000000 0.000000 -1.000000
vn -0.000000 0.000000 -1.000000
vn 0.000000 0.000000 -1.000000
vn -0.000000 0.000000 -1.000000
vn 0.000000 0.000000 -1.000000
vn 0.185984 0.191495 0.963711
vn 0.185974 0.191486 0.963715
vn -0.185976 -0.191488 0.963714
vn -0.185981 -0.191493 0.963712
vn 0.696707 0.717356 -0.000000
vn 0.696707 0.717356 -0.000000
vn 0.696707 0.717356 -0.000000
vn 0.696707 0.717356 0.000000
vn -0.696707 -0.717356 -0.000000
vn -0.696707 -0.717356 -0.000000
vn -0.696707 -0.717356 -0.000000
vn -0.696707 -0.717356 -0.000000
vn 0.358453 0.369076 0.857493
vn 0.185974 0.191486 0.963715
vn 0.358459 0.369082 0.857488
vn 0.358452 0.369076 0.857493
vn -0.358458 -0.369082 0.857489
vn -0.185976 -0.191488 0.963714
vn -0.358453 -0.369077 0.857493
vn -0.358452 -0.369076 0.857493
f 1/1/1 2/2/2 3/3/3
f 3/3/4 2/2/5 4/4/6
f 3/3/7 4/4/8 5/5/9
f 6/6/10 2/2/11 7/7/12
f 7/7/13 2/2/14 1/1/15
f 8/8/16 6/6/17 9/9/18
f 9/9/19 6/6/20 7/7/21
f 10/10/22 8/8/23 11/11/24
f 11/11/25 8/8/26 9/9/27
f 12/12/28 10/10/29 13/13/30
f 13/13/31 10/10/32 11/11/33
f 14/14/34 12/15/35 15/16/36
f 15/17/37 12/18/38 13/19/39
f 16/20/40 14/14/41 17/21/42
f 17/21/43 14/14/44 15/16/45
f 18/22/46 16/20/47 19/23/48
f 19/23/49 16/20/50 17/21/51
f 20/24/52 18/22/53 21/25/54
f 21/25/55 18/22/56 19/23/57
f 22/26/58 20/24/59 23/27/60
f 23/27/61 20/24/62 21/25/63
f 24/28/64 22/26/65 25/29/66
f 25/29/67 22/26/68 23/27/69
f 26/30/70 24/28/71 27/31/72
f 27/31/73 24/28/74 25/29/75
f 28/32/76 26/30/77 29/33/78
f 29/33/79 26/30/80 27/31/81
f 30/34/82 31/35/83 32/36/84
f 32/36/85 31/35/86 28/32/87
f 32/36/88 28/32/89 29/33/90
f 5/5/91 4/4/92 30/34/93
f 30/34/94 4/4/95 31/35/96
f 33/37/97 34/38/98 1/39/99
f 1/39/100 34/38/101 7/40/102
f 3/41/103 33/37/104 1/39/105
f 32/42/106 29/43/107 35/44/108
f 36/45/109 35/44/110 27/46/111
f 27/46/112 35/44/113 29/43/114
f 37/47/115 36/45/116 25/48/117
f 25/48/118 36/45/119 27/46/120
f 38/49/121 37/47/122 23/50/123
f 23/50/124 37/47/125 25/48/126
f 39/51/127 38/49/128 21/52/129
f 21/52/130 38/49/131 23/50/132
f 40/53/133 39/51/134 19/54/135
f 19/54/136 39/51/137 21/52/138
f 41/55/139 40/53/140 17/56/141
f 17/56/142 40/53/143 19/54/144
f 42/57/145 41/55/146 15/58/147
f 15/58/148 41/55/149 17/56/150
f 43/59/151 42/57/152 13/60/153
f 13/60/154 42/57/155 15/58/156
f 44/61/157 43/59/158 11/62/159
f 11/62/160 43/59/161 13/60/162
f 45/63/163 44/61/164 9/64/165
f 9/64/166 44/61/167 11/62/168
f 34/38/169 45/63/170 7/40/171
f 7/40/172 45/63/173 9/64/174
f 33/37/175 46/65/176 47/66/177
f 33/37/175 47/66/177 35/44/178
f 34/38/179 33/37/180 35/44/181
f 34/38/182 35/44/183 45/63/184
f 45/63/185 35/44/186 44/61/187
f 41/55/188 42/57/189 35/44/190
f 35/44/191 42/57/192 43/59/193
f 35/44/194 43/59/195 44/61/196
f 39/51/197 40/53/198 38/49/199
f 38/49/200 40/53/201 41/55/202
f 38/49/203 41/55/204 37/47/205
f 37/47/206 41/55/207 35/44/208
f 37/47/209 35/44/210 36/45/211
f 30/67/212 48/68/213 49/69/214
f 30/67/212 49/69/214 5/70/215
f 50/71/216 32/72/217 35/73/218
f 50/71/216 35/73/218 47/74/219
f 3/75/220 51/76/221 46/77/222
f 3/75/220 46/77/222 33/78/223
f 50/71/224 48/68/225 30/67/226
f 50/71/224 30/67/226 32/72/227
f 5/70/228 49/69/229 51/76/230
f 5/70/228 51/76/230 3/75/231
