# mat_beni : 81 faces from |P0_WorldSim_Robot|base_link|L1_Link|L2_Link|VIS_L2_Link_00_L1_VIS
# source world space, unit scale 0.01
v -0.037918 0.040625 -0.072700
v -0.036124 0.045509 -0.072700
v -0.037918 0.040625 -0.082154
v -0.034320 0.050422 -0.082154
v -0.034244 0.050501 -0.075635
v -0.037219 0.030211 -0.082154
v -0.037219 0.030211 -0.072700
v -0.032346 0.020982 -0.082154
v -0.032346 0.020982 -0.072700
v -0.024139 0.014532 -0.082154
v -0.024139 0.014532 -0.072700
v -0.014019 0.011978 -0.082154
v -0.014019 0.011978 -0.072700
v -0.003736 0.013762 -0.082154
v -0.003736 0.013762 -0.072700
v 0.004934 0.019573 -0.082154
v 0.004934 0.019573 -0.072700
v 0.010490 0.028409 -0.082154
v 0.010490 0.028409 -0.072700
v 0.011972 0.038740 -0.082154
v 0.011972 0.038740 -0.072700
v 0.009124 0.048781 -0.082154
v 0.009124 0.048781 -0.072700
v 0.002438 0.056796 -0.082154
v 0.002438 0.056796 -0.072700
v -0.006930 0.061398 -0.082154
v -0.006930 0.061398 -0.072700
v -0.017360 0.061792 -0.082154
v -0.017360 0.061792 -0.072700
v -0.027124 0.057831 -0.075635
v -0.022190 0.059856 -0.072700
v -0.027048 0.057909 -0.082154
v -0.030627 0.040171 -0.064154
v -0.030334 0.032164 -0.064154
v -0.016693 0.054518 -0.064154
v -0.008681 0.054459 -0.064154
v -0.001984 0.051169 -0.064154
v 0.002795 0.045439 -0.064154
v 0.004832 0.038261 -0.064154
v 0.003772 0.030875 -0.064154
v -0.000200 0.024559 -0.064154
v -0.006398 0.020404 -0.064154
v -0.013749 0.019130 -0.064154
v -0.020984 0.020955 -0.064154
v -0.026850 0.025566 -0.064154
v -0.069501 0.100961 -0.064154
v -0.078593 0.091600 -0.064154
v -0.076320 0.093940 -0.075700
v -0.071774 0.098621 -0.075700
v -0.069501 0.100961 -0.072700
v -0.078593 0.091600 -0.072700
vt 0.479539 0.915732
vt 0.493998 0.915704
vt 0.479489 0.889461
vt 0.508490 0.889405
vt 0.508803 0.907521
vt 0.450485 0.889517
vt 0.450535 0.915787
vt 0.421481 0.889571
vt 0.421531 0.915842
vt 0.392479 0.889627
vt 0.392530 0.915898
vt 0.363476 0.889682
vt 0.363526 0.915953
vt 0.769516 0.889601
vt 0.769493 0.915872
vt 0.798520 0.889628
vt -0.123835 -0.318132
vt -0.123835 -0.318132
vt -0.123835 -0.318132
vt 0.740514 0.889575
vt 0.740491 0.915846
vt 0.711510 0.889548
vt 0.711487 0.915820
vt 0.682508 0.889523
vt 0.682483 0.915793
vt 0.653504 0.889496
vt 0.653481 0.915767
vt 0.624503 0.889470
vt 0.624477 0.915740
vt 0.595498 0.889443
vt 0.595476 0.915715
vt 0.566497 0.889418
vt 0.566472 0.915688
vt 0.537198 0.907507
vt 0.552014 0.915675
vt 0.537493 0.889391
vt 0.883336 0.567121
vt 0.858738 0.546146
vt 0.868204 0.583246
vt 0.840218 0.570665
vt 0.870334 0.537357
vt 0.954867 0.539586
vt 0.939698 0.567665
vt 0.965572 0.549427
vt 0.953768 0.585786
vt 0.981907 0.574623
vt 0.958532 0.605655
vt 0.988828 0.605097
vt 0.955545 0.625659
vt 0.983812 0.636300
vt 0.944891 0.642543
vt 0.966777 0.663372
vt 0.928319 0.653506
vt 0.940099 0.681383
vt 0.908667 0.656693
vt 0.908350 0.687071
vt 0.889393 0.651964
vt 0.877063 0.679675
vt 0.873596 0.639873
vt 0.851326 0.660471
vt 0.863922 0.622416
vt 0.835344 0.632683
vt 0.861995 0.602464
vt 0.831589 0.601002
vt 0.936596 0.371660
vt 0.891134 0.372556
vt 0.261001 0.453355
vt 0.261004 0.428461
vt 0.113742 0.432943
vt 0.113740 0.448839
vt 0.113660 0.459636
vt 0.112620 0.480430
vt 0.283728 0.489011
vt 0.266151 0.467263
vt 0.266157 0.414554
vt 0.283739 0.392811
vt 0.112629 0.401352
vt 0.113664 0.422146
vn -0.989867 0.141996 0.000000
vn -0.938713 0.344699 0.000000
vn -0.989869 0.141987 0.000000
vn -0.938713 0.344699 0.000000
vn -0.846529 0.532342 0.000000
vn -0.989869 0.141987 0.000000
vn -0.938713 0.344699 0.000000
vn -0.882286 0.470714 0.000000
vn -0.846529 0.532342 0.000000
vn -0.962042 -0.272901 -0.000000
vn -0.962045 -0.272889 -0.000000
vn -0.989869 0.141987 0.000000
vn -0.962045 -0.272889 -0.000000
vn -0.989867 0.141996 0.000000
vn -0.989869 0.141987 0.000000
vn -0.767870 -0.640605 -0.000000
vn -0.767878 -0.640596 -0.000000
vn -0.962042 -0.272901 -0.000000
vn -0.767878 -0.640596 -0.000000
vn -0.962045 -0.272889 -0.000000
vn -0.962042 -0.272901 -0.000000
vn -0.440927 -0.897543 -0.000000
vn -0.440938 -0.897538 -0.000000
vn -0.767870 -0.640605 -0.000000
vn -0.440938 -0.897538 -0.000000
vn -0.767878 -0.640596 -0.000000
vn -0.767870 -0.640605 -0.000000
vn -0.037743 -0.999287 -0.000000
vn -0.037755 -0.999287 -0.000000
vn -0.440927 -0.897543 -0.000000
vn -0.037755 -0.999287 -0.000000
vn -0.440938 -0.897538 -0.000000
vn -0.440927 -0.897543 -0.000000
vn 0.371967 -0.928246 -0.000000
vn 0.371955 -0.928251 -0.000000
vn -0.037743 -0.999287 -0.000000
vn 0.371955 -0.928251 -0.000000
vn -0.037755 -0.999287 -0.000000
vn -0.037743 -0.999287 -0.000000
vn 0.717360 -0.696702 -0.000000
vn 0.717351 -0.696711 -0.000000
vn 0.371967 -0.928246 -0.000000
vn 0.717351 -0.696711 -0.000000
vn 0.371955 -0.928251 -0.000000
vn 0.371967 -0.928246 -0.000000
vn 0.938716 -0.344692 -0.000000
vn 0.938712 -0.344704 -0.000000
vn 0.717360 -0.696702 -0.000000
vn 0.938712 -0.344704 -0.000000
vn 0.717351 -0.696711 -0.000000
vn 0.717360 -0.696702 -0.000000
vn 0.997758 0.066917 0.000000
vn 0.997759 0.066905 0.000000
vn 0.938716 -0.344692 -0.000000
vn 0.997759 0.066905 0.000000
vn 0.938712 -0.344704 -0.000000
vn 0.938716 -0.344692 -0.000000
vn 0.884280 0.466957 0.000000
vn 0.884286 0.466947 0.000000
vn 0.997758 0.066917 0.000000
vn 0.884286 0.466947 0.000000
vn 0.997759 0.066905 0.000000
vn 0.997758 0.066917 0.000000
vn 0.617901 0.786256 0.000000
vn 0.617911 0.786248 0.000000
vn 0.884280 0.466957 0.000000
vn 0.617911 0.786248 0.000000
vn 0.884286 0.466947 0.000000
vn 0.884280 0.466957 0.000000
vn 0.244682 0.969603 0.000000
vn 0.244693 0.969601 0.000000
vn 0.617901 0.786256 0.000000
vn 0.244693 0.969601 0.000000
vn 0.617911 0.786248 0.000000
vn 0.617901 0.786256 0.000000
vn -0.170835 0.985300 -0.000000
vn -0.170833 0.985300 0.000000
vn 0.244682 0.969603 0.000000
vn -0.170833 0.985300 0.000000
vn 0.244693 0.969601 0.000000
vn 0.244682 0.969603 0.000000
vn -0.496275 0.868166 0.000000
vn -0.371961 0.928248 -0.000000
vn -0.556831 0.830626 -0.000000
vn -0.371961 0.928248 -0.000000
vn -0.170835 0.985300 -0.000000
vn -0.556831 0.830626 -0.000000
vn -0.371961 0.928248 -0.000000
vn -0.170833 0.985300 0.000000
vn -0.170835 0.985300 -0.000000
vn -0.717356 0.696707 0.000000
vn -0.717356 0.696707 0.000000
vn -0.846529 0.532342 0.000000
vn -0.717356 0.696707 0.000000
vn -0.556831 0.830626 -0.000000
vn -0.846529 0.532342 0.000000
vn -0.692168 0.099289 0.714874
vn -0.692167 0.099290 0.714875
vn -0.672713 -0.190818 0.714875
vn -0.692167 0.099290 0.714875
vn -0.672711 -0.190824 0.714875
vn -0.672713 -0.190818 0.714875
vn -0.663770 0.243739 0.707107
vn -0.692167 0.099290 0.714875
vn -0.692168 0.099289 0.714874
vn -0.263016 0.656371 0.707107
vn -0.263018 0.656368 0.707108
vn -0.119458 0.688974 0.714874
vn 0.171103 0.677996 0.714874
vn 0.171097 0.677997 0.714875
vn -0.119457 0.688972 0.714876
vn 0.171097 0.677997 0.714875
vn -0.119458 0.688974 0.714874
vn -0.119457 0.688972 0.714876
vn 0.432076 0.549786 0.714874
vn 0.432071 0.549790 0.714875
vn 0.171103 0.677996 0.714874
vn 0.432071 0.549790 0.714875
vn 0.171097 0.677997 0.714875
vn 0.171103 0.677996 0.714874
vn 0.618339 0.326514 0.714875
vn 0.618336 0.326519 0.714875
vn 0.432076 0.549786 0.714874
vn 0.618336 0.326519 0.714875
vn 0.432071 0.549790 0.714875
vn 0.432076 0.549786 0.714874
vn 0.697686 0.046784 0.714875
vn 0.697686 0.046790 0.714875
vn 0.618339 0.326514 0.714875
vn 0.697686 0.046790 0.714875
vn 0.618336 0.326519 0.714875
vn 0.618339 0.326514 0.714875
vn 0.656396 -0.241035 0.714875
vn 0.656399 -0.241029 0.714875
vn 0.697686 0.046784 0.714875
vn 0.656399 -0.241029 0.714875
vn 0.697686 0.046790 0.714875
vn 0.697686 0.046784 0.714875
vn 0.501609 -0.487178 0.714875
vn 0.501615 -0.487173 0.714875
vn 0.656396 -0.241035 0.714875
vn 0.501615 -0.487173 0.714875
vn 0.656399 -0.241029 0.714875
vn 0.656396 -0.241035 0.714875
vn 0.260091 -0.649082 0.714875
vn 0.260097 -0.649079 0.714875
vn 0.501609 -0.487178 0.714875
vn 0.260097 -0.649079 0.714875
vn 0.501615 -0.487173 0.714875
vn 0.501609 -0.487178 0.714875
vn -0.026401 -0.698754 0.714875
vn -0.026395 -0.698755 0.714874
vn 0.260091 -0.649082 0.714875
vn -0.026395 -0.698755 0.714874
vn 0.260097 -0.649079 0.714875
vn 0.260091 -0.649082 0.714875
vn -0.308327 -0.627605 0.714875
vn -0.308322 -0.627608 0.714875
vn -0.026401 -0.698754 0.714875
vn -0.308322 -0.627608 0.714875
vn -0.026395 -0.698755 0.714874
vn -0.026401 -0.698754 0.714875
vn -0.536941 -0.447938 0.714875
vn -0.536937 -0.447943 0.714875
vn -0.308327 -0.627605 0.714875
vn -0.536937 -0.447943 0.714875
vn -0.308322 -0.627608 0.714875
vn -0.308327 -0.627605 0.714875
vn -0.672713 -0.190818 0.714875
vn -0.672711 -0.190824 0.714875
vn -0.536941 -0.447938 0.714875
vn -0.672711 -0.190824 0.714875
vn -0.536937 -0.447943 0.714875
vn -0.536941 -0.447938 0.714875
vn -0.000000 0.000000 1.000000
vn -0.000000 0.000000 1.000000
vn -0.000000 -0.000000 1.000000
vn -0.000000 -0.000000 1.000000
vn -0.000000 0.000000 1.000000
vn -0.000000 0.000000 1.000000
vn -0.000000 0.000000 1.000000
vn -0.000000 0.000000 1.000000
vn -0.000000 -0.000000 1.000000
vn -0.000000 0.000000 1.000000
vn -0.000000 -0.000000 1.000000
vn 0.000000 -0.000000 1.000000
vn -0.000000 0.000000 1.000000
vn -0.000000 0.000000 1.000000
vn -0.000000 0.000000 1.000000
vn 0.000000 -0.000000 1.000000
vn -0.000000 0.000000 1.000000
vn 0.000000 -0.000000 1.000000
vn 0.000000 -0.000000 1.000000
vn -0.000000 0.000000 1.000000
vn 0.000000 -0.000000 1.000000
vn 0.000000 -0.000000 1.000000
vn -0.000000 0.000000 1.000000
vn -0.000000 0.000000 1.000000
vn -0.000000 0.000000 1.000000
vn -0.000000 0.000000 1.000000
vn -0.000000 0.000000 1.000000
vn -0.000000 0.000000 1.000000
vn -0.000000 0.000000 1.000000
vn -0.000000 -0.000000 1.000000
vn -0.000000 0.000000 1.000000
vn -0.000000 -0.000000 1.000000
vn -0.000000 0.000000 1.000000
vn -0.000000 0.000000 1.000000
vn -0.000000 -0.000000 1.000000
vn -0.000000 -0.000000 1.000000
vn -0.000000 0.000000 1.000000
vn 0.185984 0.191495 -0.963711
vn -0.185981 -0.191493 -0.963712
vn -0.185976 -0.191488 -0.963714
vn 0.185974 0.191486 -0.963715
vn 0.696707 0.717356 0.000000
vn 0.696707 0.717356 0.000000
vn 0.696707 0.717356 0.000000
vn 0.696707 0.717356 0.000000
vn -0.696707 -0.717356 -0.000000
vn -0.696707 -0.717356 -0.000000
vn -0.696707 -0.717356 -0.000000
vn -0.696707 -0.717356 -0.000000
vn 0.358453 0.369076 -0.857493
vn 0.358452 0.369076 -0.857493
vn 0.358459 0.369082 -0.857488
vn 0.185974 0.191486 -0.963715
vn -0.358458 -0.369082 -0.857489
vn -0.358452 -0.369076 -0.857493
vn -0.358453 -0.369077 -0.857493
vn -0.185976 -0.191488 -0.963714
f 1/1/1 2/2/2 3/3/3
f 2/2/4 4/4/5 3/3/6
f 2/2/7 5/5/8 4/4/9
f 6/6/10 7/7/11 3/3/12
f 7/7/13 1/1/14 3/3/15
f 8/8/16 9/9/17 6/6/18
f 9/9/19 7/7/20 6/6/21
f 10/10/22 11/11/23 8/8/24
f 11/11/25 9/9/26 8/8/27
f 12/12/28 13/13/29 10/10/30
f 13/13/31 11/11/32 10/10/33
f 14/14/34 15/15/35 12/16/36
f 15/17/37 13/18/38 12/19/39
f 16/20/40 17/21/41 14/14/42
f 17/21/43 15/15/44 14/14/45
f 18/22/46 19/23/47 16/20/48
f 19/23/49 17/21/50 16/20/51
f 20/24/52 21/25/53 18/22/54
f 21/25/55 19/23/56 18/22/57
f 22/26/58 23/27/59 20/24/60
f 23/27/61 21/25/62 20/24/63
f 24/28/64 25/29/65 22/26/66
f 25/29/67 23/27/68 22/26/69
f 26/30/70 27/31/71 24/28/72
f 27/31/73 25/29/74 24/28/75
f 28/32/76 29/33/77 26/30/78
f 29/33/79 27/31/80 26/30/81
f 30/34/82 31/35/83 32/36/84
f 31/35/85 28/32/86 32/36/87
f 31/35/88 29/33/89 28/32/90
f 5/5/91 30/34/92 4/4/93
f 30/34/94 32/36/95 4/4/96
f 33/37/97 1/38/98 34/39/99
f 1/38/100 7/40/101 34/39/102
f 2/41/103 1/38/104 33/37/105
f 31/42/106 35/43/107 29/44/108
f 36/45/109 27/46/110 35/43/111
f 27/46/112 29/44/113 35/43/114
f 37/47/115 25/48/116 36/45/117
f 25/48/118 27/46/119 36/45/120
f 38/49/121 23/50/122 37/47/123
f 23/50/124 25/48/125 37/47/126
f 39/51/127 21/52/128 38/49/129
f 21/52/130 23/50/131 38/49/132
f 40/53/133 19/54/134 39/51/135
f 19/54/136 21/52/137 39/51/138
f 41/55/139 17/56/140 40/53/141
f 17/56/142 19/54/143 40/53/144
f 42/57/145 15/58/146 41/55/147
f 15/58/148 17/56/149 41/55/150
f 43/59/151 13/60/152 42/57/153
f 13/60/154 15/58/155 42/57/156
f 44/61/157 11/62/158 43/59/159
f 11/62/160 13/60/161 43/59/162
f 45/63/163 9/64/164 44/61/165
f 9/64/166 11/62/167 44/61/168
f 34/39/169 7/40/170 45/63/171
f 7/40/172 9/64/173 45/63/174
f 33/37/175 35/43/176 46/65/177
f 33/37/175 46/65/177 47/66/178
f 34/39/179 35/43/180 33/37/181
f 34/39/182 45/63/183 35/43/184
f 45/63/185 44/61/186 35/43/187
f 41/55/188 35/43/189 42/57/190
f 35/43/191 43/59/192 42/57/193
f 35/43/194 44/61/195 43/59/196
f 39/51/197 38/49/198 40/53/199
f 38/49/200 41/55/201 40/53/202
f 38/49/203 37/47/204 41/55/205
f 37/47/206 35/43/207 41/55/208
f 37/47/209 36/45/210 35/43/211
f 30/67/212 5/68/213 48/69/214
f 30/67/212 48/69/214 49/70/215
f 50/71/216 46/72/217 35/73/218
f 50/71/216 35/73/218 31/74/219
f 2/75/220 33/76/221 47/77/222
f 2/75/220 47/77/222 51/78/223
f 50/71/224 31/74/225 30/67/226
f 50/71/224 30/67/226 49/70/227
f 5/68/228 2/75/229 51/78/230
f 5/68/228 51/78/230 48/69/231
