# mat_beni : 167 faces from |P0_WorldSim_Robot|base_link|L1_Link|VIS_L1_Link_00_L1_VIS
# source world space, unit scale 0.01
v -0.015856 0.093581 -0.064022
v -0.015856 0.093581 -0.075909
v 0.006250 0.104465 -0.064022
v 0.007660 0.110051 -0.085767
v -0.015918 0.142412 -0.077054
v 0.007760 0.132289 -0.085767
v -0.077265 0.105987 -0.085767
v -0.079265 0.115836 -0.077054
v -0.070173 0.083059 -0.085767
v -0.067444 0.077623 -0.075909
v 0.024848 0.115445 -0.062479
v 0.024848 0.115445 -0.064022
v 0.030836 0.119015 -0.065167
v 0.030168 0.121048 -0.076481
v -0.015918 0.142412 -0.064022
v 0.019254 0.135321 -0.065167
v 0.019254 0.135321 -0.076481
v 0.023900 0.120238 -0.059227
v 0.017669 0.129074 -0.056422
v 0.010735 0.133209 -0.056422
v -0.091387 0.084982 -0.071972
v -0.091387 0.084982 -0.060854
v -0.067444 0.077623 -0.064022
v -0.079265 0.115836 -0.064022
v -0.102185 0.101555 -0.064595
v -0.102185 0.101555 -0.076481
v -0.077265 0.105987 -0.058300
v -0.071355 0.086881 -0.058300
v -0.054337 0.113080 -0.054867
v -0.065801 0.109534 -0.058300
v -0.046949 0.089196 -0.054867
v -0.059891 0.090427 -0.058300
v -0.056935 0.080874 -0.064022
v -0.022054 0.096897 -0.054867
v -0.018737 0.092690 -0.064022
v -0.068756 0.119087 -0.064022
v -0.025353 0.115765 -0.054092
v -0.020816 0.125579 -0.055513
v -0.025506 0.104955 -0.054092
v -0.012680 0.132698 -0.056422
v -0.002351 0.135893 -0.056422
v 0.025997 0.109632 -0.064022
v 0.025997 0.109632 -0.050289
v 0.023900 0.120238 -0.050289
v 0.017669 0.129074 -0.050289
v -0.013318 0.087670 -0.064022
v -0.013318 0.087670 -0.050289
v -0.021249 0.095017 -0.050289
v 0.023600 0.099090 -0.064022
v -0.003084 0.084184 -0.064022
v 0.007684 0.085161 -0.064022
v 0.017122 0.090434 -0.064022
v -0.025506 0.104955 -0.050289
v -0.012680 0.132698 -0.050289
v -0.020816 0.125579 -0.050289
v -0.002351 0.135893 -0.050289
v 0.008384 0.134611 -0.050289
v -0.025353 0.115765 -0.050289
v -0.003084 0.084184 -0.050289
v 0.007684 0.085161 -0.050289
v 0.017122 0.090434 -0.050289
v 0.023600 0.099090 -0.050289
v 0.012593 0.115363 -0.050289
v 0.013688 0.109826 -0.050289
v 0.009341 0.119975 -0.050289
v -0.006834 0.098362 -0.050289
v -0.010975 0.102197 -0.050289
v -0.013197 0.107385 -0.050289
v -0.010749 0.118151 -0.050289
v -0.006502 0.121867 -0.050289
v -0.001110 0.123535 -0.050289
v 0.004494 0.122866 -0.050289
v -0.013117 0.113028 -0.050289
v -0.001492 0.096542 -0.050289
v 0.004128 0.097052 -0.050289
v 0.009055 0.099805 -0.050289
v 0.012437 0.104323 -0.050289
v 0.012593 0.115363 -0.039315
v 0.013688 0.109826 -0.039315
v 0.009341 0.119975 -0.039315
v -0.006834 0.098362 -0.039315
v -0.010975 0.102197 -0.039315
v -0.013197 0.107385 -0.039315
v -0.010749 0.118151 -0.039315
v -0.006502 0.121867 -0.039315
v -0.001110 0.123535 -0.039315
v 0.004494 0.122866 -0.039315
v -0.013117 0.113028 -0.039315
v -0.001492 0.096542 -0.039315
v 0.004128 0.097052 -0.039315
v 0.009055 0.099805 -0.039315
v 0.012437 0.104323 -0.039315
vt 0.114826 0.565839
vt 0.127721 0.540856
vt 0.062750 0.536173
vt 0.081087 0.484971
vt 0.571545 0.666492
vt 0.617087 0.623078
vt 0.409514 0.610240
vt 0.408838 0.641620
vt 0.259152 0.571341
vt 0.243936 0.594641
vt 0.016172 0.513154
vt 0.018026 0.509952
vt 0.004937 0.499193
vt 0.017857 0.474767
vt 0.566885 0.697387
vt 0.652287 0.707690
vt 0.656391 0.680878
vt 0.652033 0.632792
vt 0.610538 0.571195
vt 0.673521 0.595685
vt 0.668085 0.781385
vt 0.646014 0.782222
vt 0.654701 0.793290
vt 0.640495 0.742177
vt 0.626352 0.764046
vt 0.612103 0.750937
vt 0.298215 0.619949
vt 0.290459 0.645669
vt 0.234437 0.620807
vt 0.401731 0.671313
vt 0.338526 0.650671
vt 0.346694 0.623070
vt 0.350654 0.574028
vt 0.409590 0.553195
vt 0.336145 0.674128
vt 0.337782 0.722953
vt 0.393813 0.698006
vt 0.381462 0.744428
vt 0.450186 0.714163
vt 0.421690 0.704587
vt 0.435008 0.768518
vt 0.409004 0.752257
vt 0.399981 0.780375
vt 0.492496 0.789401
vt 0.487889 0.814411
vt 0.209014 0.610166
vt 0.121541 0.569254
vt 0.699678 0.714949
vt 0.698975 0.687353
vt 0.428798 0.676502
vt 0.512563 0.746169
vt 0.534393 0.731216
vt 0.497340 0.767903
vt 0.560173 0.727200
vt 0.585240 0.733448
vt 0.375157 0.771839
vt 0.682336 0.946170
vt 0.682432 0.949932
vt 0.696783 0.945804
vt 0.697630 0.979287
vt 0.670720 0.958162
vt 0.671271 0.979954
vt 0.644912 0.980621
vt 0.644534 0.965668
vt 0.435233 0.945783
vt 0.434010 0.979254
vt 0.453236 0.946441
vt 0.465402 0.969274
vt 0.460352 0.980410
vt 0.154573 0.023672
vt 0.156074 0.043504
vt 0.163742 0.021993
vt 0.016910 0.039566
vt 0.038562 0.065027
vt 0.011744 0.021991
vt 0.078420 0.025472
vt 0.133016 0.067699
vt 0.102109 0.080425
vt 0.068700 0.079479
vt 0.486770 0.971281
vt 0.486718 0.980557
vt 0.565819 0.980995
vt 0.565902 0.966038
vt 0.539452 0.980849
vt 0.539523 0.968108
vt 0.592186 0.981142
vt 0.592269 0.966184
vt 0.624849 0.966166
vt 0.618553 0.981288
vt 0.513085 0.980703
vt 0.513137 0.971427
vt 0.407660 0.978292
vt 0.408883 0.944820
vt 0.381310 0.977329
vt 0.382533 0.943858
vt 0.750348 0.977953
vt 0.776707 0.977286
vt 0.749501 0.944470
vt 0.775860 0.943804
vt 0.723989 0.978620
vt 0.723142 0.945137
vt 0.919519 0.829006
vt 0.910542 0.865996
vt 0.926253 0.873584
vt 0.949616 0.843541
vt 0.886112 0.827969
vt 0.893103 0.865455
vt 0.930776 0.981480
vt 0.916418 0.945589
vt 0.899248 0.948686
vt 0.897883 0.987412
vt 0.882302 0.944530
vt 0.865421 0.979452
vt 0.823198 0.929527
vt 0.860262 0.918469
vt 0.858977 0.901069
vt 0.820737 0.896194
vt 0.864881 0.884651
vt 0.832047 0.864743
vt 0.855171 0.840610
vt 0.876952 0.872054
vt 0.839004 0.958977
vt 0.868512 0.933842
vt 0.958412 0.962683
vt 0.930844 0.935777
vt 0.976014 0.934270
vt 0.940032 0.920945
vt 0.980537 0.901154
vt 0.942394 0.903658
vt 0.971200 0.869061
vt 0.937520 0.886906
vt 0.058199 0.027224
vt 0.058199 0.027224
vt 0.058199 0.027224
vt 0.058199 0.027224
vt 0.058199 0.027224
vt 0.058199 0.027224
vt 0.058199 0.027224
vt 0.058199 0.027224
vt 0.058199 0.027224
vt 0.058199 0.027224
vt 0.058199 0.027224
vt 0.058199 0.027224
vt 0.058199 0.027224
vt 0.058199 0.027224
vt 0.058199 0.027224
vt 0.058199 0.027224
vt 0.058199 0.027224
vt 0.058199 0.027224
vt 0.058199 0.027224
vt 0.058199 0.027224
vt 0.058199 0.027224
vt 0.058199 0.027224
vt 0.058199 0.027224
vt 0.058199 0.027224
vt 0.058199 0.027224
vt 0.058199 0.027224
vt 0.058199 0.027224
vt 0.058199 0.027224
vt 0.058199 0.027224
vt 0.058199 0.027224
vt 0.058199 0.027224
vt 0.058199 0.027224
vn 0.454234 -0.890883 0.000000
vn 0.468623 -0.883398 -0.000000
vn 0.454238 -0.890881 0.000000
vn 0.468623 -0.883398 -0.000000
vn 0.507555 -0.711862 -0.485428
vn 0.436263 -0.899819 -0.000000
vn -0.024289 0.518170 -0.854933
vn 0.108187 0.303062 -0.946810
vn -0.260416 0.189039 -0.946809
vn -0.272536 0.441378 -0.854932
vn 0.222535 -0.719396 -0.657987
vn 0.000942 -0.783842 -0.620960
vn 0.507555 -0.711862 -0.485428
vn 0.222535 -0.719396 -0.657987
vn 0.040131 -0.951148 -0.306115
vn 0.000942 -0.783842 -0.620960
vn 0.567021 -0.823703 -0.000000
vn 0.567021 -0.823703 -0.000000
vn 0.567021 -0.823703 -0.000000
vn 0.567021 -0.823703 -0.000000
vn 0.571380 -0.820497 -0.017606
vn 0.567021 -0.823703 -0.000000
vn 0.507555 -0.711862 -0.485428
vn 0.571380 -0.820497 -0.017606
vn 0.567021 -0.823703 -0.000000
vn 0.436263 -0.899819 -0.000000
vn -0.031663 0.935723 0.351312
vn 0.441576 0.744072 0.501365
vn 0.255727 0.966749 -0.000000
vn -0.023135 0.999732 0.000000
vn 0.108187 0.303062 -0.946810
vn 0.321649 0.255024 -0.911869
vn 0.174245 0.053900 -0.983226
vn 0.321649 0.255024 -0.911869
vn 0.369660 0.114349 -0.922104
vn 0.174245 0.053900 -0.983226
vn 0.566142 0.175128 0.805489
vn 0.566142 0.175128 0.805489
vn 0.566143 0.175128 0.805489
vn 0.566142 0.175128 0.805489
vn 0.441576 0.744072 0.501365
vn 0.566142 0.175128 0.805489
vn 0.441576 0.744072 0.501365
vn 0.566142 0.175128 0.805489
vn 0.566142 0.175128 0.805489
vn 0.441576 0.744072 0.501365
vn 0.341916 0.630181 0.697112
vn 0.566142 0.175128 0.805489
vn -0.249753 -0.959565 -0.129841
vn 0.040131 -0.951148 -0.306115
vn -0.255727 -0.966749 0.000000
vn 0.040131 -0.951148 -0.306115
vn 0.023135 -0.999732 -0.000000
vn -0.255727 -0.966749 0.000000
vn -0.545397 0.838178 0.000000
vn -0.545394 0.838180 -0.000000
vn -0.756928 0.653499 0.000000
vn -0.545394 0.838180 -0.000000
vn -0.756928 0.653499 0.000000
vn -0.756928 0.653499 0.000000
vn -0.369660 -0.114349 -0.922104
vn -0.409466 0.028864 -0.911869
vn -0.174241 -0.053899 -0.983227
vn -0.409466 0.028864 -0.911869
vn -0.260416 0.189039 -0.946809
vn -0.174241 -0.053899 -0.983227
vn -0.409466 0.028866 0.911869
vn -0.321649 -0.255021 0.911869
vn -0.260413 0.189040 0.946810
vn -0.321649 -0.255021 0.911869
vn -0.108187 -0.303062 0.946810
vn -0.260413 0.189040 0.946810
vn -0.198958 0.294425 0.934735
vn -0.208547 0.210780 0.955029
vn 0.032325 -0.519393 0.853924
vn -0.208547 0.210780 0.955029
vn -0.103606 -0.272580 0.956539
vn 0.032325 -0.519393 0.853924
vn 0.032325 -0.519393 0.853924
vn 0.197978 -0.883587 0.424356
vn 0.259364 -0.838452 0.479300
vn 0.197978 -0.883587 0.424356
vn 0.292677 -0.946145 0.138386
vn 0.259364 -0.838452 0.479300
vn 0.040131 -0.951148 -0.306115
vn 0.197978 -0.883587 0.424356
vn 0.023135 -0.999732 -0.000000
vn 0.040131 -0.951148 -0.306115
vn 0.468623 -0.883398 -0.000000
vn 0.197978 -0.883587 0.424356
vn 0.468623 -0.883398 -0.000000
vn 0.292677 -0.946145 0.138386
vn 0.197978 -0.883587 0.424356
vn 0.468623 -0.883398 -0.000000
vn 0.454234 -0.890883 0.000000
vn 0.292677 -0.946145 0.138386
vn 0.955337 0.295520 0.000000
vn 0.955337 0.295520 0.000000
vn 0.955337 0.295520 0.000000
vn 0.955337 0.295520 0.000000
vn 0.955337 0.295520 0.000000
vn 0.955337 0.295520 0.000000
vn -0.545394 0.838180 -0.000000
vn -0.295520 0.955337 0.000000
vn -0.031663 0.935723 0.351312
vn -0.023135 0.999732 0.000000
vn -0.545394 0.838180 -0.000000
vn -0.545397 0.838178 0.000000
vn -0.295520 0.955337 0.000000
vn -0.955337 -0.295520 -0.000000
vn -0.955337 -0.295520 -0.000000
vn -0.955337 -0.295520 -0.000000
vn -0.955337 -0.295520 -0.000000
vn -0.955337 -0.295520 -0.000000
vn -0.955337 -0.295520 -0.000000
vn -0.260416 0.189039 -0.946809
vn 0.108187 0.303062 -0.946810
vn 0.174245 0.053900 -0.983226
vn -0.174241 -0.053899 -0.983227
vn -0.198958 0.294425 0.934735
vn 0.000000 -0.000000 1.000000
vn -0.154612 0.499819 0.852219
vn -0.198958 0.294425 0.934735
vn 0.032325 -0.519393 0.853924
vn 0.000000 -0.000000 1.000000
vn 0.032325 -0.519393 0.853924
vn -0.000000 0.000000 1.000000
vn 0.000000 -0.000000 1.000000
vn 0.032325 -0.519393 0.853924
vn 0.000000 -0.000000 1.000000
vn -0.000000 0.000000 1.000000
vn -0.154612 0.499819 0.852219
vn -0.218148 0.503692 0.835886
vn -0.198958 0.294425 0.934735
vn -0.154612 0.499819 0.852219
vn -0.199559 0.645119 0.737562
vn -0.218148 0.503692 0.835886
vn -0.199559 0.645119 0.737562
vn -0.031663 0.935723 0.351312
vn -0.218148 0.503692 0.835886
vn -0.199559 0.645119 0.737562
vn -0.199558 0.645119 0.737562
vn -0.031663 0.935723 0.351312
vn -0.199558 0.645119 0.737562
vn 0.101920 0.737425 0.667695
vn -0.031663 0.935723 0.351312
vn -0.208547 0.210780 0.955029
vn -0.260413 0.189040 0.946810
vn -0.103606 -0.272580 0.956539
vn -0.260413 0.189040 0.946810
vn -0.108187 -0.303062 0.946810
vn -0.103606 -0.272580 0.956539
vn -0.108187 -0.303062 0.946810
vn 0.024292 -0.518168 0.854934
vn -0.103606 -0.272580 0.956539
vn 0.024292 -0.518168 0.854934
vn 0.197978 -0.883587 0.424356
vn -0.103606 -0.272580 0.956539
vn -0.272536 0.441378 0.854933
vn -0.260413 0.189040 0.946810
vn -0.218148 0.503692 0.835886
vn -0.260413 0.189040 0.946810
vn -0.208547 0.210780 0.955029
vn -0.218148 0.503692 0.835886
vn -0.208547 0.210780 0.955029
vn -0.198958 0.294425 0.934735
vn -0.218148 0.503692 0.835886
vn -0.103606 -0.272580 0.956539
vn 0.197978 -0.883587 0.424356
vn 0.032325 -0.519393 0.853924
vn -0.272536 0.441378 0.854933
vn -0.409466 0.028866 0.911869
vn -0.260413 0.189040 0.946810
vn -0.321649 -0.255021 0.911869
vn 0.024292 -0.518168 0.854934
vn -0.108187 -0.303062 0.946810
vn 0.040131 -0.951148 -0.306115
vn -0.249753 -0.959565 -0.129841
vn 0.000942 -0.783842 -0.620960
vn -0.409466 0.028864 -0.911869
vn -0.272536 0.441378 -0.854932
vn -0.260416 0.189039 -0.946809
vn 0.441576 0.744072 0.501365
vn -0.031663 0.935723 0.351312
vn 0.341916 0.630181 0.697112
vn 0.321649 0.255024 -0.911869
vn 0.108187 0.303062 -0.946810
vn -0.024289 0.518170 -0.854933
vn 0.980993 0.194041 0.000000
vn 0.980993 0.194041 0.000000
vn 0.999900 -0.014168 -0.000000
vn 0.980993 0.194041 0.000000
vn 0.999900 -0.014159 0.000000
vn 0.999900 -0.014168 -0.000000
vn 0.980993 0.194041 0.000000
vn 0.922923 0.384986 0.000000
vn 0.999900 -0.014159 0.000000
vn 0.922923 0.384986 0.000000
vn 0.919213 0.393761 0.000000
vn 0.999900 -0.014159 0.000000
vn 0.919213 0.393761 0.000000
vn 0.922923 0.384986 0.000000
vn 0.679589 0.733593 0.000000
vn 0.922923 0.384986 0.000000
vn 0.710950 0.703243 0.000000
vn 0.679589 0.733593 0.000000
vn -0.512212 -0.858859 -0.000000
vn -0.512208 -0.858862 0.000000
vn -0.679586 -0.733596 0.000000
vn -0.512208 -0.858862 0.000000
vn -0.732779 -0.680467 0.000000
vn -0.679586 -0.733596 0.000000
vn -0.512208 -0.858862 0.000000
vn -0.817257 -0.576274 -0.000000
vn -0.732779 -0.680467 0.000000
vn 0.000000 -0.000000 -1.000000
vn 0.000000 -0.000000 -1.000000
vn -0.000000 0.000000 -1.000000
vn -0.000000 0.000000 -1.000000
vn 0.000000 -0.000000 -1.000000
vn 0.000000 -0.000000 -1.000000
vn 0.000000 -0.000000 -1.000000
vn 0.000000 -0.000000 -1.000000
vn 0.000000 -0.000000 -1.000000
vn 0.000000 -0.000000 -1.000000
vn 0.000000 -0.000000 -1.000000
vn 0.000000 -0.000000 -1.000000
vn 0.000000 -0.000000 -1.000000
vn 0.000000 -0.000000 -1.000000
vn -0.000000 0.000000 -1.000000
vn 0.000000 -0.000000 -1.000000
vn -0.000000 0.000000 -1.000000
vn -0.000000 0.000000 -1.000000
vn 0.000000 -0.000000 -1.000000
vn -0.000000 0.000000 -1.000000
vn -0.000000 0.000000 -1.000000
vn 0.000000 -0.000000 -1.000000
vn 0.000000 -0.000000 -1.000000
vn -0.000000 0.000000 -1.000000
vn -0.980992 -0.194047 -0.000000
vn -0.919213 -0.393761 -0.000000
vn -0.980994 -0.194037 -0.000000
vn -0.919213 -0.393761 -0.000000
vn -0.817257 -0.576274 -0.000000
vn -0.980994 -0.194037 -0.000000
vn -0.487683 0.873021 0.000000
vn -0.466908 0.884306 0.000000
vn -0.800611 0.599185 0.000000
vn -0.466908 0.884306 0.000000
vn -0.762032 0.647539 0.000000
vn -0.800611 0.599185 0.000000
vn -0.090436 0.995902 -0.000000
vn -0.113966 0.993485 0.000000
vn -0.487683 0.873021 0.000000
vn -0.113966 0.993485 0.000000
vn -0.466908 0.884306 0.000000
vn -0.487683 0.873021 0.000000
vn 0.710950 0.703243 0.000000
vn 0.512212 0.858859 0.000000
vn 0.679589 0.733593 0.000000
vn 0.512212 0.858859 0.000000
vn 0.322446 0.946588 0.000000
vn 0.679589 0.733593 0.000000
vn -0.090436 0.995902 -0.000000
vn 0.322446 0.946588 0.000000
vn -0.113966 0.993485 0.000000
vn 0.322446 0.946588 0.000000
vn 0.118600 0.992942 0.000000
vn -0.113966 0.993485 0.000000
vn -0.975105 0.221746 -0.000000
vn -0.800611 0.599185 0.000000
vn -0.975107 0.221735 0.000000
vn -0.800611 0.599185 0.000000
vn -0.907695 0.419631 0.000000
vn -0.975107 0.221735 0.000000
vn -0.975107 0.221735 0.000000
vn -0.980992 -0.194047 -0.000000
vn -0.975105 0.221746 -0.000000
vn -0.980992 -0.194047 -0.000000
vn -0.980994 -0.194037 -0.000000
vn -0.975105 0.221746 -0.000000
vn -0.118594 -0.992943 0.000000
vn -0.512208 -0.858862 0.000000
vn -0.118605 -0.992941 0.000000
vn -0.512208 -0.858862 0.000000
vn -0.512212 -0.858859 -0.000000
vn -0.118605 -0.992941 0.000000
vn 0.295525 -0.955335 -0.000000
vn -0.118594 -0.992943 0.000000
vn 0.295515 -0.955338 -0.000000
vn -0.118594 -0.992943 0.000000
vn -0.118605 -0.992941 0.000000
vn 0.295515 -0.955338 -0.000000
vn 0.658545 -0.752541 -0.000000
vn 0.295525 -0.955335 -0.000000
vn 0.658537 -0.752548 -0.000000
vn 0.295525 -0.955335 -0.000000
vn 0.295515 -0.955338 -0.000000
vn 0.658537 -0.752548 -0.000000
vn 0.907697 -0.419626 0.000000
vn 0.658545 -0.752541 -0.000000
vn 0.907693 -0.419636 -0.000000
vn 0.658545 -0.752541 -0.000000
vn 0.658537 -0.752548 -0.000000
vn 0.907693 -0.419636 -0.000000
vn 0.999900 -0.014159 0.000000
vn 0.907697 -0.419626 0.000000
vn 0.999900 -0.014168 -0.000000
vn 0.907697 -0.419626 0.000000
vn 0.907693 -0.419636 -0.000000
vn 0.999900 -0.014168 -0.000000
vn 0.000000 0.000000 1.000000
vn 0.000000 0.000000 1.000000
vn 0.000000 0.000000 1.000000
vn 0.000000 0.000000 1.000000
vn 0.000001 -0.000001 1.000000
vn 0.000001 -0.000001 1.000000
vn 0.000001 -0.000001 1.000000
vn 0.000001 -0.000001 1.000000
vn -0.000000 0.000000 1.000000
vn -0.000000 0.000000 1.000000
vn -0.000000 0.000000 1.000000
vn -0.000000 0.000000 1.000000
vn 0.000000 -0.000000 1.000000
vn 0.000000 -0.000000 1.000000
vn 0.000000 -0.000000 1.000000
vn 0.000000 -0.000000 1.000000
vn 0.000000 -0.000000 1.000000
vn 0.000000 -0.000000 1.000000
vn 0.000000 -0.000000 1.000000
vn 0.000000 -0.000000 1.000000
vn 0.000000 -0.000000 1.000000
vn 0.000000 -0.000000 1.000000
vn 0.000000 -0.000000 1.000000
vn 0.000000 -0.000000 1.000000
vn -0.000000 -0.000000 1.000000
vn -0.000000 -0.000000 1.000000
vn -0.000000 -0.000000 1.000000
vn -0.000000 -0.000000 1.000000
vn -0.000000 -0.000000 1.000000
vn -0.000000 -0.000000 1.000000
vn -0.000000 -0.000000 1.000000
vn -0.000000 -0.000000 1.000000
vn -0.000000 -0.000001 1.000000
vn -0.000000 -0.000001 1.000000
vn -0.000000 -0.000001 1.000000
vn -0.000000 -0.000001 1.000000
vn -0.000000 -0.000000 1.000000
vn -0.000000 -0.000000 1.000000
vn -0.000000 -0.000000 1.000000
vn -0.000000 -0.000000 1.000000
vn -0.000000 -0.000000 1.000000
vn -0.000000 -0.000000 1.000000
vn -0.000000 -0.000000 1.000000
vn -0.000000 -0.000000 1.000000
vn -0.000000 -0.000000 1.000000
vn -0.000000 -0.000000 1.000000
vn -0.000000 -0.000000 1.000000
vn -0.000000 -0.000000 1.000000
vn 0.000000 -0.000000 1.000000
vn 0.000000 -0.000000 1.000000
vn 0.000000 -0.000000 1.000000
vn 0.000000 -0.000000 1.000000
vn -0.000000 -0.000000 1.000000
vn -0.000000 -0.000000 1.000000
vn -0.000000 -0.000000 1.000000
vn -0.000000 -0.000000 1.000000
vn -0.000000 -0.000000 1.000000
vn -0.000000 -0.000000 1.000000
vn -0.000000 -0.000000 1.000000
vn -0.000000 -0.000000 1.000000
vn 0.919213 0.393760 -0.000000
vn 0.919213 0.393760 -0.000000
vn 0.999900 -0.014160 -0.000000
vn 0.999900 -0.014160 -0.000000
vn 0.679586 0.733596 -0.000000
vn 0.679586 0.733596 -0.000000
vn 0.919213 0.393760 -0.000000
vn 0.919213 0.393760 -0.000000
vn -0.512212 -0.858859 0.000000
vn -0.512212 -0.858859 0.000000
vn -0.817258 -0.576272 0.000000
vn -0.817258 -0.576271 0.000000
vn -0.817258 -0.576271 0.000000
vn -0.817258 -0.576272 0.000000
vn -0.980993 -0.194041 0.000000
vn -0.980993 -0.194041 0.000000
vn -0.800613 0.599181 0.000000
vn -0.800613 0.599181 0.000000
vn -0.487688 0.873018 0.000000
vn -0.487688 0.873018 0.000000
vn -0.487688 0.873018 0.000000
vn -0.487688 0.873018 0.000000
vn -0.090437 0.995902 -0.000000
vn -0.090437 0.995902 -0.000000
vn 0.322452 0.946586 -0.000000
vn 0.322452 0.946586 -0.000000
vn 0.679586 0.733596 -0.000000
vn 0.679586 0.733596 -0.000000
vn -0.090437 0.995902 -0.000000
vn -0.090437 0.995902 -0.000000
vn 0.322452 0.946586 -0.000000
vn 0.322452 0.946586 -0.000000
vn -0.975106 0.221740 0.000000
vn -0.975106 0.221740 0.000000
vn -0.800613 0.599181 0.000000
vn -0.800613 0.599181 0.000000
vn -0.980993 -0.194041 0.000000
vn -0.980993 -0.194041 0.000000
vn -0.975106 0.221740 0.000000
vn -0.975106 0.221740 0.000000
vn -0.118599 -0.992942 -0.000000
vn -0.118599 -0.992942 -0.000000
vn -0.512212 -0.858859 0.000000
vn -0.512212 -0.858859 0.000000
vn 0.295520 -0.955337 -0.000000
vn 0.295520 -0.955337 -0.000000
vn -0.118599 -0.992942 -0.000000
vn -0.118599 -0.992942 -0.000000
vn 0.658541 -0.752545 0.000000
vn 0.658541 -0.752545 0.000000
vn 0.295520 -0.955337 -0.000000
vn 0.295520 -0.955337 -0.000000
vn 0.907695 -0.419630 0.000000
vn 0.907695 -0.419630 0.000000
vn 0.658541 -0.752545 0.000000
vn 0.658541 -0.752545 0.000000
vn 0.999900 -0.014160 -0.000000
vn 0.999900 -0.014160 -0.000000
vn 0.907695 -0.419630 0.000000
vn 0.907695 -0.419630 0.000000
f 1/1/1 2/2/2 3/3/3
f 2/2/4 4/4/5 3/3/6
f 5/5/7 6/6/8 7/7/9
f 5/5/7 7/7/9 8/8/10
f 2/2/11 9/9/12 4/4/13
f 2/2/14 10/10/15 9/9/16
f 11/11/17 12/12/18 13/13/19
f 12/12/20 14/14/21 13/13/22
f 4/4/23 14/14/24 12/12/25
f 4/4/23 12/12/25 3/3/26
f 15/15/27 16/16/28 17/17/29
f 15/15/27 17/17/29 5/5/30
f 6/6/31 17/18/32 4/19/33
f 17/18/34 14/20/35 4/19/36
f 13/21/37 18/22/38 11/23/39
f 13/21/40 16/24/41 18/22/42
f 16/24/43 19/25/44 18/22/45
f 16/24/46 20/26/47 19/25/48
f 21/27/49 10/10/50 22/28/51
f 10/10/52 23/29/53 22/28/54
f 24/30/55 8/8/56 25/31/57
f 8/8/58 26/32/59 25/31/60
f 21/33/61 26/32/62 9/34/63
f 26/32/64 7/7/65 9/34/66
f 25/35/67 22/36/68 27/37/69
f 22/36/70 28/38/71 27/37/72
f 29/39/73 30/40/74 31/41/75
f 30/40/76 32/42/77 31/41/78
f 31/41/79 33/43/80 34/44/81
f 33/43/82 35/45/83 34/44/84
f 10/10/85 33/46/86 23/29/87
f 10/10/88 2/2/89 33/46/90
f 2/2/91 35/47/92 33/46/93
f 2/2/94 1/1/95 35/47/96
f 16/16/97 13/48/98 17/17/99
f 13/48/100 14/49/101 17/17/102
f 8/8/103 36/50/104 15/15/105
f 8/8/103 15/15/105 5/5/106
f 8/8/107 24/30/108 36/50/109
f 26/32/110 21/27/111 25/31/112
f 21/27/113 22/28/114 25/31/115
f 7/7/116 6/6/117 4/19/118
f 7/7/116 4/19/118 9/34/119
f 29/39/120 37/51/121 38/52/122
f 29/39/123 31/41/124 37/51/125
f 31/41/126 39/53/127 37/51/128
f 31/41/129 34/44/130 39/53/131
f 38/52/132 36/50/133 29/39/134
f 38/52/135 40/54/136 36/50/137
f 40/54/138 15/15/139 36/50/140
f 40/54/141 41/55/142 15/15/143
f 41/55/144 20/26/145 15/15/146
f 30/40/147 27/37/148 32/42/149
f 27/37/150 28/38/151 32/42/152
f 28/38/153 23/56/154 32/42/155
f 23/56/156 33/43/157 32/42/158
f 24/30/159 27/37/160 36/50/161
f 27/37/162 30/40/163 36/50/164
f 30/40/165 29/39/166 36/50/167
f 32/42/168 33/43/169 31/41/170
f 24/30/171 25/35/172 27/37/173
f 22/36/174 23/56/175 28/38/176
f 10/10/177 21/27/178 9/9/179
f 26/32/180 8/8/181 7/7/182
f 16/24/183 15/15/184 20/26/185
f 17/18/186 6/6/187 5/5/188
f 12/57/189 11/58/190 42/59/191
f 11/58/192 43/60/193 42/59/194
f 11/58/195 18/61/196 43/60/197
f 18/61/198 44/62/199 43/60/200
f 44/62/201 18/61/202 45/63/203
f 18/61/204 19/64/205 45/63/206
f 46/65/207 47/66/208 35/67/209
f 47/66/210 34/68/211 35/67/212
f 47/66/213 48/69/214 34/68/215
f 1/70/216 46/71/217 35/72/218
f 42/73/219 49/74/220 12/75/221
f 49/74/222 3/76/223 12/75/224
f 1/70/225 3/76/226 46/71/227
f 46/71/228 3/76/229 50/77/230
f 3/76/231 51/78/232 50/77/233
f 3/76/234 52/79/235 51/78/236
f 3/76/237 49/74/238 52/79/239
f 39/80/240 34/68/241 53/81/242
f 34/68/243 48/69/244 53/81/245
f 54/82/246 40/83/247 55/84/248
f 40/83/249 38/85/250 55/84/251
f 56/86/252 41/87/253 54/82/254
f 41/87/255 40/83/256 54/82/257
f 19/64/258 20/88/259 45/63/260
f 20/88/261 57/89/262 45/63/263
f 56/86/264 57/89/265 41/87/266
f 57/89/267 20/88/268 41/87/269
f 58/90/270 55/84/271 37/91/272
f 55/84/273 38/85/274 37/91/275
f 37/91/276 39/80/277 58/90/278
f 39/80/279 53/81/280 58/90/281
f 59/92/282 47/66/283 50/93/284
f 47/66/285 46/65/286 50/93/287
f 60/94/288 59/92/289 51/95/290
f 59/92/291 50/93/292 51/95/293
f 61/96/294 60/97/295 52/98/296
f 60/97/297 51/99/298 52/98/299
f 62/100/300 61/96/301 49/101/302
f 61/96/303 52/98/304 49/101/305
f 43/60/306 62/100/307 42/59/308
f 62/100/309 49/101/310 42/59/311
f 44/102/312 63/103/313 64/104/314
f 44/102/312 64/104/314 43/105/315
f 45/106/316 65/107/317 63/103/318
f 45/106/316 63/103/318 44/102/319
f 47/108/320 66/109/321 67/110/322
f 47/108/320 67/110/322 48/111/323
f 48/111/324 67/110/325 68/112/326
f 48/111/324 68/112/326 53/113/327
f 55/114/328 69/115/329 70/116/330
f 55/114/328 70/116/330 54/117/331
f 54/117/332 70/116/333 71/118/334
f 54/117/332 71/118/334 56/119/335
f 57/120/336 72/121/337 65/107/338
f 57/120/336 65/107/338 45/106/339
f 56/119/340 71/118/341 72/121/342
f 56/119/340 72/121/342 57/120/343
f 58/122/344 73/123/345 69/115/346
f 58/122/344 69/115/346 55/114/347
f 53/113/348 68/112/349 73/123/350
f 53/113/348 73/123/350 58/122/351
f 59/124/352 74/125/353 66/109/354
f 59/124/352 66/109/354 47/108/355
f 60/126/356 75/127/357 74/125/358
f 60/126/356 74/125/358 59/124/359
f 61/128/360 76/129/361 75/127/362
f 61/128/360 75/127/362 60/126/363
f 62/130/364 77/131/365 76/129/366
f 62/130/364 76/129/366 61/128/367
f 43/105/368 64/104/369 77/131/370
f 43/105/368 77/131/370 62/130/371
f 63/132/372 78/133/373 79/134/374
f 63/132/372 79/134/374 64/135/375
f 65/136/376 80/137/377 78/133/378
f 65/136/376 78/133/378 63/132/379
f 66/138/380 81/139/381 82/140/382
f 66/138/380 82/140/382 67/141/383
f 67/141/384 82/140/385 83/142/386
f 67/141/384 83/142/386 68/143/387
f 69/144/388 84/145/389 85/146/390
f 69/144/388 85/146/390 70/147/391
f 70/147/392 85/146/393 86/148/394
f 70/147/392 86/148/394 71/149/395
f 72/150/396 87/151/397 80/137/398
f 72/150/396 80/137/398 65/136/399
f 71/149/400 86/148/401 87/151/402
f 71/149/400 87/151/402 72/150/403
f 73/152/404 88/153/405 84/145/406
f 73/152/404 84/145/406 69/144/407
f 68/143/408 83/142/409 88/153/410
f 68/143/408 88/153/410 73/152/411
f 74/154/412 89/155/413 81/139/414
f 74/154/412 81/139/414 66/138/415
f 75/156/416 90/157/417 89/158/418
f 75/156/416 89/158/418 74/159/419
f 76/160/420 91/161/421 90/157/422
f 76/160/420 90/157/422 75/156/423
f 77/162/424 92/163/425 91/161/426
f 77/162/424 91/161/426 76/160/427
f 64/135/428 79/134/429 92/163/430
f 64/135/428 92/163/430 77/162/431
