# mat_beni : 352 faces from |P0_WorldSim_Robot|base_link|head_intermediate|head|VIS_head_00_HEAD_VIS
# source world space, unit scale 0.01
v -0.011599 0.169070 -0.042105
v -0.035969 0.162628 -0.042105
v -0.011599 0.169070 -0.047642
v -0.035969 0.162628 -0.047642
v -0.047726 0.234029 -0.047642
v -0.047726 0.234029 -0.042105
v -0.032501 0.234029 -0.042105
v -0.032501 0.234029 -0.047642
v -0.036792 0.229600 -0.052071
v -0.020227 0.173358 -0.052071
v -0.030433 0.170479 -0.052071
v -0.040945 0.229600 -0.052071
v -0.011599 0.169070 0.042074
v -0.011599 0.169070 0.047611
v -0.035969 0.162628 0.042074
v -0.035969 0.162628 0.047611
v -0.047726 0.234029 0.047611
v -0.047726 0.234029 0.042074
v -0.032501 0.234029 0.042074
v -0.032501 0.234029 0.047611
v -0.036792 0.229600 0.052040
v -0.040945 0.229600 0.052040
v -0.030433 0.170479 0.052040
v -0.020227 0.173358 0.052040
v -0.003043 0.158200 0.030011
v 0.051724 0.158200 0.030011
v -0.003043 0.158200 0.043065
v 0.051724 0.158200 0.043065
v -0.003043 0.164727 0.054371
v 0.051724 0.164727 0.054371
v -0.003043 0.176032 0.060898
v 0.051724 0.176032 0.060898
v -0.003043 0.189086 0.060898
v 0.051724 0.189086 0.060898
v -0.003043 0.200391 0.054371
v 0.051724 0.200391 0.054371
v -0.003043 0.206918 0.043066
v 0.051724 0.206918 0.043066
v -0.003043 0.206918 0.030012
v 0.051724 0.206918 0.030012
v 0.051724 0.206918 -0.030012
v -0.003043 0.206918 -0.030012
v -0.003043 0.206918 -0.043066
v 0.051724 0.206918 -0.043066
v -0.003043 0.200391 -0.054371
v 0.051724 0.200391 -0.054371
v -0.003043 0.189086 -0.060898
v 0.051724 0.189086 -0.060898
v -0.003043 0.176032 -0.060898
v 0.051724 0.176032 -0.060898
v -0.003043 0.164727 -0.054371
v 0.051724 0.164727 -0.054371
v -0.003043 0.158200 -0.043065
v 0.051724 0.158200 -0.043065
v -0.003043 0.158200 -0.030011
v 0.051724 0.158200 -0.030011
v -0.002329 0.163729 -0.019905
v 0.005509 0.163567 -0.019905
v 0.015022 0.163891 -0.014570
v 0.051724 0.163891 -0.019487
v 0.005509 0.163567 0.019905
v 0.015022 0.163891 0.014570
v 0.051724 0.163891 0.019487
v 0.020515 0.163891 0.005333
v 0.020515 0.163891 -0.005333
v -0.002329 0.163729 0.019905
v -0.003043 0.204703 -0.031002
v -0.036453 0.204703 -0.031002
v -0.036453 0.204703 0.031002
v -0.003043 0.204703 0.031002
v -0.003043 0.195845 -0.042074
v -0.034862 0.195845 -0.042074
v -0.058446 0.196399 -0.022501
v -0.058446 0.196399 0.022501
v -0.034862 0.195845 0.042074
v -0.003043 0.195845 0.042074
v -0.034862 0.168355 0.042074
v -0.003043 0.168355 0.042074
v -0.003043 0.163891 -0.030735
v -0.037630 0.163891 -0.030735
v -0.003043 0.168355 -0.042074
v -0.034862 0.168355 -0.042074
v -0.045394 0.168725 -0.022501
v -0.037630 0.163891 0.030735
v -0.045394 0.168725 0.022501
v -0.003043 0.163891 0.030735
v -0.005477 0.163891 -0.019905
v -0.014990 0.163891 -0.014570
v -0.020483 0.163891 -0.005333
v -0.020483 0.163891 0.005333
v -0.005477 0.163891 0.019905
v -0.014990 0.163891 0.014570
v 0.005509 0.148676 -0.019905
v -0.002329 0.148676 -0.019905
v 0.015022 0.148676 -0.014572
v 0.020515 0.148676 -0.005332
v 0.020515 0.148676 0.005334
v 0.015022 0.148676 0.014571
v 0.005509 0.148676 0.019904
v -0.002329 0.148676 0.019904
v -0.005477 0.148676 0.019904
v -0.014990 0.148676 0.014571
v -0.020483 0.148676 0.005334
v -0.020483 0.148676 -0.005332
v -0.014990 0.148676 -0.014572
v -0.005477 0.148676 -0.019905
v 0.051724 0.200777 -0.042665
v 0.046354 0.200777 -0.042665
v 0.046354 0.198069 -0.047979
v 0.051724 0.198069 -0.047979
v 0.046354 0.193851 -0.052198
v 0.051724 0.193851 -0.052198
v 0.046354 0.188536 -0.054907
v 0.051724 0.188536 -0.054907
v 0.046354 0.182643 -0.055840
v 0.051724 0.182643 -0.055840
v 0.046354 0.176751 -0.054907
v 0.051724 0.176751 -0.054907
v 0.046354 0.171436 -0.052198
v 0.051724 0.171436 -0.052198
v 0.046354 0.167218 -0.047979
v 0.051724 0.167218 -0.047979
v 0.046354 0.164509 -0.042665
v 0.051724 0.164509 -0.042665
v 0.046354 0.163576 -0.036774
v 0.051724 0.163576 -0.036774
v 0.046354 0.164509 -0.030880
v 0.051724 0.164509 -0.030880
v 0.046354 0.167218 -0.025566
v 0.051724 0.167218 -0.025566
v 0.046354 0.171436 -0.021347
v 0.051724 0.171436 -0.021347
v 0.046354 0.176751 -0.018639
v 0.051724 0.176751 -0.018639
v 0.046354 0.182643 -0.017706
v 0.051724 0.182643 -0.017706
v 0.046354 0.188536 -0.018639
v 0.051724 0.188536 -0.018639
v 0.046354 0.193851 -0.021347
v 0.051724 0.193851 -0.021347
v 0.046354 0.198069 -0.025566
v 0.051724 0.198069 -0.025566
v 0.046354 0.200778 -0.030880
v 0.051724 0.200778 -0.030880
v 0.046354 0.201711 -0.036774
v 0.051724 0.201711 -0.036774
v 0.046354 0.182643 -0.036774
v 0.051724 0.200778 0.030689
v 0.046354 0.200778 0.030689
v 0.046354 0.198069 0.025373
v 0.051724 0.198069 0.025373
v 0.046354 0.193851 0.021156
v 0.051724 0.193851 0.021156
v 0.046354 0.188536 0.018448
v 0.051724 0.188536 0.018448
v 0.046354 0.182643 0.017513
v 0.051724 0.182643 0.017513
v 0.046354 0.176751 0.018448
v 0.051724 0.176751 0.018448
v 0.046354 0.171436 0.021156
v 0.051724 0.171436 0.021156
v 0.046354 0.167218 0.025373
v 0.051724 0.167218 0.025373
v 0.046354 0.164509 0.030689
v 0.051724 0.164509 0.030689
v 0.046354 0.163576 0.036581
v 0.051724 0.163576 0.036581
v 0.046354 0.164509 0.042473
v 0.051724 0.164509 0.042473
v 0.046354 0.167218 0.047789
v 0.051724 0.167218 0.047789
v 0.046354 0.171436 0.052008
v 0.051724 0.171436 0.052008
v 0.046354 0.176751 0.054716
v 0.051724 0.176751 0.054716
v 0.046354 0.182643 0.055649
v 0.051724 0.182643 0.055649
v 0.046354 0.188536 0.054716
v 0.051724 0.188536 0.054716
v 0.046354 0.193851 0.052008
v 0.051724 0.193851 0.052008
v 0.046354 0.198069 0.047789
v 0.051724 0.198069 0.047789
v 0.046354 0.200777 0.042473
v 0.051724 0.200777 0.042473
v 0.046354 0.201711 0.036581
v 0.051724 0.201711 0.036581
v 0.046354 0.182643 0.036581
vt 0.451374 0.064545
vt 0.451377 0.014701
vt 0.441128 0.064664
vt 0.441117 0.014514
vt 0.440166 0.004305
vt 0.306022 0.026820
vt 0.305090 0.016610
vt 0.826824 0.006978
vt 0.831029 0.053249
vt 0.960204 0.007588
vt 0.955518 0.035257
vt 0.440616 0.074904
vt 0.312321 0.068632
vt 0.312807 0.058391
vt 0.320963 0.046187
vt 0.427641 0.049473
vt 0.428221 0.030039
vt 0.318974 0.039006
vt 0.296088 0.029401
vt 0.302696 0.060133
vt 0.451374 0.064545
vt 0.441128 0.064664
vt 0.451377 0.014701
vt 0.441117 0.014514
vt 0.306022 0.026820
vt 0.440166 0.004305
vt 0.305090 0.016610
vt 0.826824 0.006978
vt 0.960204 0.007588
vt 0.831029 0.053249
vt 0.955518 0.035257
vt 0.440616 0.074904
vt 0.312321 0.068632
vt 0.312807 0.058391
vt 0.320963 0.046187
vt 0.318974 0.039006
vt 0.428221 0.030039
vt 0.427641 0.049473
vt 0.296088 0.029401
vt 0.302696 0.060133
vt 0.030079 0.280949
vt 0.030154 0.179697
vt 0.054228 0.280988
vt 0.054275 0.179737
vt 0.078392 0.281027
vt 0.078383 0.179779
vt 0.102575 0.281065
vt 0.102471 0.179821
vt 0.126789 0.281101
vt 0.126527 0.179865
vt 0.151052 0.281135
vt 0.150534 0.179911
vt 0.175392 0.281165
vt 0.174464 0.179962
vt 0.199802 0.281186
vt 0.199692 0.179801
vt 0.313107 0.180133
vt 0.312628 0.281474
vt 0.337041 0.281549
vt 0.338311 0.180463
vt 0.361389 0.281613
vt 0.362233 0.180463
vt 0.385656 0.281665
vt 0.386235 0.180475
vt 0.409873 0.281709
vt 0.410288 0.180495
vt 0.434058 0.281749
vt 0.434374 0.180519
vt 0.458224 0.281785
vt 0.458481 0.180547
vt 0.482374 0.281820
vt 0.482601 0.180577
vt 0.503687 0.280532
vt 0.503569 0.266039
vt 0.513214 0.248313
vt 0.504713 0.180394
vt 0.220666 0.007745
vt 0.230419 0.025427
vt 0.220852 0.093257
vt 0.247414 0.035718
vt 0.292734 0.093713
vt 0.267111 0.035861
vt 0.284273 0.025845
vt 0.008771 0.279597
vt 0.008932 0.265104
vt 0.008038 0.179659
vt 0.396233 0.544441
vt 0.396242 0.482858
vt 0.510532 0.482876
vt 0.510522 0.544460
vt 0.370096 0.544437
vt 0.370106 0.485787
vt 0.370419 0.477873
vt 0.411919 0.439528
vt 0.494869 0.439541
vt 0.536357 0.477899
vt 0.536658 0.544464
vt 0.536668 0.485814
vt 0.587340 0.485822
vt 0.587331 0.544472
vt 0.296962 0.544426
vt 0.296972 0.480673
vt 0.319424 0.544429
vt 0.319434 0.485779
vt 0.335364 0.441282
vt 0.363162 0.411177
vt 0.341947 0.419208
vt 0.510058 0.366285
vt 0.494878 0.383141
vt 0.411928 0.383128
vt 0.396753 0.366267
vt 0.571423 0.441319
vt 0.543635 0.411206
vt 0.564847 0.419244
vt 0.609793 0.544476
vt 0.609803 0.480724
vt 0.396763 0.302514
vt 0.416725 0.307003
vt 0.416728 0.301194
vt 0.426556 0.324541
vt 0.443581 0.334668
vt 0.463241 0.334671
vt 0.490105 0.301206
vt 0.510068 0.302533
vt 0.490105 0.307015
vt 0.480269 0.324549
vt 0.199447 0.371266
vt 0.175312 0.371237
vt 0.198121 0.360742
vt 0.218187 0.361060
vt 0.336891 0.371618
vt 0.312756 0.371586
vt 0.294041 0.361332
vt 0.314108 0.361065
vt 0.335084 0.352840
vt 0.177166 0.352464
vt 0.154423 0.359144
vt 0.357810 0.359579
vt 0.142381 0.338228
vt 0.177229 0.301637
vt 0.142409 0.314093
vt 0.154500 0.293206
vt 0.197934 0.285276
vt 0.314487 0.285574
vt 0.335151 0.302013
vt 0.357903 0.293641
vt 0.369939 0.314559
vt 0.369906 0.338693
vt 0.921399 0.808680
vt 0.906952 0.808381
vt 0.906953 0.780933
vt 0.921400 0.780934
vt 0.886847 0.808978
vt 0.886850 0.780933
vt 0.867038 0.808978
vt 0.867036 0.780933
vt 0.847378 0.808978
vt 0.847376 0.780933
vt 0.827569 0.808978
vt 0.827567 0.780933
vt 0.807464 0.808380
vt 0.807464 0.780933
vt 0.793017 0.808679
vt 0.793017 0.780933
vt 0.787215 0.808978
vt 0.787215 0.780933
vt 0.767110 0.808977
vt 0.767112 0.780932
vt 0.747301 0.808977
vt 0.747303 0.780932
vt 0.986775 0.808984
vt 0.967115 0.808982
vt 0.967119 0.780937
vt 0.986779 0.780939
vt 0.947305 0.808980
vt 0.947305 0.780935
vt 0.927200 0.808979
vt 0.927202 0.780934
vt 0.671202 0.010581
vt 0.671202 0.020015
vt 0.660724 0.020016
vt 0.660723 0.010581
vt 0.650242 0.020016
vt 0.650241 0.010581
vt 0.639761 0.020016
vt 0.639761 0.010582
vt 0.629280 0.020017
vt 0.629280 0.010582
vt 0.618800 0.020017
vt 0.618800 0.010582
vt 0.608319 0.020017
vt 0.608319 0.010583
vt 0.597837 0.020018
vt 0.597837 0.010583
vt 0.587359 0.020018
vt 0.587358 0.010583
vt 0.576878 0.020018
vt 0.576878 0.010584
vt 0.566395 0.020019
vt 0.566395 0.010584
vt 0.555917 0.020019
vt 0.555916 0.010584
vt 0.545435 0.020019
vt 0.545435 0.010585
vt 0.534954 0.020020
vt 0.534954 0.010585
vt 0.524473 0.020020
vt 0.524473 0.010585
vt 0.513993 0.020020
vt 0.513992 0.010586
vt 0.503512 0.020020
vt 0.503512 0.010586
vt 0.493030 0.020020
vt 0.493030 0.010586
vt 0.482552 0.020021
vt 0.482551 0.010587
vt 0.472068 0.020021
vt 0.472068 0.010587
vt 0.681682 0.010581
vt 0.681682 0.020015
vt 0.531816 0.815702
vt 0.550998 0.790285
vt 0.540608 0.820384
vt 0.550419 0.822122
vt 0.560286 0.820742
vt 0.569243 0.816380
vt 0.576415 0.809466
vt 0.581098 0.800672
vt 0.582835 0.790860
vt 0.581457 0.780996
vt 0.577096 0.772039
vt 0.570178 0.764865
vt 0.561386 0.760183
vt 0.551575 0.758445
vt 0.541708 0.759825
vt 0.532751 0.764187
vt 0.525579 0.771102
vt 0.520896 0.779895
vt 0.519160 0.789707
vt 0.520538 0.799572
vt 0.524900 0.808531
vt 0.482456 0.020011
vt 0.482457 0.010567
vt 0.492948 0.010568
vt 0.492947 0.020012
vt 0.503438 0.010570
vt 0.503437 0.020013
vt 0.513929 0.010571
vt 0.513928 0.020015
vt 0.524420 0.010573
vt 0.524419 0.020016
vt 0.534911 0.010574
vt 0.534910 0.020018
vt 0.545402 0.010575
vt 0.545401 0.020019
vt 0.555892 0.010576
vt 0.555891 0.020020
vt 0.566383 0.010578
vt 0.566382 0.020022
vt 0.576874 0.010579
vt 0.576872 0.020023
vt 0.587364 0.010581
vt 0.587363 0.020024
vt 0.597856 0.010582
vt 0.597854 0.020026
vt 0.608348 0.010583
vt 0.608347 0.020027
vt 0.618839 0.010585
vt 0.618837 0.020028
vt 0.629329 0.010586
vt 0.629328 0.020030
vt 0.639820 0.010587
vt 0.639819 0.020031
vt 0.650311 0.010589
vt 0.650310 0.020032
vt 0.660803 0.010590
vt 0.660802 0.020034
vt 0.671294 0.010591
vt 0.671293 0.020035
vt 0.681785 0.010593
vt 0.681783 0.020036
vt 0.471965 0.020010
vt 0.471967 0.010566
vt 0.852009 0.758024
vt 0.871110 0.732509
vt 0.860830 0.762678
vt 0.870655 0.764377
vt 0.880525 0.762958
vt 0.889475 0.758559
vt 0.896625 0.751607
vt 0.901278 0.742787
vt 0.902980 0.732963
vt 0.901560 0.723092
vt 0.897160 0.714144
vt 0.890211 0.706993
vt 0.881390 0.702339
vt 0.871563 0.700638
vt 0.861692 0.702057
vt 0.852745 0.706458
vt 0.845593 0.713407
vt 0.840940 0.722227
vt 0.839240 0.732054
vt 0.840660 0.741925
vt 0.845060 0.750874
vt 0.288625 0.131315
vt 0.290575 0.143703
vt 0.222822 0.143449
vt 0.224880 0.131057
vt 0.186348 0.170667
vt 0.198731 0.168271
vt 0.314377 0.168732
vt 0.326839 0.171150
vt 0.339513 0.169415
vt 0.173737 0.168853
vt 0.364575 0.167621
vt 0.351696 0.163863
vt 0.361467 0.154841
vt 0.378813 0.144224
vt 0.367748 0.143413
vt 0.148347 0.166809
vt 0.161619 0.163179
vt 0.151921 0.154069
vt 0.134232 0.143200
vt 0.145754 0.142613
vt 0.379320 0.116843
vt 0.369879 0.130787
vt 0.368151 0.117877
vt 0.365724 0.093262
vt 0.362382 0.106472
vt 0.353227 0.097317
vt 0.342203 0.079965
vt 0.341733 0.091548
vt 0.314799 0.080380
vt 0.329078 0.089877
vt 0.316156 0.092127
vt 0.304696 0.098499
vt 0.295731 0.108114
vt 0.143595 0.129808
vt 0.134058 0.115982
vt 0.145503 0.117002
vt 0.147746 0.092412
vt 0.151355 0.105626
vt 0.160584 0.096526
vt 0.171362 0.079237
vt 0.172135 0.090825
vt 0.198795 0.079811
vt 0.184820 0.089231
vt 0.197732 0.091575
vt 0.209159 0.098024
vt 0.217994 0.107714
vt 0.290443 0.118982
vt 0.223191 0.118698
vt 0.209092 0.162953
vt 0.217458 0.154411
vt 0.304338 0.163308
vt 0.296067 0.154741
vn 0.255537 -0.966799 -0.000000
vn 0.255537 -0.966799 -0.000000
vn 0.255537 -0.966799 -0.000000
vn 0.255537 -0.966799 -0.000000
vn 0.255537 -0.966799 -0.000000
vn 0.255537 -0.966799 -0.000000
vn -0.986712 -0.162480 -0.000000
vn -0.986712 -0.162480 -0.000000
vn -0.986712 -0.162480 -0.000000
vn -0.986712 -0.162480 -0.000000
vn -0.986712 -0.162480 -0.000000
vn -0.986712 -0.162480 -0.000000
vn -0.000000 -0.000000 1.000000
vn -0.000000 -0.000000 1.000000
vn -0.000000 -0.000000 1.000000
vn 0.000000 0.000000 1.000000
vn 0.000000 0.000000 1.000000
vn 0.000000 0.000000 1.000000
vn 0.951934 0.306303 0.000000
vn 0.951934 0.306303 0.000000
vn 0.951934 0.306303 0.000000
vn 0.951934 0.306303 0.000000
vn 0.951934 0.306303 0.000000
vn 0.951934 0.306303 0.000000
vn 0.000000 0.000000 -1.000000
vn 0.000000 0.000000 -1.000000
vn 0.000000 0.000000 -1.000000
vn 0.000000 0.000000 -1.000000
vn 0.555811 0.171818 -0.813359
vn 0.555811 0.171818 -0.813359
vn 0.555811 0.171818 -0.813359
vn 0.555811 0.171818 -0.813359
vn 0.150290 -0.557496 -0.816463
vn 0.150290 -0.557496 -0.816463
vn 0.150290 -0.557496 -0.816463
vn 0.150290 -0.557496 -0.816463
vn -0.563401 -0.096128 -0.820572
vn -0.563401 -0.096128 -0.820572
vn -0.563401 -0.096128 -0.820572
vn -0.563401 -0.096128 -0.820572
vn 0.000000 0.707107 -0.707107
vn 0.000000 0.707107 -0.707107
vn 0.000000 0.707107 -0.707107
vn 0.000000 0.707107 -0.707107
vn 0.000000 1.000000 0.000000
vn 0.000000 1.000000 0.000000
vn 0.000000 1.000000 0.000000
vn 0.000000 1.000000 0.000000
vn 0.000000 1.000000 0.000000
vn 0.000000 1.000000 0.000000
vn 0.255537 -0.966799 -0.000000
vn 0.255537 -0.966799 -0.000000
vn 0.255537 -0.966799 -0.000000
vn 0.255537 -0.966799 -0.000000
vn 0.255537 -0.966799 -0.000000
vn 0.255537 -0.966799 -0.000000
vn -0.986712 -0.162481 -0.000000
vn -0.986712 -0.162481 -0.000000
vn -0.986712 -0.162481 -0.000000
vn -0.986712 -0.162480 -0.000000
vn -0.986712 -0.162480 -0.000000
vn -0.986712 -0.162480 -0.000000
vn 0.000000 0.000000 -1.000000
vn 0.000000 0.000000 -1.000000
vn 0.000000 0.000000 -1.000000
vn -0.000000 -0.000000 -1.000000
vn -0.000000 -0.000000 -1.000000
vn -0.000000 -0.000000 -1.000000
vn 0.951934 0.306303 0.000000
vn 0.951934 0.306303 0.000000
vn 0.951934 0.306303 0.000000
vn 0.951934 0.306303 0.000000
vn 0.951934 0.306303 0.000000
vn 0.951934 0.306303 0.000000
vn -0.000000 -0.000000 1.000000
vn -0.000000 -0.000000 1.000000
vn -0.000000 -0.000000 1.000000
vn -0.000000 -0.000000 1.000000
vn 0.555811 0.171818 0.813359
vn 0.555811 0.171818 0.813359
vn 0.555811 0.171818 0.813359
vn 0.555811 0.171818 0.813359
vn 0.150290 -0.557496 0.816463
vn 0.150290 -0.557496 0.816463
vn 0.150290 -0.557496 0.816463
vn 0.150290 -0.557496 0.816463
vn -0.563401 -0.096128 0.820572
vn -0.563401 -0.096128 0.820572
vn -0.563401 -0.096128 0.820572
vn -0.563401 -0.096128 0.820572
vn 0.000000 0.707107 0.707107
vn 0.000000 0.707107 0.707107
vn 0.000000 0.707107 0.707107
vn 0.000000 0.707107 0.707107
vn 0.000000 1.000000 0.000000
vn 0.000000 1.000000 0.000000
vn 0.000000 1.000000 0.000000
vn 0.000000 1.000000 0.000000
vn 0.000000 1.000000 0.000000
vn 0.000000 1.000000 0.000000
vn -0.000000 -1.000000 -0.000000
vn -0.000000 -1.000000 -0.000000
vn -0.000000 -1.000000 -0.000000
vn -0.000000 -1.000000 -0.000000
vn -0.000000 -1.000000 -0.000000
vn -0.000000 -1.000000 -0.000000
vn -0.000000 -0.707116 0.707097
vn -0.000000 -0.866041 0.499973
vn -0.000000 -0.866041 0.499973
vn -0.000000 -0.707116 0.707097
vn -0.000000 -0.258816 0.965927
vn -0.000000 -0.707116 0.707097
vn -0.000000 -0.707116 0.707097
vn -0.000000 -0.258816 0.965927
vn 0.000000 0.258821 0.965925
vn -0.000000 -0.258816 0.965927
vn -0.000000 -0.258816 0.965927
vn 0.000000 0.258821 0.965925
vn 0.000000 0.707107 0.707107
vn 0.000000 0.258821 0.965925
vn 0.000000 0.258821 0.965925
vn 0.000000 0.707107 0.707107
vn 0.000000 0.965923 0.258829
vn 0.000000 0.707107 0.707107
vn 0.000000 0.707107 0.707107
vn 0.000000 0.965923 0.258829
vn 0.000000 1.000000 0.000018
vn 0.000000 0.965923 0.258829
vn 0.000000 0.965923 0.258829
vn 0.000000 1.000000 0.000018
vn 0.000000 1.000000 -0.000004
vn 0.000000 1.000000 -0.000004
vn 0.000000 1.000000 -0.000004
vn 0.000000 1.000000 -0.000004
vn 0.000000 0.965925 -0.258821
vn 0.000000 1.000000 0.000000
vn 0.000000 1.000000 0.000000
vn 0.000000 0.965925 -0.258821
vn 0.000000 0.707107 -0.707107
vn 0.000000 0.965925 -0.258821
vn 0.000000 0.965925 -0.258821
vn 0.000000 0.707107 -0.707107
vn 0.000000 0.258821 -0.965925
vn 0.000000 0.707107 -0.707107
vn 0.000000 0.707107 -0.707107
vn 0.000000 0.258821 -0.965925
vn -0.000000 -0.258816 -0.965927
vn 0.000000 0.258821 -0.965925
vn 0.000000 0.258821 -0.965925
vn -0.000000 -0.258816 -0.965927
vn -0.000000 -0.707116 -0.707097
vn -0.000000 -0.258816 -0.965927
vn -0.000000 -0.258816 -0.965927
vn -0.000000 -0.707116 -0.707097
vn -0.000000 -0.866041 -0.499973
vn -0.000000 -0.707116 -0.707097
vn -0.000000 -0.707116 -0.707097
vn -0.000000 -0.866041 -0.499973
vn -0.000000 -1.000000 -0.000000
vn -0.000000 -1.000000 -0.000000
vn -0.000000 -1.000000 -0.000000
vn -0.000000 -1.000000 -0.000000
vn -0.018133 -0.876599 0.480879
vn -0.018133 -0.876599 0.480879
vn -0.018133 -0.876599 0.480879
vn -0.000000 -0.883182 0.469031
vn -0.000000 -0.883182 0.469031
vn -0.000000 -0.883182 0.469031
vn 0.003377 -0.935654 0.352902
vn 0.003377 -0.935654 0.352902
vn 0.003377 -0.935654 0.352902
vn 0.003377 -0.935654 0.352902
vn 0.006564 -0.998777 -0.048999
vn 0.006564 -0.998777 -0.048999
vn 0.006564 -0.998777 -0.048999
vn -0.000000 -1.000000 -0.000000
vn -0.000000 -1.000000 -0.000000
vn -0.000000 -1.000000 -0.000000
vn -0.000000 -1.000000 -0.000000
vn -0.000000 -1.000000 -0.000000
vn -0.000000 -1.000000 -0.000000
vn -0.000000 -1.000000 -0.000000
vn -0.000000 -1.000000 -0.000000
vn -0.000000 -1.000000 -0.000000
vn -0.000000 -1.000000 -0.000000
vn -0.000000 -1.000000 -0.000000
vn -0.000000 -1.000000 -0.000000
vn -0.018132 -0.876595 -0.480887
vn -0.018132 -0.876595 -0.480887
vn -0.018132 -0.876595 -0.480887
vn 0.001872 -0.879605 -0.475702
vn 0.001872 -0.879605 -0.475702
vn 0.001872 -0.879605 -0.475702
vn -0.000000 -0.883177 -0.469039
vn -0.000000 -0.883177 -0.469039
vn -0.000000 -0.883177 -0.469039
vn 0.000000 1.000000 -0.000004
vn 0.000000 1.000000 -0.000004
vn 0.000000 1.000000 -0.000004
vn 0.000000 1.000000 -0.000004
vn 0.000000 0.780869 -0.624695
vn 0.000000 0.780869 -0.624695
vn 0.000000 0.780869 -0.624695
vn 0.000000 0.780869 -0.624695
vn -0.474680 0.652741 -0.590430
vn -0.474680 0.652741 -0.590430
vn -0.474680 0.652741 -0.590430
vn -0.353241 0.935532 -0.000002
vn -0.353241 0.935532 -0.000002
vn -0.353241 0.935532 -0.000002
vn -0.353241 0.935532 -0.000002
vn -0.474686 0.652731 0.590437
vn -0.474686 0.652731 0.590437
vn -0.474686 0.652731 0.590437
vn 0.000000 0.780861 0.624705
vn 0.000000 0.780861 0.624705
vn 0.000000 0.780861 0.624705
vn 0.000000 0.780861 0.624705
vn -0.000000 -0.000000 1.000000
vn -0.000000 -0.000000 1.000000
vn -0.000000 -0.000000 1.000000
vn -0.000000 -0.000000 1.000000
vn -0.000000 -0.000000 1.000000
vn -0.000000 -0.000000 1.000000
vn -0.000000 -0.930494 -0.366308
vn -0.000000 -0.930494 -0.366308
vn -0.000000 -0.930494 -0.366308
vn -0.000000 -0.930494 -0.366308
vn -0.000000 -0.930493 -0.366308
vn -0.000000 -0.930494 -0.366308
vn 0.000000 0.000000 -1.000000
vn 0.000000 0.000000 -1.000000
vn 0.000000 0.000000 -1.000000
vn 0.000000 0.000000 -1.000000
vn 0.000000 0.000000 -1.000000
vn 0.000000 0.000000 -1.000000
vn -0.638627 0.000000 -0.769517
vn -0.638627 0.000000 -0.769517
vn -0.638627 0.000000 -0.769517
vn -0.815820 -0.384776 -0.431725
vn -0.815820 -0.384776 -0.431725
vn -0.815820 -0.384776 -0.431725
vn -0.748894 -0.533655 -0.392899
vn -0.748894 -0.533655 -0.392899
vn -0.748894 -0.533655 -0.392899
vn -0.528503 -0.848931 -0.000000
vn -0.528503 -0.848931 -0.000000
vn -0.528503 -0.848931 -0.000000
vn -0.528503 -0.848931 -0.000000
vn -0.904451 -0.426578 -0.000000
vn -0.904451 -0.426578 -0.000000
vn -0.904451 -0.426578 -0.000000
vn -0.904451 -0.426578 -0.000000
vn -0.638627 0.000000 0.769517
vn -0.638627 0.000000 0.769517
vn -0.638627 0.000000 0.769517
vn -0.815820 -0.384776 0.431725
vn -0.815820 -0.384776 0.431725
vn -0.815820 -0.384776 0.431725
vn -0.748894 -0.533655 0.392899
vn -0.748894 -0.533655 0.392899
vn -0.748894 -0.533655 0.392899
vn -0.000000 -0.930494 0.366308
vn -0.000000 -0.930493 0.366308
vn -0.000000 -0.930493 0.366308
vn -0.000000 -0.930494 0.366308
vn -0.000000 -0.930494 0.366308
vn -0.000000 -0.930494 0.366308
vn -0.000000 -1.000000 -0.000000
vn -0.000000 -1.000000 -0.000000
vn -0.000000 -1.000000 -0.000000
vn -0.051438 -0.998609 -0.011559
vn -0.051438 -0.998609 -0.011559
vn -0.051438 -0.998609 -0.011559
vn -0.000005 -1.000000 0.000014
vn -0.000005 -1.000000 0.000014
vn -0.000005 -1.000000 0.000014
vn 0.000004 -1.000000 0.000002
vn 0.000004 -1.000000 0.000002
vn 0.000004 -1.000000 0.000002
vn 0.000007 -1.000000 -0.000000
vn 0.000007 -1.000000 -0.000000
vn 0.000007 -1.000000 -0.000000
vn 0.000007 -1.000000 -0.000000
vn 0.000007 -1.000000 -0.000000
vn 0.000007 -1.000000 -0.000000
vn -0.051439 -0.998609 0.011548
vn -0.051439 -0.998609 0.011548
vn -0.051439 -0.998609 0.011548
vn -0.000000 -1.000000 -0.000011
vn -0.000000 -1.000000 -0.000011
vn -0.000000 -1.000000 -0.000011
vn 0.000002 -1.000000 -0.000004
vn 0.000002 -1.000000 -0.000004
vn 0.000002 -1.000000 -0.000004
vn 0.000004 -1.000000 -0.000002
vn 0.000004 -1.000000 -0.000002
vn 0.000004 -1.000000 -0.000002
vn -0.999546 0.003803 -0.029897
vn -0.999546 0.003803 -0.029897
vn -0.999546 0.003803 -0.029897
vn -0.999546 0.003803 -0.029897
vn -0.999546 0.003803 0.029897
vn -0.999546 0.003803 0.029897
vn -0.999546 0.003803 0.029897
vn -0.999546 0.003803 0.029897
vn -1.000000 0.000000 -0.000000
vn -1.000000 0.000000 -0.000000
vn -1.000000 0.000000 0.000000
vn -1.000000 0.000000 0.000000
vn -1.000000 0.000000 0.000000
vn -1.000000 0.000000 0.000000
vn -1.000000 0.000000 0.000000
vn -1.000000 0.000000 0.000000
vn -1.000000 0.000000 0.000000
vn -1.000000 0.000000 0.000000
vn -1.000000 0.000000 -0.000000
vn -1.000000 0.000000 -0.000000
vn -1.000000 0.000000 0.000000
vn -1.000000 0.000000 0.000000
vn -1.000000 0.000000 0.000000
vn -1.000000 0.000000 0.000000
vn -1.000000 0.000000 0.000000
vn -1.000000 0.000000 -0.000000
vn -1.000000 0.000000 0.000000
vn -1.000000 0.000000 0.000000
vn -1.000000 0.000000 -0.000000
vn -1.000000 0.000000 0.000000
vn -1.000000 0.000000 -0.000000
vn -1.000000 0.000000 -0.000000
vn -1.000000 0.000000 -0.000000
vn -1.000000 0.000000 -0.000000
vn -1.000000 0.000000 -0.000000
vn -1.000000 0.000000 -0.000000
vn -1.000000 0.000000 -0.000000
vn -1.000000 0.000000 0.000000
vn -1.000000 0.000000 -0.000000
vn -1.000000 0.000000 0.000000
vn -1.000000 0.000000 0.000000
vn -1.000000 0.000000 -0.000000
vn -1.000000 0.000000 0.000000
vn -1.000000 0.000000 0.000000
vn -1.000000 0.000000 0.000000
vn -1.000000 0.000000 0.000000
vn -1.000000 0.000000 0.000000
vn -1.000000 0.000000 -0.000000
vn -1.000000 0.000000 -0.000000
vn -1.000000 0.000000 0.000000
vn -1.000000 0.000000 0.000000
vn -1.000000 0.000000 0.000000
vn -1.000000 0.000000 0.000000
vn -1.000000 0.000000 0.000000
vn -1.000000 0.000000 0.000000
vn -1.000000 0.000000 -0.000000
vn -1.000000 0.000000 0.000000
vn -1.000000 0.000000 0.000000
vn -1.000000 0.000000 -0.000000
vn -1.000000 0.000000 -0.000000
vn -1.000000 0.000000 -0.000000
vn -1.000000 0.000000 -0.000000
vn -1.000000 0.000000 -0.000000
vn -1.000000 0.000000 -0.000000
vn -1.000000 0.000000 -0.000000
vn -1.000000 0.000000 -0.000000
vn 0.000000 0.000000 -1.000000
vn 0.295177 0.000033 -0.955443
vn 0.294491 0.000033 -0.955654
vn 0.000000 0.000000 -1.000000
vn 0.295177 0.000033 -0.955443
vn 0.699541 0.000037 -0.714592
vn 0.697689 0.000037 -0.716401
vn 0.294491 0.000033 -0.955654
vn 0.699541 0.000037 -0.714592
vn 0.963969 0.000008 -0.266013
vn 0.963975 0.000008 -0.265994
vn 0.697689 0.000037 -0.716401
vn 0.963969 0.000008 -0.266013
vn 0.963970 0.000016 0.266010
vn 0.963965 0.000016 0.266030
vn 0.963975 0.000008 -0.265994
vn 0.963970 0.000016 0.266010
vn 0.699500 0.000017 0.714632
vn 0.697660 0.000016 0.716429
vn 0.963965 0.000016 0.266030
vn 0.699500 0.000017 0.714632
vn 0.295174 -0.000027 0.955444
vn 0.294493 -0.000027 0.955654
vn 0.697660 0.000016 0.716429
vn 0.295174 -0.000027 0.955444
vn -0.000001 -0.000063 1.000000
vn -0.000001 -0.000063 1.000000
vn 0.294493 -0.000027 0.955654
vn -0.000001 -0.000063 1.000000
vn -0.391370 -0.000014 0.920233
vn -0.388680 -0.000014 0.921373
vn -0.000001 -0.000063 1.000000
vn -0.391370 -0.000014 0.920233
vn -0.696636 0.000017 0.717425
vn -0.696626 0.000017 0.717435
vn -0.388680 -0.000014 0.921373
vn -0.696636 0.000017 0.717425
vn -0.963969 0.000017 0.266016
vn -0.963963 0.000017 0.266035
vn -0.696626 0.000017 0.717435
vn -0.963969 0.000017 0.266016
vn -0.963968 0.000009 -0.266018
vn -0.963973 0.000009 -0.265999
vn -0.963963 0.000017 0.266035
vn -0.963968 0.000009 -0.266018
vn -0.696677 0.000037 -0.717385
vn -0.696655 0.000037 -0.717406
vn -0.963973 0.000009 -0.265999
vn -0.696677 0.000037 -0.717385
vn -0.391372 0.000044 -0.920232
vn -0.388678 0.000044 -0.921374
vn -0.696655 0.000037 -0.717406
vn -0.391372 0.000044 -0.920232
vn 0.000000 0.000000 -1.000000
vn 0.000000 0.000000 -1.000000
vn -0.388678 0.000044 -0.921374
vn -0.000000 -0.951046 0.309050
vn -0.000000 -0.951046 0.309050
vn -0.000000 -0.808999 0.587811
vn -0.000000 -0.808999 0.587811
vn -0.000000 -0.808999 0.587811
vn -0.000000 -0.808999 0.587811
vn -0.000000 -0.587825 0.808988
vn -0.000000 -0.587825 0.808988
vn -0.000000 -0.587825 0.808988
vn -0.000000 -0.587825 0.808988
vn -0.000000 -0.308983 0.951067
vn -0.000000 -0.308983 0.951067
vn -0.000000 -0.308983 0.951067
vn -0.000000 -0.308983 0.951067
vn -0.000000 -0.000000 1.000000
vn -0.000000 -0.000000 1.000000
vn -0.000000 -0.000000 1.000000
vn -0.000000 -0.000000 1.000000
vn 0.000000 0.308995 0.951064
vn 0.000000 0.308995 0.951064
vn 0.000000 0.308995 0.951064
vn 0.000000 0.308995 0.951064
vn 0.000000 0.587825 0.808988
vn 0.000000 0.587825 0.808988
vn 0.000000 0.587825 0.808988
vn 0.000000 0.587825 0.808988
vn 0.000000 0.808979 0.587837
vn 0.000000 0.808979 0.587837
vn 0.000000 0.808979 0.587837
vn 0.000000 0.808979 0.587837
vn 0.000000 0.951046 0.309050
vn 0.000000 0.951046 0.309050
vn 0.000000 0.951046 0.309050
vn 0.000000 0.951046 0.309050
vn 0.000000 1.000000 -0.000020
vn 0.000000 1.000000 -0.000020
vn 0.000000 1.000000 -0.000020
vn 0.000000 1.000000 -0.000020
vn 0.000000 0.951061 -0.309002
vn 0.000000 0.951061 -0.309002
vn 0.000000 0.951061 -0.309002
vn 0.000000 0.951061 -0.309002
vn 0.000000 0.808998 -0.587811
vn 0.000000 0.808998 -0.587811
vn 0.000000 0.808998 -0.587811
vn 0.000000 0.808998 -0.587811
vn 0.000000 0.587830 -0.808985
vn 0.000000 0.587830 -0.808985
vn 0.000000 0.587830 -0.808985
vn 0.000000 0.587830 -0.808985
vn 0.000000 0.308984 -0.951067
vn 0.000000 0.308984 -0.951067
vn 0.000000 0.308984 -0.951067
vn 0.000000 0.308984 -0.951067
vn 0.000000 0.000000 -1.000000
vn 0.000000 0.000000 -1.000000
vn 0.000000 0.000000 -1.000000
vn 0.000000 0.000000 -1.000000
vn -0.000000 -0.308989 -0.951065
vn -0.000000 -0.308989 -0.951065
vn -0.000000 -0.308989 -0.951065
vn -0.000000 -0.308989 -0.951065
vn -0.000000 -0.587835 -0.808981
vn -0.000000 -0.587835 -0.808981
vn -0.000000 -0.587835 -0.808981
vn -0.000000 -0.587835 -0.808981
vn -0.000000 -0.808989 -0.587824
vn -0.000000 -0.808989 -0.587824
vn -0.000000 -0.808989 -0.587824
vn -0.000000 -0.808989 -0.587824
vn -0.000000 -0.951055 -0.309020
vn -0.000000 -0.951055 -0.309020
vn -0.000000 -0.951055 -0.309020
vn -0.000000 -0.951055 -0.309020
vn -0.000000 -1.000000 0.000020
vn -0.000000 -1.000000 0.000020
vn -0.000000 -1.000000 0.000020
vn -0.000000 -1.000000 0.000020
vn -0.000000 -0.951046 0.309050
vn -0.000000 -0.951046 0.309050
vn 1.000000 -0.000000 0.000000
vn 1.000000 -0.000000 0.000000
vn 1.000000 -0.000000 -0.000000
vn 1.000000 -0.000000 -0.000000
vn 1.000000 -0.000000 0.000000
vn 1.000000 -0.000000 -0.000000
vn 1.000000 -0.000000 -0.000000
vn 1.000000 -0.000000 0.000000
vn 1.000000 -0.000000 -0.000000
vn 1.000000 -0.000000 -0.000000
vn 1.000000 -0.000000 0.000000
vn 1.000000 -0.000000 -0.000000
vn 1.000000 -0.000000 -0.000000
vn 1.000000 -0.000000 0.000000
vn 1.000000 -0.000000 -0.000000
vn 1.000000 -0.000000 -0.000000
vn 1.000000 -0.000000 0.000000
vn 1.000000 -0.000000 -0.000000
vn 1.000000 -0.000000 -0.000000
vn 1.000000 -0.000000 0.000000
vn 1.000000 -0.000000 -0.000000
vn 1.000000 -0.000000 -0.000000
vn 1.000000 -0.000000 0.000000
vn 1.000000 -0.000000 0.000000
vn 1.000000 -0.000000 0.000000
vn 1.000000 -0.000000 0.000000
vn 1.000000 -0.000000 0.000000
vn 1.000000 -0.000000 0.000000
vn 1.000000 -0.000000 0.000000
vn 1.000000 -0.000000 -0.000000
vn 1.000000 -0.000000 -0.000000
vn 1.000000 -0.000000 0.000000
vn 1.000000 -0.000000 0.000000
vn 1.000000 -0.000000 0.000000
vn 1.000000 -0.000000 0.000000
vn 1.000000 -0.000000 0.000000
vn 1.000000 -0.000000 0.000000
vn 1.000000 -0.000000 0.000000
vn 1.000000 -0.000000 -0.000000
vn 1.000000 -0.000000 -0.000000
vn 1.000000 -0.000000 0.000000
vn 1.000000 -0.000000 -0.000000
vn 1.000000 -0.000000 -0.000000
vn 1.000000 -0.000000 0.000000
vn 1.000000 -0.000000 -0.000000
vn 1.000000 -0.000000 -0.000000
vn 1.000000 -0.000000 0.000000
vn 1.000000 -0.000000 0.000000
vn 1.000000 -0.000000 0.000000
vn 1.000000 -0.000000 0.000000
vn 1.000000 -0.000000 0.000000
vn 1.000000 -0.000000 0.000000
vn 1.000000 -0.000000 0.000000
vn 1.000000 -0.000000 -0.000000
vn 1.000000 -0.000000 -0.000000
vn 1.000000 -0.000000 0.000000
vn 1.000000 -0.000000 -0.000000
vn 1.000000 -0.000000 -0.000000
vn 1.000000 -0.000000 0.000000
vn 1.000000 -0.000000 0.000000
vn -0.000000 -0.951055 0.309020
vn -0.000000 -0.951055 0.309020
vn -0.000000 -0.808989 0.587824
vn -0.000000 -0.808989 0.587824
vn -0.000000 -0.808989 0.587824
vn -0.000000 -0.808989 0.587824
vn -0.000000 -0.587729 0.809058
vn -0.000000 -0.587729 0.809058
vn -0.000000 -0.587729 0.809058
vn -0.000000 -0.587729 0.809058
vn -0.000000 -0.309133 0.951019
vn -0.000000 -0.309133 0.951019
vn -0.000000 -0.309133 0.951019
vn -0.000000 -0.309133 0.951019
vn 0.000000 0.000000 1.000000
vn 0.000000 0.000000 1.000000
vn 0.000000 0.000000 1.000000
vn 0.000000 0.000000 1.000000
vn 0.000000 0.309133 0.951019
vn 0.000000 0.309133 0.951019
vn 0.000000 0.309133 0.951019
vn 0.000000 0.309133 0.951019
vn 0.000000 0.587724 0.809062
vn 0.000000 0.587724 0.809062
vn 0.000000 0.587724 0.809062
vn 0.000000 0.587724 0.809062
vn 0.000000 0.808999 0.587811
vn 0.000000 0.808999 0.587811
vn 0.000000 0.808999 0.587811
vn 0.000000 0.808999 0.587811
vn 0.000000 0.951061 0.309002
vn 0.000000 0.951061 0.309002
vn 0.000000 0.951061 0.309002
vn 0.000000 0.951061 0.309002
vn 0.000000 1.000000 0.000020
vn 0.000000 1.000000 0.000020
vn 0.000000 1.000000 0.000020
vn 0.000000 1.000000 0.000020
vn 0.000000 0.951061 -0.309002
vn 0.000000 0.951061 -0.309002
vn 0.000000 0.951061 -0.309002
vn 0.000000 0.951061 -0.309002
vn 0.000000 0.809035 -0.587760
vn 0.000000 0.809035 -0.587760
vn 0.000000 0.809035 -0.587760
vn 0.000000 0.809035 -0.587760
vn 0.000000 0.587825 -0.808988
vn 0.000000 0.587825 -0.808988
vn 0.000000 0.587825 -0.808988
vn 0.000000 0.587825 -0.808988
vn 0.000000 0.308995 -0.951064
vn 0.000000 0.308995 -0.951064
vn 0.000000 0.308995 -0.951064
vn 0.000000 0.308995 -0.951064
vn 0.000000 0.000000 -1.000000
vn 0.000000 0.000000 -1.000000
vn 0.000000 0.000000 -1.000000
vn 0.000000 0.000000 -1.000000
vn -0.000000 -0.308983 -0.951067
vn -0.000000 -0.308983 -0.951067
vn -0.000000 -0.308983 -0.951067
vn -0.000000 -0.308983 -0.951067
vn -0.000000 -0.587825 -0.808988
vn -0.000000 -0.587825 -0.808988
vn -0.000000 -0.587825 -0.808988
vn -0.000000 -0.587825 -0.808988
vn -0.000000 -0.809054 -0.587734
vn -0.000000 -0.809054 -0.587734
vn -0.000000 -0.809054 -0.587734
vn -0.000000 -0.809054 -0.587734
vn -0.000000 -0.951061 -0.309002
vn -0.000000 -0.951061 -0.309002
vn -0.000000 -0.951061 -0.309002
vn -0.000000 -0.951061 -0.309002
vn -0.000000 -1.000000 -0.000020
vn -0.000000 -1.000000 -0.000020
vn -0.000000 -1.000000 -0.000020
vn -0.000000 -1.000000 -0.000020
vn -0.000000 -0.951055 0.309020
vn -0.000000 -0.951055 0.309020
vn 1.000000 -0.000000 0.000000
vn 1.000000 -0.000000 -0.000000
vn 1.000000 -0.000000 -0.000000
vn 1.000000 -0.000000 -0.000000
vn 1.000000 -0.000000 -0.000000
vn 1.000000 -0.000000 -0.000000
vn 1.000000 -0.000000 -0.000000
vn 1.000000 -0.000000 -0.000000
vn 1.000000 -0.000000 -0.000000
vn 1.000000 -0.000000 -0.000000
vn 1.000000 -0.000000 -0.000000
vn 1.000000 -0.000000 -0.000000
vn 1.000000 -0.000000 -0.000000
vn 1.000000 -0.000000 -0.000000
vn 1.000000 -0.000000 -0.000000
vn 1.000000 -0.000000 -0.000000
vn 1.000000 -0.000000 -0.000000
vn 1.000000 -0.000000 -0.000000
vn 1.000000 -0.000000 -0.000000
vn 1.000000 -0.000000 -0.000000
vn 1.000000 -0.000000 -0.000000
vn 1.000000 -0.000000 -0.000000
vn 1.000000 -0.000000 -0.000000
vn 1.000000 -0.000000 0.000000
vn 1.000000 -0.000000 0.000000
vn 1.000000 -0.000000 -0.000000
vn 1.000000 -0.000000 -0.000000
vn 1.000000 -0.000000 -0.000000
vn 1.000000 -0.000000 -0.000000
vn 1.000000 -0.000000 -0.000000
vn 1.000000 -0.000000 -0.000000
vn 1.000000 -0.000000 -0.000000
vn 1.000000 -0.000000 0.000000
vn 1.000000 -0.000000 0.000000
vn 1.000000 -0.000000 -0.000000
vn 1.000000 -0.000000 0.000000
vn 1.000000 -0.000000 0.000000
vn 1.000000 -0.000000 -0.000000
vn 1.000000 -0.000000 -0.000000
vn 1.000000 -0.000000 -0.000000
vn 1.000000 -0.000000 -0.000000
vn 1.000000 -0.000000 -0.000000
vn 1.000000 -0.000000 -0.000000
vn 1.000000 -0.000000 -0.000000
vn 1.000000 -0.000000 -0.000000
vn 1.000000 -0.000000 -0.000000
vn 1.000000 -0.000000 -0.000000
vn 1.000000 -0.000000 0.000000
vn 1.000000 -0.000000 0.000000
vn 1.000000 -0.000000 -0.000000
vn 1.000000 -0.000000 0.000000
vn 1.000000 -0.000000 0.000000
vn 1.000000 -0.000000 -0.000000
vn 1.000000 -0.000000 -0.000000
vn 1.000000 -0.000000 -0.000000
vn 1.000000 -0.000000 -0.000000
vn 1.000000 -0.000000 0.000000
vn 1.000000 -0.000000 0.000000
vn 1.000000 -0.000000 -0.000000
vn 1.000000 -0.000000 0.000000
vn 1.000000 -0.000000 -0.000000
vn 1.000000 -0.000000 -0.000000
vn 1.000000 -0.000000 -0.000000
vn 1.000000 -0.000000 -0.000000
vn 1.000000 -0.000000 -0.000001
vn 1.000000 -0.000000 -0.000001
vn 1.000000 -0.000000 -0.000001
vn 1.000000 -0.000000 -0.000001
vn 1.000000 -0.000000 -0.000001
vn 1.000000 -0.000000 -0.000001
vn 1.000000 -0.000000 -0.000001
vn 1.000000 -0.000000 -0.000001
vn 1.000000 -0.000000 -0.000000
vn 1.000000 -0.000000 -0.000000
vn 1.000000 -0.000000 -0.000000
vn 1.000000 -0.000000 0.000000
vn 1.000000 -0.000000 0.000000
vn 1.000000 -0.000000 0.000000
vn 1.000000 -0.000000 -0.000000
vn 1.000000 -0.000000 -0.000000
vn 1.000000 -0.000000 0.000001
vn 1.000000 -0.000000 -0.000000
vn 1.000000 -0.000000 -0.000000
vn 1.000000 -0.000000 0.000001
vn 1.000000 -0.000000 -0.000000
vn 1.000000 -0.000000 0.000001
vn 1.000000 -0.000000 0.000001
vn 1.000000 -0.000000 0.000001
vn 1.000000 -0.000000 0.000001
vn 1.000000 -0.000000 0.000000
vn 1.000000 -0.000000 0.000001
vn 1.000000 -0.000000 -0.000000
vn 1.000000 -0.000000 0.000000
vn 1.000000 -0.000000 0.000000
vn 1.000000 -0.000000 -0.000000
vn 1.000000 -0.000000 0.000000
vn 1.000000 -0.000000 0.000000
vn 1.000000 -0.000000 -0.000000
vn 1.000000 -0.000000 0.000000
vn 1.000000 -0.000000 0.000000
vn 1.000000 -0.000000 -0.000000
vn 1.000000 -0.000000 -0.000000
vn 1.000000 -0.000000 -0.000000
vn 1.000000 -0.000000 0.000000
vn 1.000000 -0.000000 -0.000000
vn 1.000000 -0.000000 -0.000000
vn 1.000000 -0.000000 0.000000
vn 1.000000 -0.000000 -0.000000
vn 1.000000 -0.000000 0.000000
vn 1.000000 -0.000000 -0.000000
vn 1.000000 -0.000000 -0.000000
vn 1.000000 -0.000000 -0.000000
vn 1.000000 -0.000000 -0.000003
vn 1.000000 -0.000000 -0.000000
vn 1.000000 -0.000000 -0.000003
vn 1.000000 -0.000000 -0.000000
vn 1.000000 -0.000000 -0.000000
vn 1.000000 -0.000000 -0.000000
vn 1.000000 -0.000000 -0.000000
vn 1.000000 -0.000000 -0.000000
vn 1.000000 -0.000000 -0.000000
vn 1.000000 -0.000000 -0.000000
vn 1.000000 -0.000000 -0.000000
vn 1.000000 -0.000000 -0.000000
vn 1.000000 -0.000000 -0.000001
vn 1.000000 -0.000000 -0.000000
vn 1.000000 -0.000000 -0.000000
vn 1.000000 -0.000000 -0.000001
vn 1.000000 -0.000000 -0.000000
vn 1.000000 -0.000000 -0.000001
vn 1.000000 -0.000000 -0.000000
vn 1.000000 -0.000000 -0.000000
vn 1.000000 -0.000000 -0.000000
vn 1.000000 -0.000000 -0.000000
vn 1.000000 -0.000000 -0.000000
vn 1.000000 -0.000000 -0.000000
vn 1.000000 -0.000000 -0.000002
vn 1.000000 -0.000000 -0.000000
vn 1.000000 -0.000000 -0.000002
vn 1.000000 -0.000000 -0.000000
vn 1.000000 -0.000000 -0.000000
vn 1.000000 -0.000000 -0.000000
vn 1.000000 -0.000000 -0.000000
vn 1.000000 -0.000000 0.000000
vn 1.000000 -0.000000 -0.000000
vn 1.000000 -0.000000 0.000000
vn 1.000000 -0.000000 0.000000
vn 1.000000 -0.000000 0.000000
vn 1.000000 -0.000000 0.000000
vn 1.000000 -0.000000 0.000000
vn 1.000000 -0.000000 -0.000000
vn 1.000000 -0.000000 0.000000
vn 1.000000 -0.000000 0.000001
vn 1.000000 -0.000000 0.000000
vn 1.000000 -0.000000 0.000001
vn 1.000000 -0.000000 0.000001
vn 1.000000 -0.000000 0.000001
vn 1.000000 -0.000000 0.000001
vn 1.000000 -0.000000 0.000000
vn 1.000000 -0.000000 0.000001
vn 1.000000 -0.000000 0.000000
vn 1.000000 -0.000000 0.000000
vn 1.000000 -0.000000 0.000000
vn 1.000000 -0.000000 0.000000
vn 1.000000 -0.000000 -0.000000
vn 1.000000 -0.000000 -0.000000
vn 1.000000 -0.000000 0.000000
vn 1.000000 -0.000000 0.000000
vn 1.000000 -0.000000 0.000000
vn 1.000000 -0.000000 -0.000000
vn 1.000000 -0.000000 0.000000
vn 1.000000 -0.000000 0.000000
vn 1.000000 -0.000000 -0.000000
vn 1.000000 -0.000000 -0.000000
vn 1.000000 -0.000000 -0.000000
vn 1.000000 -0.000000 -0.000000
vn 1.000000 -0.000000 -0.000000
vn 1.000000 -0.000000 -0.000000
vn 1.000000 -0.000000 -0.000000
vn 1.000000 -0.000000 0.000001
vn 1.000000 -0.000000 0.000001
vn 1.000000 -0.000000 -0.000000
vn 1.000000 -0.000000 -0.000000
vn 1.000000 -0.000000 -0.000000
vn 1.000000 -0.000000 -0.000000
vn 1.000000 -0.000000 -0.000000
vn 1.000000 -0.000000 -0.000000
vn 1.000000 -0.000000 -0.000000
vn 1.000000 -0.000000 0.000000
vn 1.000000 -0.000000 0.000000
vn 1.000000 -0.000000 -0.000000
vn 1.000000 -0.000000 -0.000000
vn 1.000000 -0.000000 -0.000000
vn 1.000000 -0.000000 -0.000000
vn 1.000000 -0.000000 -0.000000
vn 1.000000 -0.000000 -0.000000
vn 1.000000 -0.000000 -0.000000
vn 1.000000 -0.000000 -0.000000
vn 1.000000 -0.000000 -0.000000
vn 1.000000 -0.000000 0.000000
vn 1.000000 -0.000000 -0.000000
vn 1.000000 -0.000000 -0.000000
vn 1.000000 -0.000000 0.000000
vn 1.000000 -0.000000 -0.000000
vn 1.000000 -0.000000 0.000000
vn 1.000000 -0.000000 0.000000
vn 1.000000 -0.000000 -0.000000
vn 1.000000 -0.000000 0.000000
vn 1.000000 -0.000000 -0.000000
vn 1.000000 -0.000000 -0.000000
vn 1.000000 -0.000000 0.000000
vn 1.000000 -0.000000 0.000000
vn 1.000000 -0.000000 0.000000
vn 1.000000 -0.000000 0.000000
vn 1.000000 -0.000000 -0.000000
vn 1.000000 -0.000000 0.000000
vn 1.000000 -0.000000 -0.000000
vn 1.000000 -0.000000 -0.000000
vn 1.000000 -0.000000 0.000000
vn 1.000000 -0.000000 -0.000000
vn 1.000000 -0.000000 0.000000
vn 1.000000 -0.000000 0.000000
vn 1.000000 -0.000000 0.000000
vn 1.000000 -0.000000 0.000000
vn 1.000000 -0.000000 0.000000
vn 1.000000 -0.000000 0.000000
vn 1.000000 -0.000000 0.000000
vn 1.000000 -0.000000 -0.000000
vn 1.000000 -0.000000 -0.000000
vn 1.000000 -0.000000 0.000000
vn 1.000000 -0.000000 -0.000000
vn 1.000000 -0.000000 0.000000
vn 1.000000 -0.000000 -0.000000
vn 1.000000 -0.000000 -0.000000
f 1/1/1 2/2/2 3/3/3
f 2/2/4 4/4/5 3/3/6
f 4/4/7 2/5/8 5/6/9
f 2/5/10 6/7/11 5/6/12
f 2/8/13 1/9/14 6/10/15
f 1/9/16 7/11/17 6/10/18
f 1/12/19 3/3/20 7/13/21
f 3/3/22 8/14/23 7/13/24
f 9/15/25 10/16/26 11/17/27
f 9/15/25 11/17/27 12/18/28
f 8/14/29 3/3/30 10/16/31
f 8/14/29 10/16/31 9/15/32
f 11/17/33 10/16/34 3/3/35
f 11/17/33 3/3/35 4/4/36
f 12/18/37 11/17/38 4/4/39
f 12/18/37 4/4/39 5/6/40
f 9/15/41 12/18/42 5/6/43
f 9/15/41 5/6/43 8/14/44
f 6/19/45 7/20/46 5/6/47
f 7/20/48 8/14/49 5/6/50
f 13/21/51 14/22/52 15/23/53
f 15/23/54 14/22/55 16/24/56
f 16/24/57 17/25/58 15/26/59
f 15/26/60 17/25/61 18/27/62
f 15/28/63 18/29/64 13/30/65
f 13/30/66 18/29/67 19/31/68
f 13/32/69 19/33/70 14/22/71
f 14/22/72 19/33/73 20/34/74
f 21/35/75 22/36/76 23/37/77
f 21/35/75 23/37/77 24/38/78
f 20/34/79 21/35/80 24/38/81
f 20/34/79 24/38/81 14/22/82
f 23/37/83 16/24/84 14/22/85
f 23/37/83 14/22/85 24/38/86
f 22/36/87 17/25/88 16/24/89
f 22/36/87 16/24/89 23/37/90
f 21/35/91 20/34/92 17/25/93
f 21/35/91 17/25/93 22/36/94
f 18/39/95 17/25/96 19/40/97
f 19/40/98 17/25/99 20/34/100
f 25/41/101 26/42/102 27/43/103
f 27/43/104 26/42/105 28/44/106
f 29/45/107 27/43/108 28/44/109
f 29/45/107 28/44/109 30/46/110
f 31/47/111 29/45/112 30/46/113
f 31/47/111 30/46/113 32/48/114
f 33/49/115 31/47/116 32/48/117
f 33/49/115 32/48/117 34/50/118
f 35/51/119 33/49/120 34/50/121
f 35/51/119 34/50/121 36/52/122
f 37/53/123 35/51/124 36/52/125
f 37/53/123 36/52/125 38/54/126
f 39/55/127 37/53/128 38/54/129
f 39/55/127 38/54/129 40/56/130
f 40/56/131 41/57/132 42/58/133
f 40/56/131 42/58/133 39/55/134
f 43/59/135 42/58/136 41/57/137
f 43/59/135 41/57/137 44/60/138
f 45/61/139 43/59/140 44/60/141
f 45/61/139 44/60/141 46/62/142
f 47/63/143 45/61/144 46/62/145
f 47/63/143 46/62/145 48/64/146
f 49/65/147 47/63/148 48/64/149
f 49/65/147 48/64/149 50/66/150
f 51/67/151 49/65/152 50/66/153
f 51/67/151 50/66/153 52/68/154
f 53/69/155 51/67/156 52/68/157
f 53/69/155 52/68/157 54/70/158
f 55/71/159 53/69/160 54/70/161
f 55/71/159 54/70/161 56/72/162
f 57/73/163 55/71/164 58/74/165
f 58/74/166 55/71/167 56/72/168
f 59/75/169 58/74/170 56/72/171
f 59/75/169 56/72/171 60/76/172
f 61/77/173 62/78/174 63/79/175
f 63/79/176 62/78/177 64/80/178
f 63/79/179 64/80/180 60/81/181
f 60/81/182 64/80/183 65/82/184
f 60/81/185 65/82/186 59/83/187
f 25/41/188 66/84/189 61/85/190
f 61/85/191 63/86/192 26/42/193
f 61/85/194 26/42/195 25/41/196
f 67/87/197 68/88/198 69/89/199
f 67/87/197 69/89/199 70/90/200
f 67/87/201 71/91/202 72/92/203
f 67/87/201 72/92/203 68/88/204
f 68/88/205 72/93/206 73/94/207
f 74/95/208 69/89/209 68/88/210
f 74/95/208 68/88/210 73/94/211
f 75/96/212 69/89/213 74/95/214
f 76/97/215 70/90/216 69/89/217
f 76/97/215 69/89/217 75/98/218
f 75/98/219 77/99/220 76/97/221
f 76/97/222 77/99/223 78/100/224
f 79/101/225 80/102/226 81/103/227
f 81/103/228 80/102/229 82/104/230
f 71/91/231 81/103/232 72/92/233
f 72/92/234 81/103/235 82/104/236
f 72/93/237 82/105/238 73/94/239
f 73/94/240 82/105/241 83/106/242
f 82/105/243 80/107/244 83/106/245
f 84/108/246 85/109/247 83/110/248
f 84/108/246 83/110/248 80/111/249
f 73/94/250 83/110/251 85/109/252
f 73/94/250 85/109/252 74/95/253
f 77/112/254 75/96/255 74/95/256
f 85/113/257 77/112/258 74/95/259
f 84/114/260 77/112/261 85/113/262
f 78/100/263 77/99/264 86/115/265
f 86/115/266 77/99/267 84/116/268
f 80/111/269 79/117/270 87/118/271
f 87/118/272 79/117/273 57/119/274
f 87/118/275 88/120/276 80/111/277
f 80/111/278 88/120/279 89/121/280
f 80/111/281 89/121/282 84/108/283
f 84/108/284 89/121/285 90/122/286
f 66/123/287 86/124/288 91/125/289
f 91/125/290 86/124/291 84/108/292
f 91/125/293 84/108/294 92/126/295
f 92/126/296 84/108/297 90/122/298
f 25/127/299 27/128/300 86/129/301
f 25/127/299 86/129/301 66/130/302
f 53/131/303 55/132/304 57/133/305
f 53/131/303 57/133/305 79/134/306
f 79/134/307 81/135/308 53/131/309
f 86/129/310 27/128/311 78/136/312
f 27/128/313 29/137/314 78/136/315
f 53/131/316 81/135/317 51/138/318
f 29/137/319 31/139/320 78/136/321
f 78/136/322 31/139/323 76/140/324
f 31/139/325 33/141/326 76/140/327
f 33/141/328 35/142/329 76/140/330
f 35/142/331 37/53/332 76/140/333
f 76/140/334 37/53/335 70/143/336
f 37/53/337 39/55/338 70/143/339
f 67/144/340 70/143/341 39/55/342
f 67/144/340 39/55/342 42/58/343
f 42/58/344 43/59/345 67/144/346
f 67/144/347 43/59/348 71/145/349
f 43/59/350 45/146/351 71/145/352
f 45/146/353 47/147/354 71/145/355
f 71/145/356 47/147/357 81/135/358
f 47/147/359 49/148/360 81/135/361
f 49/148/362 51/138/363 81/135/364
f 57/149/365 58/150/366 93/151/367
f 57/149/365 93/151/367 94/152/368
f 58/150/369 59/153/370 95/154/371
f 58/150/369 95/154/371 93/151/372
f 59/153/373 65/155/374 96/156/375
f 59/153/373 96/156/375 95/154/376
f 65/155/377 64/157/378 97/158/379
f 65/155/377 97/158/379 96/156/380
f 64/157/381 62/159/382 98/160/383
f 64/157/381 98/160/383 97/158/384
f 62/159/385 61/161/386 99/162/387
f 62/159/385 99/162/387 98/160/388
f 61/161/389 66/163/390 100/164/391
f 61/161/389 100/164/391 99/162/392
f 66/163/393 91/165/394 101/166/395
f 66/163/393 101/166/395 100/164/396
f 91/165/397 92/167/398 102/168/399
f 91/165/397 102/168/399 101/166/400
f 92/167/401 90/169/402 103/170/403
f 92/167/401 103/170/403 102/168/404
f 90/171/405 89/172/406 104/173/407
f 90/171/405 104/173/407 103/174/408
f 89/172/409 88/175/410 105/176/411
f 89/172/409 105/176/411 104/173/412
f 88/175/413 87/177/414 106/178/415
f 88/175/413 106/178/415 105/176/416
f 87/177/417 57/149/418 94/152/419
f 87/177/417 94/152/419 106/178/420
f 107/179/421 108/180/422 109/181/423
f 107/179/421 109/181/423 110/182/424
f 110/182/425 109/181/426 111/183/427
f 110/182/425 111/183/427 112/184/428
f 112/184/429 111/183/430 113/185/431
f 112/184/429 113/185/431 114/186/432
f 114/186/433 113/185/434 115/187/435
f 114/186/433 115/187/435 116/188/436
f 116/188/437 115/187/438 117/189/439
f 116/188/437 117/189/439 118/190/440
f 118/190/441 117/189/442 119/191/443
f 118/190/441 119/191/443 120/192/444
f 120/192/445 119/191/446 121/193/447
f 120/192/445 121/193/447 122/194/448
f 122/194/449 121/193/450 123/195/451
f 122/194/449 123/195/451 124/196/452
f 124/196/453 123/195/454 125/197/455
f 124/196/453 125/197/455 126/198/456
f 126/198/457 125/197/458 127/199/459
f 126/198/457 127/199/459 128/200/460
f 128/200/461 127/199/462 129/201/463
f 128/200/461 129/201/463 130/202/464
f 130/202/465 129/201/466 131/203/467
f 130/202/465 131/203/467 132/204/468
f 132/204/469 131/203/470 133/205/471
f 132/204/469 133/205/471 134/206/472
f 134/206/473 133/205/474 135/207/475
f 134/206/473 135/207/475 136/208/476
f 136/208/477 135/207/478 137/209/479
f 136/208/477 137/209/479 138/210/480
f 138/210/481 137/209/482 139/211/483
f 138/210/481 139/211/483 140/212/484
f 140/212/485 139/211/486 141/213/487
f 140/212/485 141/213/487 142/214/488
f 142/214/489 141/213/490 143/215/491
f 142/214/489 143/215/491 144/216/492
f 144/216/493 143/215/494 145/217/495
f 144/216/493 145/217/495 146/218/496
f 146/219/497 145/220/498 108/180/499
f 146/219/497 108/180/499 107/179/500
f 108/221/501 147/222/502 109/223/503
f 109/223/504 147/222/505 111/224/506
f 111/224/507 147/222/508 113/225/509
f 113/225/510 147/222/511 115/226/512
f 115/226/513 147/222/514 117/227/515
f 117/227/516 147/222/517 119/228/518
f 119/228/519 147/222/520 121/229/521
f 121/229/522 147/222/523 123/230/524
f 123/230/525 147/222/526 125/231/527
f 125/231/528 147/222/529 127/232/530
f 127/232/531 147/222/532 129/233/533
f 129/233/534 147/222/535 131/234/536
f 131/234/537 147/222/538 133/235/539
f 133/235/540 147/222/541 135/236/542
f 135/236/543 147/222/544 137/237/545
f 137/237/546 147/222/547 139/238/548
f 139/238/549 147/222/550 141/239/551
f 141/239/552 147/222/553 143/240/554
f 143/240/555 147/222/556 145/241/557
f 145/241/558 147/222/559 108/221/560
f 148/242/561 149/243/562 150/244/563
f 148/242/561 150/244/563 151/245/564
f 151/245/565 150/244/566 152/246/567
f 151/245/565 152/246/567 153/247/568
f 153/247/569 152/246/570 154/248/571
f 153/247/569 154/248/571 155/249/572
f 155/249/573 154/248/574 156/250/575
f 155/249/573 156/250/575 157/251/576
f 157/251/577 156/250/578 158/252/579
f 157/251/577 158/252/579 159/253/580
f 159/253/581 158/252/582 160/254/583
f 159/253/581 160/254/583 161/255/584
f 161/255/585 160/254/586 162/256/587
f 161/255/585 162/256/587 163/257/588
f 163/257/589 162/256/590 164/258/591
f 163/257/589 164/258/591 165/259/592
f 165/259/593 164/258/594 166/260/595
f 165/259/593 166/260/595 167/261/596
f 167/261/597 166/260/598 168/262/599
f 167/261/597 168/262/599 169/263/600
f 169/263/601 168/262/602 170/264/603
f 169/263/601 170/264/603 171/265/604
f 171/265/605 170/264/606 172/266/607
f 171/265/605 172/266/607 173/267/608
f 173/267/609 172/266/610 174/268/611
f 173/267/609 174/268/611 175/269/612
f 175/269/613 174/268/614 176/270/615
f 175/269/613 176/270/615 177/271/616
f 177/271/617 176/270/618 178/272/619
f 177/271/617 178/272/619 179/273/620
f 179/273/621 178/272/622 180/274/623
f 179/273/621 180/274/623 181/275/624
f 181/275/625 180/274/626 182/276/627
f 181/275/625 182/276/627 183/277/628
f 183/277/629 182/276/630 184/278/631
f 183/277/629 184/278/631 185/279/632
f 185/279/633 184/278/634 186/280/635
f 185/279/633 186/280/635 187/281/636
f 187/282/637 186/283/638 149/243/639
f 187/282/637 149/243/639 148/242/640
f 149/284/641 188/285/642 150/286/643
f 150/286/644 188/285/645 152/287/646
f 152/287/647 188/285/648 154/288/649
f 154/288/650 188/285/651 156/289/652
f 156/289/653 188/285/654 158/290/655
f 158/290/656 188/285/657 160/291/658
f 160/291/659 188/285/660 162/292/661
f 162/292/662 188/285/663 164/293/664
f 164/293/665 188/285/666 166/294/667
f 166/294/668 188/285/669 168/295/670
f 168/295/671 188/285/672 170/296/673
f 170/296/674 188/285/675 172/297/676
f 172/297/677 188/285/678 174/298/679
f 174/298/680 188/285/681 176/299/682
f 176/299/683 188/285/684 178/300/685
f 178/300/686 188/285/687 180/301/688
f 180/301/689 188/285/690 182/302/691
f 182/302/692 188/285/693 184/303/694
f 184/303/695 188/285/696 186/304/697
f 186/304/698 188/285/699 149/284/700
f 136/305/701 138/306/702 155/307/703
f 136/305/701 155/307/703 157/308/704
f 40/56/705 38/54/706 187/309/707
f 40/56/705 187/309/707 148/310/708
f 44/60/709 41/57/710 144/311/711
f 44/60/709 144/311/711 146/312/712
f 146/312/713 107/313/714 44/60/715
f 187/309/716 38/54/717 185/314/718
f 44/60/719 107/313/720 46/315/721
f 107/313/722 110/316/723 46/315/724
f 110/316/725 112/317/726 46/315/727
f 46/315/728 112/317/729 48/318/730
f 112/317/731 114/319/732 48/318/733
f 38/54/734 36/320/735 185/314/736
f 185/314/737 36/320/738 183/321/739
f 183/321/740 36/320/741 181/322/742
f 36/320/743 34/323/744 181/322/745
f 181/322/746 34/323/747 179/324/748
f 48/318/749 114/319/750 50/325/751
f 114/319/752 116/326/753 50/325/754
f 116/326/755 118/327/756 50/325/757
f 50/325/758 118/327/759 52/328/760
f 118/327/761 120/329/762 52/328/763
f 120/329/764 122/330/765 52/328/766
f 52/328/767 122/330/768 54/331/769
f 122/330/770 124/332/771 54/331/772
f 54/331/773 124/332/774 56/333/775
f 124/332/776 126/334/777 56/333/778
f 126/334/779 128/335/780 56/333/781
f 56/333/782 128/335/783 60/81/784
f 128/335/785 130/336/786 60/81/787
f 130/336/788 132/337/789 60/81/790
f 179/324/791 34/323/792 177/338/793
f 34/323/794 32/339/795 177/338/796
f 177/338/797 32/339/798 175/340/799
f 32/339/800 30/341/801 175/340/802
f 175/340/803 30/341/804 173/342/805
f 173/342/806 30/341/807 171/343/808
f 30/341/809 28/344/810 171/343/811
f 171/343/812 28/344/813 169/345/814
f 28/344/815 26/346/816 169/345/817
f 169/345/818 26/346/819 167/347/820
f 167/347/821 26/346/822 165/348/823
f 26/346/824 63/79/825 165/348/826
f 165/348/827 63/79/828 163/349/829
f 163/349/830 63/79/831 161/350/832
f 136/305/833 157/308/834 134/351/835
f 157/308/836 159/352/837 134/351/838
f 63/79/839 60/81/840 161/350/841
f 161/350/842 60/81/843 159/352/844
f 60/81/845 132/337/846 159/352/847
f 132/337/848 134/351/849 159/352/850
f 40/56/851 148/310/852 41/57/853
f 148/310/854 151/353/855 41/57/856
f 151/353/857 153/354/858 41/57/859
f 153/354/860 155/307/861 41/57/862
f 41/57/863 155/307/864 144/311/865
f 144/311/866 155/307/867 142/355/868
f 142/355/869 155/307/870 140/356/871
f 155/307/872 138/306/873 140/356/874
