# mat_beni : 248 faces from |P0_WorldSim_Robot|base_link|VIS_base_link_00_BASE_VIS
# source world space, unit scale 0.01
v 0.068141 0.104597 0.023067
v 0.065225 0.104597 0.023067
v 0.065225 0.103369 0.020656
v 0.068141 0.103369 0.020656
v 0.065225 0.101455 0.018742
v 0.068141 0.101455 0.018742
v 0.065225 0.099043 0.017513
v 0.068141 0.099043 0.017513
v 0.065225 0.096370 0.017090
v 0.068141 0.096370 0.017090
v 0.065225 0.093697 0.017513
v 0.068141 0.093697 0.017513
v 0.065225 0.091285 0.018742
v 0.068141 0.091285 0.018742
v 0.065225 0.089371 0.020656
v 0.068141 0.089371 0.020656
v 0.065225 0.088142 0.023067
v 0.068141 0.088142 0.023067
v 0.065225 0.087719 0.025741
v 0.068141 0.087719 0.025741
v 0.065225 0.088142 0.028414
v 0.068141 0.088142 0.028414
v 0.065225 0.089371 0.030826
v 0.068141 0.089371 0.030826
v 0.065225 0.091285 0.032740
v 0.068141 0.091285 0.032740
v 0.065225 0.093697 0.033968
v 0.068141 0.093697 0.033968
v 0.065225 0.096370 0.034391
v 0.068141 0.096370 0.034391
v 0.065225 0.099043 0.033968
v 0.068141 0.099043 0.033968
v 0.065225 0.101455 0.032740
v 0.068141 0.101455 0.032740
v 0.065225 0.103369 0.030826
v 0.068141 0.103369 0.030826
v 0.065225 0.104597 0.028414
v 0.068141 0.104597 0.028414
v 0.065225 0.105021 0.025741
v 0.068141 0.105021 0.025741
v 0.065225 0.096370 0.025741
v 0.068141 0.104597 -0.028667
v 0.065225 0.104597 -0.028667
v 0.065225 0.103369 -0.031079
v 0.068141 0.103369 -0.031079
v 0.065225 0.101455 -0.032993
v 0.068141 0.101455 -0.032993
v 0.065225 0.099043 -0.034222
v 0.068141 0.099043 -0.034222
v 0.065225 0.096370 -0.034645
v 0.068141 0.096370 -0.034645
v 0.065225 0.093697 -0.034222
v 0.068141 0.093697 -0.034222
v 0.065225 0.091285 -0.032993
v 0.068141 0.091285 -0.032993
v 0.065225 0.089371 -0.031079
v 0.068141 0.089371 -0.031079
v 0.065225 0.088142 -0.028667
v 0.068141 0.088142 -0.028667
v 0.065225 0.087719 -0.025994
v 0.068141 0.087719 -0.025994
v 0.065225 0.088142 -0.023321
v 0.068141 0.088142 -0.023321
v 0.065225 0.089371 -0.020909
v 0.068141 0.089371 -0.020909
v 0.065225 0.091285 -0.018995
v 0.068141 0.091285 -0.018995
v 0.065225 0.093697 -0.017767
v 0.068141 0.093697 -0.017767
v 0.065225 0.096370 -0.017344
v 0.068141 0.096370 -0.017344
v 0.065225 0.099043 -0.017767
v 0.068141 0.099043 -0.017767
v 0.065225 0.101455 -0.018995
v 0.068141 0.101455 -0.018995
v 0.065225 0.103369 -0.020909
v 0.068141 0.103369 -0.020909
v 0.065225 0.104597 -0.023321
v 0.068141 0.104597 -0.023321
v 0.065225 0.105021 -0.025994
v 0.068141 0.105021 -0.025994
v 0.065225 0.096370 -0.025994
v -0.055000 0.128000 0.039315
v -0.040000 0.148676 0.027029
v -0.082500 0.129800 0.026006
v -0.069337 0.084000 0.027439
v -0.041837 0.084000 0.039315
v 0.038221 0.128000 0.039315
v 0.038221 0.084000 0.039315
v 0.062222 0.090582 0.036052
v 0.050409 0.089719 0.033076
v 0.062222 0.085282 0.027029
v 0.062222 0.102128 0.036052
v 0.050409 0.102990 0.033076
v 0.062222 0.107428 0.027029
v 0.062222 0.128000 0.027029
v 0.062222 0.084000 0.027029
v 0.029222 0.148676 0.027029
v 0.029222 0.148676 -0.027029
v -0.040000 0.148676 -0.027029
v -0.082500 0.129800 -0.026006
v -0.069337 0.084000 -0.027439
v -0.055000 0.128000 -0.039315
v -0.041837 0.084000 -0.039315
v -0.040000 0.071050 0.027029
v -0.040000 0.071050 -0.027029
v 0.029222 0.071050 0.027029
v 0.029222 0.071050 -0.027029
v 0.062222 0.084000 -0.027029
v 0.038221 0.084000 -0.039315
v 0.062222 0.085282 -0.027029
v 0.050409 0.089719 -0.033076
v 0.050409 0.102990 -0.033076
v 0.038221 0.128000 -0.039315
v 0.062222 0.107428 -0.027029
v 0.062222 0.128000 -0.027029
v 0.062222 0.102128 -0.036052
v 0.062222 0.090582 -0.036052
v 0.068141 0.090582 -0.036052
v 0.068141 0.085282 -0.027029
v 0.068141 0.102128 -0.036052
v 0.068141 0.107428 -0.027029
v 0.068141 0.102128 0.036052
v 0.068141 0.107428 0.027029
v 0.068141 0.090582 0.036052
v 0.068141 0.085282 0.027029
vt 0.625253 0.842827
vt 0.624581 0.839038
vt 0.628458 0.837866
vt 0.630304 0.841062
vt 0.631600 0.835661
vt 0.634678 0.838179
vt 0.633711 0.832555
vt 0.637285 0.834054
vt 0.634812 0.829102
vt 0.638790 0.829408
vt 0.634759 0.825645
vt 0.638848 0.824638
vt 0.633494 0.822482
vt 0.636982 0.820252
vt 0.631545 0.819799
vt 0.634431 0.816702
vt 0.629002 0.817730
vt 0.631282 0.814407
vt 0.625902 0.816275
vt 0.627745 0.813609
vt 0.622479 0.815470
vt 0.623106 0.811867
vt 0.618991 0.815531
vt 0.618542 0.811562
vt 0.615746 0.816607
vt 0.614236 0.812348
vt 0.613039 0.818969
vt 0.610494 0.815408
vt 0.611105 0.822276
vt 0.607816 0.819794
vt 0.610312 0.826209
vt 0.606340 0.824841
vt 0.610991 0.830395
vt 0.606989 0.830655
vt 0.613143 0.834325
vt 0.610065 0.836138
vt 0.616408 0.837430
vt 0.614369 0.840747
vt 0.620419 0.839060
vt 0.620035 0.843311
vt 0.944971 0.746553
vt 0.945067 0.734952
vt 0.949010 0.746242
vt 0.952552 0.744764
vt 0.955282 0.742185
vt 0.957099 0.739048
vt 0.957790 0.735661
vt 0.957235 0.732300
vt 0.955908 0.729261
vt 0.953869 0.726694
vt 0.951155 0.724606
vt 0.947985 0.723084
vt 0.944566 0.722394
vt 0.941165 0.722747
vt 0.938014 0.724472
vt 0.935413 0.727286
vt 0.933794 0.730956
vt 0.933557 0.735191
vt 0.934814 0.739491
vt 0.937335 0.743225
vt 0.940902 0.745680
vt 0.716094 0.841540
vt 0.714708 0.837835
vt 0.717706 0.834444
vt 0.720500 0.836765
vt 0.719570 0.830384
vt 0.723608 0.831198
vt 0.719956 0.826166
vt 0.724257 0.825401
vt 0.718952 0.822274
vt 0.722724 0.820356
vt 0.716968 0.819021
vt 0.720066 0.815973
vt 0.714195 0.816863
vt 0.716416 0.812863
vt 0.710913 0.815992
vt 0.712141 0.812216
vt 0.707512 0.816108
vt 0.707665 0.812606
vt 0.704273 0.817240
vt 0.702920 0.814376
vt 0.701337 0.818570
vt 0.699033 0.815082
vt 0.698801 0.820464
vt 0.695949 0.817132
vt 0.696958 0.823106
vt 0.693607 0.820492
vt 0.696052 0.826346
vt 0.692229 0.824811
vt 0.696205 0.829924
vt 0.692284 0.829552
vt 0.697435 0.833456
vt 0.693611 0.834285
vt 0.699808 0.836508
vt 0.696422 0.838448
vt 0.703095 0.838733
vt 0.700529 0.841633
vt 0.706928 0.839969
vt 0.705377 0.843598
vt 0.710908 0.839854
vt 0.710142 0.844241
vt 0.070960 0.630682
vt 0.066855 0.620130
vt 0.074616 0.628015
vt 0.077310 0.624451
vt 0.078593 0.620414
vt 0.078450 0.616397
vt 0.077212 0.612794
vt 0.074968 0.610090
vt 0.071950 0.608534
vt 0.068603 0.607916
vt 0.065196 0.608325
vt 0.062043 0.608993
vt 0.059159 0.610298
vt 0.056792 0.612481
vt 0.055210 0.615451
vt 0.054590 0.618978
vt 0.055032 0.622692
vt 0.056693 0.626183
vt 0.059425 0.629063
vt 0.062903 0.631093
vt 0.066814 0.631837
vt 0.651625 0.304460
vt 0.704681 0.276171
vt 0.659533 0.367929
vt 0.557132 0.341256
vt 0.560418 0.277802
vt 0.652983 0.112468
vt 0.562035 0.111973
vt 0.581964 0.855295
vt 0.579547 0.874527
vt 0.564715 0.858679
vt 0.600470 0.854110
vt 0.600827 0.874409
vt 0.617244 0.856371
vt 0.612426 0.055036
vt 0.657460 0.056660
vt 0.600519 0.082787
vt 0.571659 0.082546
vt 0.558292 0.055755
vt 0.555490 0.056084
vt 0.704681 0.128577
vt 0.817993 0.127897
vt 0.817993 0.275519
vt 0.817993 0.373214
vt 0.817993 0.473301
vt 0.704681 0.473977
vt 0.704681 0.373852
vt 0.868141 0.304752
vt 0.858681 0.367867
vt 0.959534 0.279177
vt 0.961951 0.342885
vt 0.704681 0.541337
vt 0.817993 0.540671
vt 0.523401 0.276712
vt 0.523445 0.127552
vt 0.704681 0.686750
vt 0.817993 0.686084
vt 0.704681 0.761220
vt 0.817993 0.760554
vt 0.968069 0.058608
vt 0.997364 0.129771
vt 0.959760 0.113773
vt 0.965374 0.058233
vt 0.951308 0.084822
vt 0.921566 0.083497
vt 0.868747 0.112422
vt 0.910871 0.055117
vt 0.865598 0.056385
vt 0.729472 0.874385
vt 0.712429 0.857864
vt 0.729488 0.854259
vt 0.748040 0.854664
vt 0.750730 0.874055
vt 0.765059 0.857098
vt 0.817993 0.046096
vt 0.704681 0.046766
vt 0.817993 0.002881
vt 0.704681 0.003550
vt 0.997322 0.278263
vt 0.817993 0.763247
vt 0.704681 0.763913
vt 0.749621 0.845150
vt 0.766302 0.847805
vt 0.729467 0.845011
vt 0.713665 0.847992
vt 0.598954 0.844600
vt 0.616073 0.846724
vt 0.579578 0.846517
vt 0.564049 0.849016
vt 0.476232 0.862081
vt 0.475963 0.852399
vt 0.600798 0.828640
vt 0.729485 0.829352
vt 0.609974 0.808570
vt 0.627421 0.809672
vt 0.703033 0.810813
vt 0.720077 0.809208
vn -0.000000 -0.951055 0.309022
vn -0.000000 -0.951055 0.309022
vn -0.000000 -0.809046 0.587745
vn -0.000000 -0.809046 0.587745
vn -0.000000 -0.809046 0.587745
vn -0.000000 -0.809046 0.587745
vn -0.000000 -0.587758 0.809036
vn -0.000000 -0.587758 0.809036
vn -0.000000 -0.587758 0.809036
vn -0.000000 -0.587758 0.809036
vn -0.000000 -0.308941 0.951081
vn -0.000000 -0.308941 0.951081
vn -0.000000 -0.308941 0.951081
vn -0.000000 -0.308941 0.951081
vn 0.000000 0.000000 1.000000
vn -0.000000 -0.000000 1.000000
vn -0.000000 -0.000000 1.000000
vn 0.000000 0.000000 1.000000
vn 0.000000 0.308947 0.951079
vn 0.000000 0.308947 0.951079
vn 0.000000 0.308947 0.951079
vn 0.000000 0.308947 0.951079
vn 0.000000 0.587748 0.809044
vn 0.000000 0.587748 0.809044
vn 0.000000 0.587748 0.809044
vn 0.000000 0.587748 0.809044
vn 0.000000 0.809037 0.587758
vn 0.000000 0.809037 0.587758
vn 0.000000 0.809037 0.587758
vn 0.000000 0.809037 0.587758
vn 0.000000 0.951055 0.309022
vn 0.000000 0.951055 0.309022
vn 0.000000 0.951055 0.309022
vn 0.000000 0.951055 0.309022
vn 0.000000 1.000000 0.000000
vn 0.000000 1.000000 0.000000
vn 0.000000 1.000000 0.000000
vn 0.000000 1.000000 0.000000
vn 0.000000 0.951055 -0.309022
vn 0.000000 0.951055 -0.309022
vn 0.000000 0.951055 -0.309022
vn 0.000000 0.951055 -0.309022
vn 0.000000 0.809025 -0.587774
vn 0.000000 0.809025 -0.587774
vn 0.000000 0.809025 -0.587774
vn 0.000000 0.809025 -0.587774
vn 0.000000 0.587737 -0.809052
vn 0.000000 0.587737 -0.809052
vn 0.000000 0.587737 -0.809052
vn 0.000000 0.587737 -0.809052
vn 0.000000 0.308954 -0.951077
vn 0.000000 0.308954 -0.951077
vn 0.000000 0.308954 -0.951077
vn 0.000000 0.308954 -0.951077
vn 0.000000 0.000000 -1.000000
vn -0.000000 -0.000000 -1.000000
vn -0.000000 -0.000000 -1.000000
vn 0.000000 0.000000 -1.000000
vn -0.000000 -0.308941 -0.951081
vn -0.000000 -0.308941 -0.951081
vn -0.000000 -0.308941 -0.951081
vn -0.000000 -0.308941 -0.951081
vn -0.000000 -0.587758 -0.809036
vn -0.000000 -0.587758 -0.809036
vn -0.000000 -0.587758 -0.809036
vn -0.000000 -0.587758 -0.809036
vn -0.000000 -0.809046 -0.587745
vn -0.000000 -0.809046 -0.587745
vn -0.000000 -0.809046 -0.587745
vn -0.000000 -0.809046 -0.587745
vn -0.000000 -0.951055 -0.309022
vn -0.000000 -0.951055 -0.309022
vn -0.000000 -0.951055 -0.309022
vn -0.000000 -0.951055 -0.309022
vn -0.000000 -1.000000 -0.000000
vn -0.000000 -1.000000 -0.000000
vn -0.000000 -1.000000 -0.000000
vn -0.000000 -1.000000 -0.000000
vn -0.000000 -0.951055 0.309022
vn -0.000000 -0.951055 0.309022
vn 1.000000 -0.000000 0.000000
vn 1.000000 -0.000001 -0.000000
vn 1.000000 -0.000000 0.000000
vn 1.000000 -0.000000 0.000000
vn 1.000000 -0.000001 -0.000000
vn 1.000000 -0.000000 -0.000001
vn 1.000000 -0.000000 -0.000001
vn 1.000000 -0.000001 -0.000000
vn 1.000000 -0.000000 -0.000001
vn 1.000000 -0.000000 -0.000001
vn 1.000000 -0.000001 -0.000000
vn 1.000000 -0.000002 -0.000000
vn 1.000000 -0.000002 -0.000000
vn 1.000000 -0.000001 -0.000000
vn 1.000000 -0.000002 0.000001
vn 1.000000 -0.000002 0.000001
vn 1.000000 -0.000001 -0.000000
vn 1.000000 -0.000001 0.000001
vn 1.000000 -0.000001 0.000001
vn 1.000000 -0.000001 -0.000000
vn 1.000000 -0.000001 -0.000000
vn 1.000000 -0.000001 -0.000000
vn 1.000000 -0.000001 -0.000000
vn 1.000000 -0.000001 -0.000000
vn 1.000000 -0.000001 -0.000000
vn 1.000000 -0.000001 -0.000000
vn 1.000000 -0.000001 -0.000000
vn 1.000000 -0.000001 -0.000000
vn 1.000000 -0.000001 -0.000000
vn 1.000000 -0.000001 0.000000
vn 1.000000 -0.000001 0.000000
vn 1.000000 -0.000001 -0.000000
vn 1.000000 -0.000001 -0.000001
vn 1.000000 -0.000001 -0.000001
vn 1.000000 -0.000001 -0.000000
vn 1.000000 -0.000001 -0.000001
vn 1.000000 -0.000001 -0.000001
vn 1.000000 -0.000001 -0.000000
vn 1.000000 -0.000002 0.000001
vn 1.000000 -0.000002 0.000001
vn 1.000000 -0.000001 -0.000000
vn 1.000000 -0.000002 -0.000000
vn 1.000000 -0.000002 -0.000000
vn 1.000000 -0.000001 -0.000000
vn 1.000000 -0.000000 0.000001
vn 1.000000 -0.000000 0.000001
vn 1.000000 -0.000001 -0.000000
vn 1.000000 -0.000000 0.000001
vn 1.000000 -0.000000 0.000001
vn 1.000000 -0.000001 -0.000000
vn 1.000000 -0.000000 -0.000000
vn 1.000000 -0.000000 -0.000000
vn 1.000000 -0.000001 -0.000000
vn 1.000000 -0.000000 -0.000000
vn 1.000000 -0.000000 -0.000000
vn 1.000000 -0.000001 -0.000000
vn 1.000000 -0.000000 -0.000000
vn 1.000000 -0.000000 -0.000000
vn 1.000000 -0.000001 -0.000000
vn 1.000000 -0.000000 0.000000
vn -0.000000 -0.951055 0.309021
vn -0.000000 -0.951055 0.309021
vn -0.000000 -0.809046 0.587745
vn -0.000000 -0.809046 0.587745
vn -0.000000 -0.809046 0.587745
vn -0.000000 -0.809046 0.587745
vn -0.000000 -0.587758 0.809036
vn -0.000000 -0.587758 0.809036
vn -0.000000 -0.587758 0.809036
vn -0.000000 -0.587758 0.809036
vn -0.000000 -0.308941 0.951081
vn -0.000000 -0.308941 0.951081
vn -0.000000 -0.308941 0.951081
vn -0.000000 -0.308941 0.951081
vn 0.000000 0.000000 1.000000
vn -0.000000 -0.000000 1.000000
vn -0.000000 -0.000000 1.000000
vn 0.000000 0.000000 1.000000
vn 0.000000 0.308954 0.951077
vn 0.000000 0.308954 0.951077
vn 0.000000 0.308954 0.951077
vn 0.000000 0.308954 0.951077
vn 0.000000 0.587737 0.809052
vn 0.000000 0.587737 0.809052
vn 0.000000 0.587737 0.809052
vn 0.000000 0.587737 0.809052
vn 0.000000 0.809025 0.587774
vn 0.000000 0.809025 0.587774
vn 0.000000 0.809025 0.587774
vn 0.000000 0.809025 0.587774
vn 0.000000 0.951055 0.309021
vn 0.000000 0.951055 0.309021
vn 0.000000 0.951055 0.309021
vn 0.000000 0.951055 0.309021
vn 0.000000 1.000000 0.000000
vn 0.000000 1.000000 0.000000
vn 0.000000 1.000000 0.000000
vn 0.000000 1.000000 0.000000
vn 0.000000 0.951055 -0.309022
vn 0.000000 0.951055 -0.309022
vn 0.000000 0.951055 -0.309022
vn 0.000000 0.951055 -0.309022
vn 0.000000 0.809036 -0.587758
vn 0.000000 0.809036 -0.587758
vn 0.000000 0.809036 -0.587758
vn 0.000000 0.809036 -0.587758
vn 0.000000 0.587748 -0.809044
vn 0.000000 0.587748 -0.809044
vn 0.000000 0.587748 -0.809044
vn 0.000000 0.587748 -0.809044
vn 0.000000 0.308941 -0.951081
vn 0.000000 0.308941 -0.951081
vn 0.000000 0.308941 -0.951081
vn 0.000000 0.308941 -0.951081
vn 0.000000 0.000000 -1.000000
vn -0.000000 -0.000000 -1.000000
vn -0.000000 -0.000000 -1.000000
vn 0.000000 0.000000 -1.000000
vn -0.000000 -0.308947 -0.951079
vn -0.000000 -0.308947 -0.951079
vn -0.000000 -0.308947 -0.951079
vn -0.000000 -0.308947 -0.951079
vn -0.000000 -0.587758 -0.809037
vn -0.000000 -0.587758 -0.809037
vn -0.000000 -0.587758 -0.809037
vn -0.000000 -0.587758 -0.809037
vn -0.000000 -0.809046 -0.587745
vn -0.000000 -0.809046 -0.587745
vn -0.000000 -0.809046 -0.587745
vn -0.000000 -0.809046 -0.587745
vn -0.000000 -0.951055 -0.309022
vn -0.000000 -0.951055 -0.309022
vn -0.000000 -0.951055 -0.309022
vn -0.000000 -0.951055 -0.309022
vn -0.000000 -1.000000 -0.000000
vn -0.000000 -1.000000 -0.000000
vn -0.000000 -1.000000 -0.000000
vn -0.000000 -1.000000 -0.000000
vn -0.000000 -0.951055 0.309021
vn -0.000000 -0.951055 0.309021
vn 1.000000 -0.000000 0.000000
vn 1.000000 -0.000001 0.000000
vn 1.000000 -0.000000 0.000000
vn 1.000000 -0.000000 0.000000
vn 1.000000 -0.000001 0.000000
vn 1.000000 -0.000000 -0.000001
vn 1.000000 -0.000000 -0.000001
vn 1.000000 -0.000001 0.000000
vn 1.000000 -0.000000 -0.000001
vn 1.000000 -0.000000 -0.000001
vn 1.000000 -0.000001 0.000000
vn 1.000000 -0.000002 -0.000000
vn 1.000000 -0.000002 -0.000000
vn 1.000000 -0.000001 0.000000
vn 1.000000 -0.000002 -0.000001
vn 1.000000 -0.000002 -0.000001
vn 1.000000 -0.000001 0.000000
vn 1.000000 -0.000001 0.000001
vn 1.000000 -0.000001 0.000001
vn 1.000000 -0.000001 0.000000
vn 1.000000 -0.000001 0.000001
vn 1.000000 -0.000001 0.000001
vn 1.000000 -0.000001 0.000000
vn 1.000000 -0.000001 -0.000000
vn 1.000000 -0.000001 -0.000000
vn 1.000000 -0.000001 0.000000
vn 1.000000 -0.000001 -0.000000
vn 1.000000 -0.000001 -0.000000
vn 1.000000 -0.000001 0.000000
vn 1.000000 -0.000001 0.000000
vn 1.000000 -0.000001 0.000000
vn 1.000000 -0.000001 0.000000
vn 1.000000 -0.000001 -0.000000
vn 1.000000 -0.000001 -0.000000
vn 1.000000 -0.000001 0.000000
vn 1.000000 -0.000001 -0.000001
vn 1.000000 -0.000001 -0.000001
vn 1.000000 -0.000001 0.000000
vn 1.000000 -0.000002 -0.000001
vn 1.000000 -0.000002 -0.000001
vn 1.000000 -0.000001 0.000000
vn 1.000000 -0.000002 -0.000000
vn 1.000000 -0.000002 -0.000000
vn 1.000000 -0.000001 0.000000
vn 1.000000 -0.000000 0.000001
vn 1.000000 -0.000000 0.000001
vn 1.000000 -0.000001 0.000000
vn 1.000000 -0.000000 0.000001
vn 1.000000 -0.000000 0.000001
vn 1.000000 -0.000001 0.000000
vn 1.000000 -0.000000 -0.000000
vn 1.000000 -0.000000 -0.000000
vn 1.000000 -0.000001 0.000000
vn 1.000000 -0.000000 -0.000000
vn 1.000000 -0.000000 -0.000000
vn 1.000000 -0.000001 0.000000
vn 1.000000 -0.000000 -0.000000
vn 1.000000 -0.000000 -0.000000
vn 1.000000 -0.000001 0.000000
vn 1.000000 -0.000000 0.000000
vn 1.000000 -0.000000 -0.000000
vn 1.000000 -0.000000 -0.000000
vn 1.000000 -0.000000 -0.000000
vn 1.000000 -0.000000 -0.000000
vn -0.300833 0.638946 0.707989
vn -0.300833 0.638946 0.707989
vn -0.300833 0.638946 0.707989
vn -0.416833 -0.107792 0.902569
vn -0.416833 -0.107792 0.902569
vn -0.416833 -0.107792 0.902569
vn -0.416833 -0.107792 0.902569
vn -0.000000 -0.000000 1.000000
vn -0.000000 -0.000000 1.000000
vn -0.000000 -0.000000 1.000000
vn -0.000000 -0.000000 1.000000
vn -0.000000 -0.000000 1.000000
vn -0.000000 -0.000000 1.000000
vn -0.064464 -0.860451 0.505439
vn -0.064464 -0.860451 0.505439
vn -0.064464 -0.860451 0.505439
vn -0.244258 0.000000 0.969710
vn -0.244258 0.000000 0.969710
vn -0.244258 0.000000 0.969710
vn -0.244258 0.000000 0.969710
vn -0.244258 0.000000 0.969710
vn -0.244258 0.000000 0.969710
vn -0.064481 0.860450 0.505438
vn -0.064481 0.860450 0.505438
vn -0.064481 0.860450 0.505438
vn 0.455688 -0.000000 0.890140
vn 0.455688 -0.000000 0.890140
vn 0.455688 -0.000000 0.890140
vn 0.455682 0.000003 0.890142
vn 0.455682 0.000003 0.890142
vn 0.455682 0.000003 0.890142
vn 0.455677 -0.000000 0.890145
vn 0.455677 -0.000000 0.890145
vn 0.455677 -0.000000 0.890145
vn 0.455677 -0.000000 0.890145
vn 0.455677 -0.000000 0.890145
vn 0.455677 -0.000000 0.890145
vn 0.455683 -0.000016 0.890142
vn 0.455683 -0.000016 0.890142
vn 0.455683 -0.000016 0.890142
vn 0.455682 -0.000000 0.890143
vn 0.455682 -0.000000 0.890143
vn 0.455682 -0.000000 0.890143
vn 0.368519 0.588180 0.719888
vn 0.368519 0.588180 0.719888
vn 0.368519 0.588180 0.719888
vn 0.000000 0.510838 0.859677
vn 0.000000 0.510838 0.859677
vn 0.000000 0.510838 0.859677
vn 0.000000 0.510837 0.859677
vn 0.000000 0.510837 0.859677
vn 0.000000 0.510837 0.859677
vn 0.000000 1.000000 0.000000
vn 0.000000 1.000000 0.000000
vn 0.000000 1.000000 0.000000
vn 0.000000 1.000000 0.000000
vn -0.961096 -0.276213 -0.000000
vn -0.961096 -0.276213 -0.000000
vn -0.961096 -0.276213 -0.000000
vn -0.961096 -0.276213 -0.000000
vn -0.300833 0.638946 -0.707989
vn -0.300833 0.638946 -0.707988
vn -0.300833 0.638946 -0.707988
vn -0.416833 -0.107792 -0.902569
vn -0.416833 -0.107792 -0.902569
vn -0.416833 -0.107792 -0.902569
vn -0.416833 -0.107792 -0.902569
vn -0.403834 -0.914832 -0.000000
vn -0.403834 -0.914832 -0.000000
vn -0.403834 -0.914832 -0.000000
vn -0.403834 -0.914832 -0.000000
vn -0.290724 -0.679915 0.673198
vn -0.290724 -0.679915 0.673198
vn -0.290724 -0.679915 0.673198
vn -0.000000 -0.688264 0.725460
vn -0.000000 -0.688264 0.725460
vn -0.000000 -0.688264 0.725460
vn -0.000000 -0.688264 0.725461
vn -0.000000 -0.688264 0.725461
vn -0.000000 -0.688264 0.725460
vn 0.297359 -0.757739 0.580870
vn 0.297359 -0.757738 0.580870
vn 0.297359 -0.757738 0.580870
vn 0.365308 -0.930887 -0.000000
vn 0.365308 -0.930887 -0.000000
vn 0.365308 -0.930887 -0.000000
vn 0.365308 -0.930887 -0.000000
vn 0.365308 -0.930887 -0.000000
vn 0.365308 -0.930887 -0.000000
vn 0.297359 -0.757739 -0.580870
vn 0.297359 -0.757739 -0.580870
vn 0.297359 -0.757738 -0.580870
vn 0.455689 -0.000000 -0.890139
vn 0.455689 -0.000000 -0.890139
vn 0.455689 -0.000000 -0.890139
vn 0.455682 -0.000014 -0.890143
vn 0.455682 -0.000014 -0.890143
vn 0.455682 -0.000014 -0.890142
vn 0.455677 -0.000000 -0.890145
vn 0.455677 -0.000000 -0.890145
vn 0.455677 -0.000000 -0.890145
vn 0.455677 -0.000000 -0.890145
vn 0.455677 -0.000000 -0.890145
vn 0.455677 -0.000000 -0.890145
vn 0.455686 0.000005 -0.890140
vn 0.455686 0.000005 -0.890141
vn 0.455686 0.000005 -0.890140
vn 0.455682 -0.000000 -0.890143
vn 0.455682 -0.000000 -0.890143
vn 0.455682 -0.000000 -0.890142
vn -0.064481 0.860450 -0.505438
vn -0.064481 0.860450 -0.505438
vn -0.064481 0.860450 -0.505438
vn -0.244258 0.000000 -0.969710
vn -0.244258 0.000000 -0.969710
vn -0.244258 0.000000 -0.969710
vn -0.244258 -0.000000 -0.969710
vn -0.244258 -0.000000 -0.969710
vn -0.244258 -0.000000 -0.969710
vn -0.064464 -0.860451 -0.505439
vn -0.064464 -0.860451 -0.505439
vn -0.064464 -0.860451 -0.505439
vn 1.000000 -0.000000 -0.000000
vn 1.000000 -0.000000 -0.000000
vn 1.000000 -0.000000 -0.000000
vn 1.000000 -0.000000 -0.000000
vn 1.000000 -0.000000 -0.000000
vn 1.000000 -0.000000 -0.000000
vn 0.530938 0.847410 -0.000004
vn 0.530938 0.847410 -0.000004
vn 0.530939 0.847410 -0.000004
vn 0.530943 0.847408 0.000000
vn 0.530943 0.847408 0.000000
vn 0.530943 0.847408 0.000000
vn 0.368524 0.588180 -0.719885
vn 0.368524 0.588180 -0.719885
vn 0.368524 0.588180 -0.719885
vn 0.000000 0.510837 -0.859677
vn 0.000000 0.510837 -0.859677
vn 0.000000 0.510837 -0.859677
vn 0.000000 0.510838 -0.859677
vn 0.000000 0.510838 -0.859677
vn 0.000000 0.510838 -0.859677
vn 0.000000 0.000000 -1.000000
vn 0.000000 0.000000 -1.000000
vn 0.000000 0.000000 -1.000000
vn 0.000000 0.000000 -1.000000
vn 0.000000 0.000000 -1.000000
vn 0.000000 0.000000 -1.000000
vn -0.000000 -0.688264 -0.725460
vn -0.000000 -0.688264 -0.725460
vn -0.000000 -0.688264 -0.725460
vn -0.000000 -0.688264 -0.725460
vn -0.000000 -0.688264 -0.725460
vn -0.000000 -0.688264 -0.725460
vn -0.290724 -0.679915 -0.673198
vn -0.290724 -0.679915 -0.673198
vn -0.290724 -0.679915 -0.673198
vn -0.405912 0.913912 0.000000
vn -0.405912 0.913912 0.000000
vn -0.405912 0.913912 0.000000
vn -0.405912 0.913912 0.000000
vn 1.000000 -0.000000 -0.000000
vn 1.000000 -0.000000 -0.000000
vn 1.000000 -0.000000 -0.000000
vn 1.000000 -0.000000 -0.000000
vn 0.000001 -0.862245 -0.506492
vn 0.000001 -0.862245 -0.506492
vn 0.000001 -0.862245 -0.506492
vn 0.000001 -0.862245 -0.506492
vn 0.000000 0.000000 -1.000000
vn 0.000000 0.000000 -1.000000
vn 0.000000 0.000000 -1.000000
vn 0.000000 0.000000 -1.000000
vn -0.000001 0.862244 -0.506492
vn -0.000001 0.862244 -0.506492
vn -0.000001 0.862244 -0.506492
vn -0.000001 0.862244 -0.506492
vn -0.000001 0.862244 0.506493
vn -0.000001 0.862244 0.506493
vn -0.000001 0.862244 0.506493
vn -0.000001 0.862244 0.506493
vn -0.000000 -0.000000 1.000000
vn -0.000000 -0.000000 1.000000
vn -0.000000 -0.000000 1.000000
vn -0.000000 -0.000000 1.000000
vn 0.000001 -0.862244 0.506492
vn 0.000001 -0.862244 0.506492
vn 0.000001 -0.862244 0.506492
vn 0.000001 -0.862244 0.506492
vn -0.000001 1.000000 0.000000
vn -0.000001 1.000000 0.000000
vn -0.000001 1.000000 0.000000
vn -0.000001 1.000000 0.000000
vn 0.000001 -1.000000 -0.000000
vn 0.000001 -1.000000 -0.000000
vn 0.000001 -1.000000 -0.000000
vn 0.000001 -1.000000 -0.000000
vn -0.000000 -1.000000 -0.000000
vn -0.000000 -1.000000 -0.000000
vn -0.000000 -1.000000 -0.000000
vn -0.000000 -1.000000 -0.000000
vn 1.000000 -0.000000 -0.000000
vn 1.000000 -0.000000 -0.000000
vn 1.000000 -0.000000 -0.000000
vn 1.000000 -0.000000 -0.000000
vn 1.000000 -0.000000 0.000001
vn 1.000000 -0.000000 0.000001
vn 1.000000 -0.000000 0.000001
vn 1.000000 -0.000000 0.000001
vn 1.000000 -0.000000 0.000002
vn 1.000000 -0.000000 0.000000
vn 1.000000 -0.000000 0.000000
vn 1.000000 -0.000000 -0.000000
vn 1.000000 -0.000000 -0.000000
vn 1.000000 -0.000000 -0.000000
vn 1.000000 -0.000000 -0.000000
vn 1.000000 -0.000000 -0.000000
vn 1.000000 -0.000000 0.000000
vn 1.000000 -0.000000 -0.000000
vn 1.000000 -0.000000 0.000000
vn 1.000000 -0.000000 0.000000
vn 1.000000 -0.000000 0.000000
vn 1.000000 -0.000000 0.000000
vn 1.000000 -0.000000 0.000000
vn 1.000000 -0.000000 0.000000
vn 1.000000 -0.000000 0.000000
vn 1.000000 -0.000000 0.000000
vn 1.000000 -0.000000 0.000000
vn 1.000000 -0.000000 0.000000
vn 1.000000 -0.000000 0.000000
vn 1.000000 -0.000000 0.000000
vn 1.000000 -0.000000 0.000000
vn 1.000000 -0.000000 -0.000001
vn 1.000000 -0.000000 -0.000001
vn 1.000000 -0.000000 0.000000
vn 1.000000 -0.000000 0.000000
vn 1.000000 -0.000000 0.000000
vn 1.000000 -0.000000 0.000000
vn 1.000000 -0.000000 -0.000000
vn 1.000000 -0.000000 0.000000
vn 1.000000 -0.000000 -0.000000
vn 1.000000 -0.000000 -0.000000
vn 1.000000 -0.000000 -0.000000
vn 1.000000 -0.000000 -0.000000
vn 1.000000 -0.000000 -0.000000
vn 1.000000 -0.000000 -0.000000
vn 1.000000 -0.000001 0.000003
vn 1.000000 -0.000000 0.000001
vn 1.000000 -0.000000 -0.000000
vn 1.000000 -0.000000 -0.000001
vn 1.000000 -0.000001 -0.000004
vn 1.000000 -0.000000 0.000001
vn 1.000000 -0.000001 0.000003
vn 1.000000 -0.000001 0.000004
vn 1.000000 -0.000001 0.000003
vn 1.000000 -0.000000 0.000001
vn 1.000000 -0.000001 0.000004
vn 1.000000 -0.000001 0.000004
vn 1.000000 -0.000000 0.000001
vn 1.000000 0.000000 -0.000001
vn 1.000000 0.000000 -0.000001
vn 1.000000 -0.000000 0.000001
vn 1.000000 -0.000002 -0.000003
vn 1.000000 -0.000002 -0.000003
vn 1.000000 -0.000000 0.000001
vn 1.000000 -0.000000 0.000001
vn 1.000000 -0.000000 0.000001
vn 1.000000 -0.000000 -0.000000
vn 1.000000 -0.000000 0.000001
vn 1.000000 -0.000000 0.000001
vn 1.000000 -0.000000 -0.000000
vn 1.000000 -0.000000 -0.000000
vn 1.000000 -0.000000 -0.000000
vn 1.000000 -0.000000 -0.000000
vn 1.000000 -0.000000 -0.000001
vn 1.000000 -0.000000 -0.000001
vn 1.000000 -0.000000 -0.000000
vn 1.000000 -0.000000 -0.000000
vn 1.000000 -0.000000 -0.000000
vn 1.000000 -0.000000 0.000000
vn 1.000000 -0.000000 -0.000000
vn 1.000000 -0.000000 -0.000000
vn 1.000000 -0.000000 0.000000
vn 1.000000 -0.000000 0.000000
vn 1.000000 -0.000000 0.000000
vn 1.000000 -0.000000 0.000000
vn 1.000000 -0.000000 -0.000000
vn 1.000000 -0.000000 -0.000000
vn 1.000000 -0.000000 0.000000
vn 1.000000 -0.000000 -0.000000
vn 1.000000 -0.000000 -0.000000
vn 1.000000 -0.000000 0.000000
vn 1.000000 -0.000001 0.000000
vn 1.000000 -0.000000 -0.000001
vn 1.000000 -0.000001 -0.000005
vn 1.000000 -0.000001 -0.000004
vn 1.000000 -0.000001 -0.000004
vn 1.000000 -0.000001 -0.000005
vn 1.000000 -0.000000 -0.000001
vn 1.000000 -0.000001 -0.000005
vn 1.000000 0.000000 0.000000
vn 1.000000 -0.000000 -0.000001
vn 1.000000 0.000000 0.000000
vn 1.000000 -0.000002 -0.000000
vn 1.000000 -0.000000 -0.000001
vn 1.000000 -0.000002 -0.000000
vn 1.000000 -0.000000 -0.000000
vn 1.000000 -0.000000 -0.000001
vn 1.000000 -0.000000 -0.000001
vn 1.000000 -0.000000 -0.000000
vn 1.000000 -0.000000 0.000000
vn 1.000000 -0.000000 -0.000000
vn 1.000000 -0.000000 -0.000000
vn 1.000000 -0.000000 0.000000
vn 1.000000 -0.000000 -0.000000
vn 1.000000 -0.000000 0.000001
vn 1.000000 -0.000000 0.000000
vn 1.000000 -0.000000 0.000001
vn 1.000000 -0.000000 0.000000
vn 1.000000 -0.000000 0.000000
vn 1.000000 -0.000000 0.000000
vn 1.000000 -0.000000 0.000000
vn 1.000000 -0.000001 0.000000
vn 1.000000 -0.000000 0.000000
vn 1.000000 -0.000000 0.000009
vn 1.000000 -0.000001 0.000000
vn 1.000000 -0.000000 0.000009
vn 1.000000 -0.000000 -0.000000
vn 1.000000 -0.000001 0.000000
vn 1.000000 -0.000000 -0.000000
vn 1.000000 -0.000000 -0.000000
vn 1.000000 -0.000001 0.000000
vn 1.000000 -0.000000 -0.000000
vn 1.000000 -0.000001 -0.000000
vn 1.000000 -0.000001 0.000000
vn 1.000000 -0.000001 0.000000
vn 1.000000 -0.000001 -0.000000
vn 1.000000 -0.000003 -0.000000
vn 1.000000 -0.000001 -0.000000
vn 1.000000 -0.000003 -0.000000
vn 1.000000 -0.000003 -0.000000
f 1/1/1 2/2/2 3/3/3
f 1/1/1 3/3/3 4/4/4
f 4/4/5 3/3/6 5/5/7
f 4/4/5 5/5/7 6/6/8
f 6/6/9 5/5/10 7/7/11
f 6/6/9 7/7/11 8/8/12
f 8/8/13 7/7/14 9/9/15
f 8/8/13 9/9/15 10/10/16
f 10/10/17 9/9/18 11/11/19
f 10/10/17 11/11/19 12/12/20
f 12/12/21 11/11/22 13/13/23
f 12/12/21 13/13/23 14/14/24
f 14/14/25 13/13/26 15/15/27
f 14/14/25 15/15/27 16/16/28
f 16/16/29 15/15/30 17/17/31
f 16/16/29 17/17/31 18/18/32
f 18/18/33 17/17/34 19/19/35
f 18/18/33 19/19/35 20/20/36
f 20/20/37 19/19/38 21/21/39
f 20/20/37 21/21/39 22/22/40
f 22/22/41 21/21/42 23/23/43
f 22/22/41 23/23/43 24/24/44
f 24/24/45 23/23/46 25/25/47
f 24/24/45 25/25/47 26/26/48
f 26/26/49 25/25/50 27/27/51
f 26/26/49 27/27/51 28/28/52
f 28/28/53 27/27/54 29/29/55
f 28/28/53 29/29/55 30/30/56
f 30/30/57 29/29/58 31/31/59
f 30/30/57 31/31/59 32/32/60
f 32/32/61 31/31/62 33/33/63
f 32/32/61 33/33/63 34/34/64
f 34/34/65 33/33/66 35/35/67
f 34/34/65 35/35/67 36/36/68
f 36/36/69 35/35/70 37/37/71
f 36/36/69 37/37/71 38/38/72
f 38/38/73 37/37/74 39/39/75
f 38/38/73 39/39/75 40/40/76
f 40/40/77 39/39/78 2/2/79
f 40/40/77 2/2/79 1/1/80
f 2/41/81 41/42/82 3/43/83
f 3/43/84 41/42/85 5/44/86
f 5/44/87 41/42/88 7/45/89
f 7/45/90 41/42/91 9/46/92
f 9/46/93 41/42/94 11/47/95
f 11/47/96 41/42/97 13/48/98
f 13/48/99 41/42/100 15/49/101
f 15/49/102 41/42/103 17/50/104
f 17/50/105 41/42/106 19/51/107
f 19/51/108 41/42/109 21/52/110
f 21/52/111 41/42/112 23/53/113
f 23/53/114 41/42/115 25/54/116
f 25/54/117 41/42/118 27/55/119
f 27/55/120 41/42/121 29/56/122
f 29/56/123 41/42/124 31/57/125
f 31/57/126 41/42/127 33/58/128
f 33/58/129 41/42/130 35/59/131
f 35/59/132 41/42/133 37/60/134
f 37/60/135 41/42/136 39/61/137
f 39/61/138 41/42/139 2/41/140
f 42/62/141 43/63/142 44/64/143
f 42/62/141 44/64/143 45/65/144
f 45/65/145 44/64/146 46/66/147
f 45/65/145 46/66/147 47/67/148
f 47/67/149 46/66/150 48/68/151
f 47/67/149 48/68/151 49/69/152
f 49/69/153 48/68/154 50/70/155
f 49/69/153 50/70/155 51/71/156
f 51/71/157 50/70/158 52/72/159
f 51/71/157 52/72/159 53/73/160
f 53/73/161 52/72/162 54/74/163
f 53/73/161 54/74/163 55/75/164
f 55/75/165 54/74/166 56/76/167
f 55/75/165 56/76/167 57/77/168
f 57/77/169 56/76/170 58/78/171
f 57/77/169 58/78/171 59/79/172
f 59/79/173 58/78/174 60/80/175
f 59/79/173 60/80/175 61/81/176
f 61/81/177 60/80/178 62/82/179
f 61/81/177 62/82/179 63/83/180
f 63/83/181 62/82/182 64/84/183
f 63/83/181 64/84/183 65/85/184
f 65/85/185 64/84/186 66/86/187
f 65/85/185 66/86/187 67/87/188
f 67/87/189 66/86/190 68/88/191
f 67/87/189 68/88/191 69/89/192
f 69/89/193 68/88/194 70/90/195
f 69/89/193 70/90/195 71/91/196
f 71/91/197 70/90/198 72/92/199
f 71/91/197 72/92/199 73/93/200
f 73/93/201 72/92/202 74/94/203
f 73/93/201 74/94/203 75/95/204
f 75/95/205 74/94/206 76/96/207
f 75/95/205 76/96/207 77/97/208
f 77/97/209 76/96/210 78/98/211
f 77/97/209 78/98/211 79/99/212
f 79/99/213 78/98/214 80/100/215
f 79/99/213 80/100/215 81/101/216
f 81/101/217 80/100/218 43/63/219
f 81/101/217 43/63/219 42/62/220
f 43/102/221 82/103/222 44/104/223
f 44/104/224 82/103/225 46/105/226
f 46/105/227 82/103/228 48/106/229
f 48/106/230 82/103/231 50/107/232
f 50/107/233 82/103/234 52/108/235
f 52/108/236 82/103/237 54/109/238
f 54/109/239 82/103/240 56/110/241
f 56/110/242 82/103/243 58/111/244
f 58/111/245 82/103/246 60/112/247
f 60/112/248 82/103/249 62/113/250
f 62/113/251 82/103/252 64/114/253
f 64/114/254 82/103/255 66/115/256
f 66/115/257 82/103/258 68/116/259
f 68/116/260 82/103/261 70/117/262
f 70/117/263 82/103/264 72/118/265
f 72/118/266 82/103/267 74/119/268
f 74/119/269 82/103/270 76/120/271
f 76/120/272 82/103/273 78/121/274
f 78/121/275 82/103/276 80/122/277
f 80/122/278 82/103/279 43/102/280
f 8/8/281 10/10/282 71/91/283
f 8/8/281 71/91/283 73/93/284
f 83/123/285 84/124/286 85/125/287
f 86/126/288 87/127/289 83/123/290
f 86/126/288 83/123/290 85/125/291
f 83/123/292 87/127/293 88/128/294
f 88/128/295 87/127/296 89/129/297
f 90/130/298 91/131/299 92/132/300
f 93/133/301 94/134/302 90/130/303
f 90/130/304 94/134/305 91/131/306
f 93/133/307 95/135/308 94/134/309
f 95/136/310 96/137/311 94/138/312
f 94/138/313 96/137/314 88/128/315
f 94/138/316 88/128/317 91/139/318
f 91/139/319 88/128/320 89/129/321
f 91/139/322 89/129/323 92/140/324
f 92/140/325 89/129/326 97/141/327
f 98/142/328 88/128/329 96/137/330
f 98/142/331 84/124/332 88/128/333
f 88/128/334 84/124/335 83/123/336
f 84/124/337 98/142/338 99/143/339
f 84/124/337 99/143/339 100/144/340
f 101/145/341 102/146/342 86/147/343
f 101/145/341 86/147/343 85/148/344
f 100/144/345 103/149/346 101/150/347
f 103/149/348 104/151/349 102/152/350
f 103/149/348 102/152/350 101/150/351
f 105/153/352 86/147/353 102/146/354
f 105/153/352 102/146/354 106/154/355
f 86/126/356 105/155/357 87/127/358
f 105/155/359 107/156/360 87/127/361
f 87/127/362 107/156/363 89/129/364
f 89/129/365 107/156/366 97/141/367
f 107/157/368 108/158/369 97/159/370
f 97/159/371 108/158/372 109/160/373
f 109/161/374 108/162/375 110/163/376
f 111/164/377 109/161/378 112/165/379
f 112/165/380 109/161/381 110/163/382
f 112/165/383 110/163/384 113/166/385
f 113/166/386 110/163/387 114/167/388
f 113/166/389 114/167/390 115/168/391
f 115/168/392 114/167/393 116/169/394
f 113/170/395 115/171/396 117/172/397
f 117/172/398 118/173/399 113/170/400
f 113/170/401 118/173/402 112/174/403
f 112/174/404 118/173/405 111/175/406
f 116/176/407 96/177/408 115/178/409
f 115/178/410 96/177/411 95/179/412
f 96/177/413 116/176/414 98/142/415
f 98/142/416 116/176/417 99/143/418
f 114/167/419 99/143/420 116/169/421
f 100/144/422 99/143/423 103/149/424
f 103/149/425 99/143/426 114/167/427
f 114/167/428 110/163/429 103/149/430
f 103/149/431 110/163/432 104/151/433
f 108/162/434 106/180/435 110/163/436
f 110/163/437 106/180/438 104/151/439
f 106/180/440 102/152/441 104/151/442
f 84/124/443 100/144/444 101/145/445
f 84/124/443 101/145/445 85/148/446
f 111/181/447 92/182/448 97/159/449
f 111/181/447 97/159/449 109/160/450
f 111/175/451 118/173/452 119/183/453
f 111/175/451 119/183/453 120/184/454
f 118/173/455 117/172/456 121/185/457
f 118/173/455 121/185/457 119/183/458
f 117/172/459 115/171/460 122/186/461
f 117/172/459 122/186/461 121/185/462
f 95/135/463 93/133/464 123/187/465
f 95/135/463 123/187/465 124/188/466
f 93/133/467 90/130/468 125/189/469
f 93/133/467 125/189/469 123/187/470
f 90/130/471 92/132/472 126/190/473
f 90/130/471 126/190/473 125/189/474
f 115/171/475 95/135/476 124/188/477
f 115/171/475 124/188/477 122/186/478
f 92/132/479 111/191/480 120/192/481
f 92/132/479 120/192/481 126/190/482
f 105/153/483 106/154/484 108/158/485
f 105/153/483 108/158/485 107/157/486
f 36/36/487 38/38/488 124/188/489
f 36/36/487 124/188/489 123/193/490
f 42/62/491 45/65/492 121/194/493
f 42/62/491 121/194/493 122/186/494
f 42/62/495 122/186/496 81/101/497
f 38/38/498 40/40/499 124/188/500
f 124/188/501 40/40/502 122/186/503
f 40/40/504 1/1/505 122/186/506
f 1/1/507 4/4/508 122/186/509
f 4/4/510 6/6/511 122/186/512
f 122/186/513 6/6/514 81/101/515
f 81/101/516 6/6/517 79/99/518
f 79/99/519 6/6/520 77/97/521
f 77/97/522 6/6/523 75/95/524
f 6/6/525 8/8/526 75/95/527
f 8/8/528 73/93/529 75/95/530
f 36/36/531 123/193/532 34/34/533
f 45/65/534 47/67/535 121/194/536
f 34/34/537 123/193/538 32/32/539
f 123/193/540 125/195/541 32/32/542
f 32/32/543 125/195/544 30/30/545
f 30/30/546 125/195/547 28/28/548
f 28/28/549 125/195/550 26/26/551
f 125/195/552 126/196/553 26/26/554
f 26/26/555 126/196/556 24/24/557
f 24/24/558 126/196/559 22/22/560
f 22/22/561 126/196/562 20/20/563
f 126/196/564 120/197/565 20/20/566
f 20/20/567 120/197/568 18/18/569
f 18/18/570 120/197/571 16/16/572
f 16/16/573 120/197/574 14/14/575
f 14/14/576 120/197/577 12/12/578
f 47/67/579 49/69/580 121/194/581
f 121/194/582 49/69/583 119/198/584
f 49/69/585 51/71/586 119/198/587
f 51/71/588 53/73/589 119/198/590
f 53/73/591 55/75/592 119/198/593
f 119/198/594 55/75/595 120/197/596
f 55/75/597 57/77/598 120/197/599
f 57/77/600 59/79/601 120/197/602
f 59/79/603 61/81/604 120/197/605
f 120/197/606 61/81/607 12/12/608
f 61/81/609 63/83/610 12/12/611
f 63/83/612 65/85/613 12/12/614
f 65/85/615 67/87/616 12/12/617
f 67/87/618 69/89/619 12/12/620
f 12/12/621 69/89/622 10/10/623
f 69/89/624 71/91/625 10/10/626
